{
.appVersion = "895";
copyright = "Copyright 2016 Google Inc. All Rights Reserved.";
customParameters = (
{
name = openTypeOS2VendorID;
value = GOOG;
},
{
name = glyphOrder;
value = (
.notdef,
NULL,
CR,
space,
anusvarasinh,
visargasinh,
asinh,
aasinh,
easinh,
aaesinh,
isinh,
iisinh,
usinh,
uusinh,
rvocalicsinh,
rrvocalicsinh,
lvocalicsinh,
llvocalicsinh,
esinh,
eesinh,
aisinh,
osinh,
oosinh,
ausinh,
kasinh,
khasinh,
gasinh,
ghasinh,
ngasinh,
nngasinh,
casinh,
chasinh,
jasinh,
jhasinh,
nyasinh,
jnyasinh,
nyjasinh,
ttasinh,
tthasinh,
ddasinh,
ddhasinh,
nnasinh,
nnddasinh,
tasinh,
thasinh,
dasinh,
dhasinh,
nasinh,
ndasinh,
pasinh,
phasinh,
basinh,
bhasinh,
masinh,
mbasinh,
yasinh,
rasinh,
lasinh,
vasinh,
shasinh,
ssasinh,
sasinh,
hasinh,
llasinh,
fasinh,
viramasinh,
aavowelsignsinh,
aevowelsignsinh,
aaevowelsignsinh,
ivowelsignsinh,
iivowelsignsinh,
uvowelsignsinh,
uuvowelsignsinh,
rvocalicvowelsignsinh,
evowelsignsinh,
uni0DDA,
aivowelsignsinh,
uni0DDC,
uni0DDD,
uni0DDE,
lvocalicvowelsignsinh,
uni0DE6,
uni0DE7,
uni0DE8,
uni0DE9,
uni0DEA,
uni0DEB,
uni0DEC,
uni0DED,
uni0DEE,
uni0DEF,
u111E1,
u111E2,
u111E3,
u111E4,
u111E5,
u111E6,
u111E7,
u111E8,
u111E9,
u111EA,
u111EB,
u111EC,
u111ED,
u111EE,
u111EF,
u111F0,
u111F1,
u111F2,
u111F3,
u111F4,
rrvocalicvowelsignsinh,
llvocalicvowelsignsinh,
kunddaliyasinh,
rvocalicbasesinh,
kavasinh,
kassasinh,
gadhasinh,
nyacasinh,
ttatthasinh,
tathasinh,
tavasinh,
dadhasinh,
davasinh,
nathasinh,
nadasinh,
nadhasinh,
navasinh,
rephsinh,
yapostsinh,
rakarsinh,
oovowelsignaltsinh,
aevowelsignlowsinh,
aaevowelsignlowsinh,
karasinh,
kharasinh,
garasinh,
gharasinh,
ngarasinh,
nngarasinh,
carasinh,
charasinh,
jarasinh,
jharasinh,
nyarasinh,
jnyarasinh,
nyjarasinh,
ttarasinh,
ttharasinh,
ddarasinh,
ddharasinh,
nnarasinh,
nnddarasinh,
tarasinh,
tharasinh,
darasinh,
dharasinh,
narasinh,
ndarasinh,
parasinh,
pharasinh,
barasinh,
bharasinh,
marasinh,
mbarasinh,
yarasinh,
larasinh,
varasinh,
sharasinh,
ssarasinh,
sarasinh,
harasinh,
llarasinh,

glyphs = (
{
glyphname = .notdef;
lastChange = "2016-08-23 12:52:39 +0000";
layers = (
{
layerId = "AF791F9F-5317-4D76-BDD4-1652E63983EA";
paths = (
{
closed = 1;
nodes = (
"94 714 LINE",
"94 0 LINE",
"505 0 LINE",
"505 714 LINE"
);
},
{
closed = 1;
nodes = (
"454 51 LINE",
"145 51 LINE",
"145 663 LINE",
"454 663 LINE"
);
}
);
width = 600;
},
{
layerId = "32AB916E-052E-46AB-9DD5-C403DD480EC5";
paths = (
{
closed = 1;
nodes = (
"94 714 LINE",
"94 0 LINE",
"505 0 LINE",
"505 714 LINE"
);
},
{
closed = 1;
nodes = (
"454 51 LINE",
"145 51 LINE",
"145 663 LINE",
"454 663 LINE"
);
}
);
width = 600;
},
{
layerId = UUID0;
paths = (
{
closed = 1;
nodes = (
"94 714 LINE",
"94 0 LINE",
"505 0 LINE",
"505 714 LINE"
);
},
{
closed = 1;
nodes = (
"454 51 LINE",
"145 51 LINE",
"145 663 LINE",
"454 663 LINE"
);
}
);
width = 600;
}
);
},
{
glyphname = anusvarasinh;
lastChange = "2016-08-23 12:52:39 +0000";
layers = (
{
layerId = "AF791F9F-5317-4D76-BDD4-1652E63983EA";
paths = (
{
closed = 1;
nodes = (
"36 140 OFFCURVE",
"108 66 OFFCURVE",
"229 66 CURVE SMOOTH",
"352 66 OFFCURVE",
"424 141 OFFCURVE",
"424 265 CURVE SMOOTH",
"424 382 OFFCURVE",
"350 464 OFFCURVE",
"230 464 CURVE SMOOTH",
"109 464 OFFCURVE",
"36 381 OFFCURVE",
"36 265 CURVE SMOOTH"
);
},
{
closed = 1;
nodes = (
"63 374 OFFCURVE",
"129 439 OFFCURVE",
"229 439 CURVE SMOOTH",
"333 439 OFFCURVE",
"397 374 OFFCURVE",
"397 264 CURVE SMOOTH",
"397 170 OFFCURVE",
"349 93 OFFCURVE",
"229 93 CURVE SMOOTH",
"113 93 OFFCURVE",
"63 166 OFFCURVE",
"63 265 CURVE SMOOTH"
);
}
);
width = 460;
},
{
layerId = "32AB916E-052E-46AB-9DD5-C403DD480EC5";
paths = (
{
closed = 1;
nodes = (
"27 124 OFFCURVE",
"109 48 OFFCURVE",
"239 48 CURVE SMOOTH",
"370 48 OFFCURVE",
"453 123 OFFCURVE",
"453 272 CURVE SMOOTH",
"453 393 OFFCURVE",
"371 480 OFFCURVE",
"241 480 CURVE SMOOTH",
"110 480 OFFCURVE",
"27 391 OFFCURVE",
"27 272 CURVE SMOOTH"
);
},
{
closed = 1;
nodes = (
"117 366 OFFCURVE",
"160 408 OFFCURVE",
"239 408 CURVE SMOOTH",
"320 408 OFFCURVE",
"363 366 OFFCURVE",
"363 296 CURVE SMOOTH",
"363 235 OFFCURVE",
"330 189 OFFCURVE",
"239 189 CURVE SMOOTH",
"150 189 OFFCURVE",
"117 235 OFFCURVE",
"117 296 CURVE SMOOTH"
);
}
);
width = 480;
},
{
layerId = UUID0;
paths = (
{
closed = 1;
nodes = (
"32 138 OFFCURVE",
"109 54 OFFCURVE",
"234 54 CURVE SMOOTH",
"360 54 OFFCURVE",
"438 136 OFFCURVE",
"438 272 CURVE SMOOTH",
"438 388 OFFCURVE",
"360 475 OFFCURVE",
"236 475 CURVE SMOOTH",
"110 475 OFFCURVE",
"32 387 OFFCURVE",
"32 272 CURVE SMOOTH"
);
},
{
closed = 1;
nodes = (
"91 372 OFFCURVE",
"147 424 OFFCURVE",
"234 424 CURVE SMOOTH",
"323 424 OFFCURVE",
"379 372 OFFCURVE",
"379 281 CURVE SMOOTH",
"379 203 OFFCURVE",
"336 146 OFFCURVE",
"234 146 CURVE SMOOTH",
"134 146 OFFCURVE",
"91 204 OFFCURVE",
"91 282 CURVE SMOOTH"
);
}
);
width = 470;
}
);
leftKerningGroup = anusvarasinh;
unicode = 0D82;
},
{
glyphname = visargasinh;
lastChange = "2016-08-23 12:52:39 +0000";
layers = (
{
layerId = "AF791F9F-5317-4D76-BDD4-1652E63983EA";
paths = (
{
closed = 1;
nodes = (
"270 486 OFFCURVE",
"226 533 OFFCURVE",
"151 533 CURVE SMOOTH",
"81 533 OFFCURVE",
"34 484 OFFCURVE",
"34 416 CURVE SMOOTH",
"34 353 OFFCURVE",
"72 301 OFFCURVE",
"153 301 CURVE SMOOTH",
"223 301 OFFCURVE",
"270 348 OFFCURVE",
"270 418 CURVE SMOOTH"
);
},
{
closed = 1;
nodes = (
"243 358 OFFCURVE",
"206 326 OFFCURVE",
"150 326 CURVE SMOOTH",
"87 326 OFFCURVE",
"61 370 OFFCURVE",
"61 414 CURVE SMOOTH",
"61 474 OFFCURVE",
"97 508 OFFCURVE",
"152 508 CURVE SMOOTH",
"213 508 OFFCURVE",
"243 468 OFFCURVE",
"243 420 CURVE SMOOTH"
);
},
{
closed = 1;
nodes = (
"270 185 OFFCURVE",
"226 232 OFFCURVE",
"151 232 CURVE SMOOTH",
"81 232 OFFCURVE",
"34 183 OFFCURVE",
"34 115 CURVE SMOOTH",
"34 52 OFFCURVE",
"72 0 OFFCURVE",
"153 0 CURVE SMOOTH",
"223 0 OFFCURVE",
"270 47 OFFCURVE",
"270 117 CURVE SMOOTH"
);
},
{
closed = 1;
nodes = (
"243 56 OFFCURVE",
"206 25 OFFCURVE",
"150 25 CURVE SMOOTH",
"87 25 OFFCURVE",
"61 69 OFFCURVE",
"61 113 CURVE SMOOTH",
"61 173 OFFCURVE",
"97 207 OFFCURVE",
"152 207 CURVE SMOOTH",
"213 207 OFFCURVE",
"243 167 OFFCURVE",
"243 119 CURVE SMOOTH"
);
}
);
width = 304;
},
{
layerId = "32AB916E-052E-46AB-9DD5-C403DD480EC5";
paths = (
{
closed = 1;
nodes = (
"297 498 OFFCURVE",
"244 547 OFFCURVE",
"161 547 CURVE SMOOTH",
"79 547 OFFCURVE",
"27 491 OFFCURVE",
"27 418 CURVE SMOOTH",
"27 346 OFFCURVE",
"73 291 OFFCURVE",
"163 291 CURVE SMOOTH",
"244 291 OFFCURVE",
"297 339 OFFCURVE",
"297 421 CURVE SMOOTH"
);
},
{
closed = 1;
nodes = (
"221 386 OFFCURVE",
"196 367 OFFCURVE",
"160 367 CURVE SMOOTH",
"120 367 OFFCURVE",
"103 394 OFFCURVE",
"103 419 CURVE SMOOTH",
"103 455 OFFCURVE",
"127 475 OFFCURVE",
"162 475 CURVE SMOOTH",
"201 475 OFFCURVE",
"221 452 OFFCURVE",
"221 422 CURVE SMOOTH"
);
},
{
closed = 1;
nodes = (
"297 206 OFFCURVE",
"244 256 OFFCURVE",
"161 256 CURVE SMOOTH",
"79 256 OFFCURVE",
"27 200 OFFCURVE",
"27 127 CURVE SMOOTH",
"27 54 OFFCURVE",
"73 0 OFFCURVE",
"163 0 CURVE SMOOTH",
"244 0 OFFCURVE",
"297 48 OFFCURVE",
"297 130 CURVE SMOOTH"
);
},
{
closed = 1;
nodes = (
"221 95 OFFCURVE",
"196 76 OFFCURVE",
"160 76 CURVE SMOOTH",
"120 76 OFFCURVE",
"103 103 OFFCURVE",
"103 128 CURVE SMOOTH",
"103 164 OFFCURVE",
"127 184 OFFCURVE",
"162 184 CURVE SMOOTH",
"201 184 OFFCURVE",
"221 161 OFFCURVE",
"221 132 CURVE SMOOTH"
);
}
);
width = 324;
},
{
layerId = UUID0;
paths = (
{
closed = 1;
nodes = (
"279 490 OFFCURVE",
"230 536 OFFCURVE",
"154 536 CURVE SMOOTH",
"78 536 OFFCURVE",
"30 484 OFFCURVE",
"30 418 CURVE SMOOTH",
"30 351 OFFCURVE",
"72 300 OFFCURVE",
"155 300 CURVE SMOOTH",
"230 300 OFFCURVE",
"279 345 OFFCURVE",
"279 420 CURVE SMOOTH"
);
},
{
closed = 1;
nodes = (
"224 375 OFFCURVE",
"194 354 OFFCURVE",
"153 354 CURVE SMOOTH",
"106 354 OFFCURVE",
"85 386 OFFCURVE",
"85 418 CURVE SMOOTH",
"85 462 OFFCURVE",
"113 486 OFFCURVE",
"154 486 CURVE SMOOTH",
"201 486 OFFCURVE",
"224 457 OFFCURVE",
"224 420 CURVE SMOOTH"
);
},
{
closed = 1;
nodes = (
"279 189 OFFCURVE",
"230 236 OFFCURVE",
"154 236 CURVE SMOOTH",
"78 236 OFFCURVE",
"30 184 OFFCURVE",
"30 118 CURVE SMOOTH",
"30 50 OFFCURVE",
"72 0 OFFCURVE",
"155 0 CURVE SMOOTH",
"230 0 OFFCURVE",
"279 45 OFFCURVE",
"279 120 CURVE SMOOTH"
);
},
{
closed = 1;
nodes = (
"224 75 OFFCURVE",
"194 54 OFFCURVE",
"153 54 CURVE SMOOTH",
"106 54 OFFCURVE",
"85 86 OFFCURVE",
"85 118 CURVE SMOOTH",
"85 162 OFFCURVE",
"113 186 OFFCURVE",
"154 186 CURVE SMOOTH",
"201 186 OFFCURVE",
"224 157 OFFCURVE",
"224 121 CURVE SMOOTH"
);
}
);
width = 309;
}
);
unicode = 0D83;
},
{
glyphname = asinh;
lastChange = "2016-08-23 12:52:39 +0000";
layers = (
{
layerId = "AF791F9F-5317-4D76-BDD4-1652E63983EA";
paths = (
{
closed = 1;
nodes = (
"434 -10 OFFCURVE",
"510 18 OFFCURVE",
"591 58 CURVE",
"580 82 LINE",
"486 36 OFFCURVE",
"418 16 OFFCURVE",
"300 16 CURVE SMOOTH",
"144 16 OFFCURVE",
"68 85 OFFCURVE",
"68 213 CURVE SMOOTH",
"68 350 OFFCURVE",
"176 417 OFFCURVE",
"366 417 CURVE SMOOTH",
"452 417 LINE",
"452 424 LINE SMOOTH",
"452 526 OFFCURVE",
"383 589 OFFCURVE",
"293 589 CURVE SMOOTH",
"222 589 OFFCURVE",
"176 547 OFFCURVE",
"176 495 CURVE SMOOTH",
"176 474 OFFCURVE",
"181 451 OFFCURVE",
"190 436 CURVE",
"214 444 LINE",
"206 459 OFFCURVE",
"203 475 OFFCURVE",
"203 492 CURVE SMOOTH",
"203 526 OFFCURVE",
"225 564 OFFCURVE",
"294 564 CURVE SMOOTH",
"376 564 OFFCURVE",
"420 507 OFFCURVE",
"431 442 CURVE",
"365 442 LINE SMOOTH",
"166 442 OFFCURVE",
"40 370 OFFCURVE",
"40 213 CURVE SMOOTH",
"40 76 OFFCURVE",
"121 -10 OFFCURVE",
"299 -10 CURVE SMOOTH"
);
},
{
closed = 1;
nodes = (
"456 -226 LINE",
"456 370 LINE SMOOTH",
"456 460 OFFCURVE",
"501 521 OFFCURVE",
"555 573 CURVE",
"535 590 LINE",
"464 513 OFFCURVE",
"430 445 OFFCURVE",
"430 363 CURVE SMOOTH",
"430 -226 LINE"
);
},
{
closed = 1;
nodes = (
"600 256 OFFCURVE",
"640 283 OFFCURVE",
"640 344 CURVE SMOOTH",
"640 384 OFFCURVE",
"623 408 OFFCURVE",
"584 452 CURVE SMOOTH",
"545 496 OFFCURVE",
"538 511 OFFCURVE",
"538 534 CURVE SMOOTH",
"538 540 OFFCURVE",
"538 552 OFFCURVE",
"544 567 CURVE",
"516 538 LINE",
"516 501 OFFCURVE",
"523 479 OFFCURVE",
"566 433 CURVE SMOOTH",
"599 398 OFFCURVE",
"613 373 OFFCURVE",
"613 343 CURVE SMOOTH",
"613 294 OFFCURVE",
"578 281 OFFCURVE",
"545 281 CURVE SMOOTH",
"502 281 OFFCURVE",
"472 297 OFFCURVE",
"444 322 CURVE",
"436 296 LINE",
"463 274 OFFCURVE",
"500 256 OFFCURVE",
"545 256 CURVE SMOOTH"
);
}
);
width = 668;
},
{
layerId = "32AB916E-052E-46AB-9DD5-C403DD480EC5";
paths = (
{
closed = 1;
nodes = (
"480 -10 OFFCURVE",
"597 22 OFFCURVE",
"668 58 CURVE",
"637 133 LINE",
"544 88 OFFCURVE",
"472 74 OFFCURVE",
"397 74 CURVE SMOOTH",
"290 74 OFFCURVE",
"220 121 OFFCURVE",
"220 218 CURVE SMOOTH",
"220 318 OFFCURVE",
"276 374 OFFCURVE",
"438 374 CURVE SMOOTH",
"532 374 LINE",
"532 396 LINE SMOOTH",
"532 520 OFFCURVE",
"474 598 OFFCURVE",
"365 598 CURVE SMOOTH",
"265 598 OFFCURVE",
"217 555 OFFCURVE",
"217 499 CURVE SMOOTH",
"217 479 OFFCURVE",
"221 459 OFFCURVE",
"229 445 CURVE",
"359 458 LINE",
"358 464 OFFCURVE",
"357 471 OFFCURVE",
"357 478 CURVE SMOOTH",
"357 498 OFFCURVE",
"367 515 OFFCURVE",
"395 515 CURVE SMOOTH",
"434 515 OFFCURVE",
"449 481 OFFCURVE",
"458 442 CURVE",
"409 442 LINE SMOOTH",
"164 442 OFFCURVE",
"28 368 OFFCURVE",
"28 213 CURVE SMOOTH",
"28 75 OFFCURVE",
"123 -10 OFFCURVE",
"355 -10 CURVE SMOOTH"
);
},
{
closed = 1;
nodes = (
"541 -226 LINE",
"541 366 LINE SMOOTH",
"541 447 OFFCURVE",
"572 499 OFFCURVE",
"638 548 CURVE",
"576 598 LINE",
"503 534 OFFCURVE",
"462 447 OFFCURVE",
"462 331 CURVE SMOOTH",
"462 -226 LINE"
);
},
{
closed = 1;
nodes = (
"681 247 OFFCURVE",
"725 280 OFFCURVE",
"725 346 CURVE SMOOTH",
"725 390 OFFCURVE",
"711 417 OFFCURVE",
"668 464 CURVE SMOOTH",
"633 502 OFFCURVE",
"625 517 OFFCURVE",
"625 533 CURVE SMOOTH",
"625 540 OFFCURVE",
"626 546 OFFCURVE",
"629 553 CURVE",
"564 504 LINE",
"565 478 OFFCURVE",
"580 447 OFFCURVE",
"603 423 CURVE SMOOTH",
"634 390 OFFCURVE",
"644 374 OFFCURVE",
"644 355 CURVE SMOOTH",
"644 331 OFFCURVE",
"631 319 OFFCURVE",
"602 319 CURVE SMOOTH",
"568 319 OFFCURVE",
"540 335 OFFCURVE",
"517 359 CURVE",
"488 287 LINE",
"521 264 OFFCURVE",
"564 247 OFFCURVE",
"608 247 CURVE SMOOTH"
);
}
);
width = 745;
},
{
layerId = UUID0;
paths = (
{
closed = 1;
nodes = (
"461 -10 OFFCURVE",
"534 16 OFFCURVE",
"628 60 CURVE",
"606 113 LINE",
"511 63 OFFCURVE",
"440 48 OFFCURVE",
"337 48 CURVE SMOOTH",
"205 48 OFFCURVE",
"137 120 OFFCURVE",
"137 217 CURVE SMOOTH",
"137 344 OFFCURVE",
"214 391 OFFCURVE",
"373 391 CURVE SMOOTH",
"495 391 LINE",
"495 400 LINE SMOOTH",
"495 517 OFFCURVE",
"439 589 OFFCURVE",
"321 589 CURVE SMOOTH",
"249 589 OFFCURVE",
"195 555 OFFCURVE",
"195 490 CURVE SMOOTH",
"195 466 OFFCURVE",
"201 453 OFFCURVE",
"206 442 CURVE",
"284 452 LINE",
"282 458 OFFCURVE",
"280 471 OFFCURVE",
"280 481 CURVE SMOOTH",
"280 506 OFFCURVE",
"291 534 OFFCURVE",
"336 534 CURVE SMOOTH",
"407 534 OFFCURVE",
"435 492 OFFCURVE",
"443 442 CURVE",
"376 442 LINE SMOOTH",
"204 442 OFFCURVE",
"36 397 OFFCURVE",
"36 212 CURVE SMOOTH",
"36 78 OFFCURVE",
"137 -10 OFFCURVE",
"327 -10 CURVE SMOOTH"
);
},
{
closed = 1;
nodes = (
"498 -226 LINE",
"498 366 LINE SMOOTH",
"498 447 OFFCURVE",
"530 502 OFFCURVE",
"596 551 CURVE",
"549 590 LINE",
"480 529 OFFCURVE",
"440 442 OFFCURVE",
"440 351 CURVE SMOOTH",
"440 -226 LINE"
);
},
{
closed = 1;
nodes = (
"634 250 OFFCURVE",
"682 279 OFFCURVE",
"682 345 CURVE SMOOTH",
"682 382 OFFCURVE",
"662 412 OFFCURVE",
"623 456 CURVE SMOOTH",
"584 500 OFFCURVE",
"580 515 OFFCURVE",
"580 531 CURVE SMOOTH",
"580 538 OFFCURVE",
"582 544 OFFCURVE",
"585 551 CURVE",
"534 514 LINE",
"534 489 OFFCURVE",
"541 465 OFFCURVE",
"582 421 CURVE SMOOTH",
"611 390 OFFCURVE",
"622 371 OFFCURVE",
"622 345 CURVE SMOOTH",
"622 315 OFFCURVE",
"603 302 OFFCURVE",
"571 302 CURVE SMOOTH",
"530 302 OFFCURVE",
"501 320 OFFCURVE",
"475 346 CURVE",
"453 294 LINE",
"484 271 OFFCURVE",
"531 250 OFFCURVE",
"573 250 CURVE SMOOTH"
);
}
);
width = 707;
}
);
leftKerningGroup = dasinh;
rightKerningGroup = asinh;
unicode = 0D85;
},
{
glyphname = isinh;
lastChange = "2016-08-23 12:52:39 +0000";
layers = (
{
layerId = "AF791F9F-5317-4D76-BDD4-1652E63983EA";
paths = (
{
closed = 1;
nodes = (
"373 96 OFFCURVE",
"460 150 OFFCURVE",
"460 295 CURVE SMOOTH",
"460 364 OFFCURVE",
"423 411 OFFCURVE",
"356 411 CURVE SMOOTH",
"296 411 OFFCURVE",
"255 368 OFFCURVE",
"255 308 CURVE SMOOTH",
"255 246 OFFCURVE",
"296 211 OFFCURVE",
"354 211 CURVE SMOOTH",
"403 211 OFFCURVE",
"428 239 OFFCURVE",
"443 271 CURVE",
"438 269 LINE",
"425 180 OFFCURVE",
"372 121 OFFCURVE",
"265 121 CURVE SMOOTH",
"150 121 OFFCURVE",
"69 184 OFFCURVE",
"69 326 CURVE SMOOTH",
"69 465 OFFCURVE",
"175 564 OFFCURVE",
"353 564 CURVE SMOOTH",
"557 564 OFFCURVE",
"637 442 OFFCURVE",
"637 297 CURVE SMOOTH",
"637 124 OFFCURVE",
"557 25 OFFCURVE",
"344 25 CURVE SMOOTH",
"316 25 LINE",
"315 0 LINE",
"337 0 LINE SMOOTH",
"588 0 OFFCURVE",
"664 125 OFFCURVE",
"664 298 CURVE SMOOTH",
"664 455 OFFCURVE",
"574 589 OFFCURVE",
"353 589 CURVE SMOOTH",
"151 589 OFFCURVE",
"42 469 OFFCURVE",
"42 327 CURVE SMOOTH",
"42 169 OFFCURVE",
"136 96 OFFCURVE",
"265 96 CURVE SMOOTH"
);
},
{
closed = 1;
nodes = (
"302 236 OFFCURVE",
"281 268 OFFCURVE",
"281 308 CURVE SMOOTH",
"281 350 OFFCURVE",
"305 386 OFFCURVE",
"356 386 CURVE SMOOTH",
"403 386 OFFCURVE",
"431 357 OFFCURVE",
"431 311 CURVE SMOOTH",
"431 269 OFFCURVE",
"408 236 OFFCURVE",
"356 236 CURVE SMOOTH"
);
},
{
closed = 1;
nodes = (
"194 1 LINE",
"182 -24 OFFCURVE",
"174 -55 OFFCURVE",
"174 -86 CURVE SMOOTH",
"174 -163 OFFCURVE",
"220 -240 OFFCURVE",
"348 -240 CURVE SMOOTH",
"469 -240 OFFCURVE",
"524 -183 OFFCURVE",
"524 -88 CURVE SMOOTH",
"524 -43 OFFCURVE",
"510 -5 OFFCURVE",
"476 33 CURVE",
"454 17 LINE",
"478 -2 OFFCURVE",
"497 -40 OFFCURVE",
"497 -87 CURVE SMOOTH",
"497 -170 OFFCURVE",
"452 -215 OFFCURVE",
"348 -215 CURVE SMOOTH",
"248 -215 OFFCURVE",
"202 -164 OFFCURVE",
"202 -86 CURVE SMOOTH",
"202 -57 OFFCURVE",
"208 -29 OFFCURVE",
"219 -8 CURVE"
);
}
);
width = 706;
},
{
layerId = "32AB916E-052E-46AB-9DD5-C403DD480EC5";
paths = (
{
closed = 1;
nodes = (
"427 70 OFFCURVE",
"525 119 OFFCURVE",
"525 247 CURVE SMOOTH",
"525 353 OFFCURVE",
"456 398 OFFCURVE",
"384 398 CURVE SMOOTH",
"310 398 OFFCURVE",
"257 352 OFFCURVE",
"257 281 CURVE SMOOTH",
"257 211 OFFCURVE",
"304 166 OFFCURVE",
"385 166 CURVE SMOOTH",
"436 166 OFFCURVE",
"466 194 OFFCURVE",
"481 226 CURVE",
"465 227 LINE",
"446 153 OFFCURVE",
"377 141 OFFCURVE",
"309 141 CURVE SMOOTH",
"213 141 OFFCURVE",
"134 177 OFFCURVE",
"134 283 CURVE SMOOTH",
"134 387 OFFCURVE",
"222 445 OFFCURVE",
"379 445 CURVE SMOOTH",
"547 445 OFFCURVE",
"644 376 OFFCURVE",
"644 249 CURVE SMOOTH",
"644 141 OFFCURVE",
"577 73 OFFCURVE",
"412 73 CURVE SMOOTH",
"372 73 LINE",
"371 0 LINE",
"405 0 LINE SMOOTH",
"646 0 OFFCURVE",
"747 125 OFFCURVE",
"747 303 CURVE SMOOTH",
"747 468 OFFCURVE",
"630 598 OFFCURVE",
"385 598 CURVE SMOOTH",
"142 598 OFFCURVE",
"31 463 OFFCURVE",
"31 315 CURVE SMOOTH",
"31 152 OFFCURVE",
"148 70 OFFCURVE",
"308 70 CURVE SMOOTH"
);
},
{
closed = 1;
nodes = (
"351 232 OFFCURVE",
"338 258 OFFCURVE",
"338 282 CURVE SMOOTH",
"338 307 OFFCURVE",
"354 330 OFFCURVE",
"387 330 CURVE SMOOTH",
"420 330 OFFCURVE",
"434 307 OFFCURVE",
"434 281 CURVE SMOOTH",
"434 254 OFFCURVE",
"422 232 OFFCURVE",
"387 232 CURVE SMOOTH"
);
},
{
closed = 1;
nodes = (
"199 15 LINE",
"184 -10 OFFCURVE",
"171 -39 OFFCURVE",
"171 -80 CURVE SMOOTH",
"171 -175 OFFCURVE",
"237 -252 OFFCURVE",
"395 -252 CURVE SMOOTH",
"529 -252 OFFCURVE",
"601 -191 OFFCURVE",
"601 -84 CURVE SMOOTH",
"601 -33 OFFCURVE",
"585 2 OFFCURVE",
"555 36 CURVE",
"472 17 LINE",
"496 -2 OFFCURVE",
"515 -35 OFFCURVE",
"515 -81 CURVE SMOOTH",
"515 -161 OFFCURVE",
"448 -179 OFFCURVE",
"396 -179 CURVE SMOOTH",
"321 -179 OFFCURVE",
"278 -148 OFFCURVE",
"278 -79 CURVE SMOOTH",
"278 -57 OFFCURVE",
"282 -34 OFFCURVE",
"291 -16 CURVE"
);
}
);
width = 780;
},
{
layerId = UUID0;
paths = (
{
closed = 1;
nodes = (
"394 82 OFFCURVE",
"493 125 OFFCURVE",
"493 260 CURVE SMOOTH",
"493 366 OFFCURVE",
"431 406 OFFCURVE",
"367 406 CURVE SMOOTH",
"288 406 OFFCURVE",
"249 353 OFFCURVE",
"249 296 CURVE SMOOTH",
"249 230 OFFCURVE",
"292 186 OFFCURVE",
"366 186 CURVE SMOOTH",
"413 186 OFFCURVE",
"439 206 OFFCURVE",
"454 238 CURVE",
"445 242 LINE",
"435 156 OFFCURVE",
"358 134 OFFCURVE",
"279 134 CURVE SMOOTH",
"170 134 OFFCURVE",
"98 188 OFFCURVE",
"98 302 CURVE SMOOTH",
"98 440 OFFCURVE",
"210 496 OFFCURVE",
"361 496 CURVE SMOOTH",
"552 496 OFFCURVE",
"647 413 OFFCURVE",
"647 275 CURVE SMOOTH",
"647 136 OFFCURVE",
"557 52 OFFCURVE",
"375 52 CURVE SMOOTH",
"343 52 LINE",
"342 0 LINE",
"370 0 LINE SMOOTH",
"611 0 OFFCURVE",
"707 125 OFFCURVE",
"707 307 CURVE SMOOTH",
"707 474 OFFCURVE",
"590 589 OFFCURVE",
"368 589 CURVE SMOOTH",
"170 589 OFFCURVE",
"38 485 OFFCURVE",
"38 318 CURVE SMOOTH",
"38 168 OFFCURVE",
"132 82 OFFCURVE",
"282 82 CURVE SMOOTH"
);
},
{
closed = 1;
nodes = (
"325 237 OFFCURVE",
"306 262 OFFCURVE",
"306 298 CURVE SMOOTH",
"306 333 OFFCURVE",
"332 355 OFFCURVE",
"367 355 CURVE SMOOTH",
"411 355 OFFCURVE",
"428 327 OFFCURVE",
"428 298 CURVE SMOOTH",
"428 257 OFFCURVE",
"405 237 OFFCURVE",
"368 237 CURVE SMOOTH"
);
},
{
closed = 1;
nodes = (
"194 2 LINE",
"182 -22 OFFCURVE",
"175 -47 OFFCURVE",
"175 -77 CURVE SMOOTH",
"175 -163 OFFCURVE",
"225 -245 OFFCURVE",
"375 -245 CURVE SMOOTH",
"500 -245 OFFCURVE",
"571 -188 OFFCURVE",
"571 -82 CURVE SMOOTH",
"571 -38 OFFCURVE",
"558 2 OFFCURVE",
"524 40 CURVE",
"470 21 LINE",
"494 2 OFFCURVE",
"511 -36 OFFCURVE",
"511 -79 CURVE SMOOTH",
"511 -161 OFFCURVE",
"462 -193 OFFCURVE",
"378 -193 CURVE SMOOTH",
"299 -193 OFFCURVE",
"245 -156 OFFCURVE",
"245 -79 CURVE SMOOTH",
"245 -53 OFFCURVE",
"250 -31 OFFCURVE",
"259 -13 CURVE"
);
}
);
width = 745;
}
);
unicode = 0D89;
},
{
glyphname = iisinh;
lastChange = "2016-08-23 12:52:39 +0000";
layers = (
{
layerId = "AF791F9F-5317-4D76-BDD4-1652E63983EA";
paths = (
{
closed = 1;
nodes = (
"502 -10 OFFCURVE",
"614 95 OFFCURVE",
"614 282 CURVE SMOOTH",
"614 443 OFFCURVE",
"502 572 OFFCURVE",
"329 572 CURVE SMOOTH",
"167 572 OFFCURVE",
"44 453 OFFCURVE",
"44 282 CURVE SMOOTH",
"44 102 OFFCURVE",
"148 -10 OFFCURVE",
"329 -10 CURVE SMOOTH"
);
},
{
closed = 1;
nodes = (
"198 17 OFFCURVE",
"71 83 OFFCURVE",
"71 280 CURVE SMOOTH",
"71 449 OFFCURVE",
"189 547 OFFCURVE",
"329 547 CURVE SMOOTH",
"462 547 OFFCURVE",
"587 455 OFFCURVE",
"587 284 CURVE SMOOTH",
"587 84 OFFCURVE",
"461 17 OFFCURVE",
"330 17 CURVE SMOOTH"
);
},
{
closed = 1;
nodes = (
"279 557 LINE",
"391 625 OFFCURVE",
"560 752 OFFCURVE",
"643 828 CURVE",
"626 848 LINE",
"537 766 OFFCURVE",
"378 647 OFFCURVE",
"219 539 CURVE"
);
},
{
closed = 1;
nodes = (
"366 766 OFFCURVE",
"332 798 OFFCURVE",
"284 798 CURVE SMOOTH",
"236 798 OFFCURVE",
"202 766 OFFCURVE",
"202 717 CURVE SMOOTH",
"202 668 OFFCURVE",
"236 636 OFFCURVE",
"284 636 CURVE SMOOTH",
"332 636 OFFCURVE",
"366 668 OFFCURVE",
"366 717 CURVE SMOOTH"
);
},
{
closed = 1;
nodes = (
"341 685 OFFCURVE",
"320 660 OFFCURVE",
"284 660 CURVE SMOOTH",
"248 660 OFFCURVE",
"227 685 OFFCURVE",
"227 717 CURVE SMOOTH",
"227 749 OFFCURVE",
"248 774 OFFCURVE",
"284 774 CURVE SMOOTH",
"320 774 OFFCURVE",
"341 749 OFFCURVE",
"341 717 CURVE SMOOTH"
);
},
{
closed = 1;
nodes = (
"634 664 OFFCURVE",
"600 696 OFFCURVE",
"552 696 CURVE SMOOTH",
"504 696 OFFCURVE",
"470 664 OFFCURVE",
"470 615 CURVE SMOOTH",
"470 566 OFFCURVE",
"504 534 OFFCURVE",
"552 534 CURVE SMOOTH",
"600 534 OFFCURVE",
"634 566 OFFCURVE",
"634 615 CURVE SMOOTH"
);
},
{
closed = 1;
nodes = (
"609 583 OFFCURVE",
"588 558 OFFCURVE",
"552 558 CURVE SMOOTH",
"516 558 OFFCURVE",
"495 583 OFFCURVE",
"495 615 CURVE SMOOTH",
"495 647 OFFCURVE",
"516 672 OFFCURVE",
"552 672 CURVE SMOOTH",
"588 672 OFFCURVE",
"609 647 OFFCURVE",
"609 615 CURVE SMOOTH"
);
}
);
width = 658;
},
{
layerId = "32AB916E-052E-46AB-9DD5-C403DD480EC5";
paths = (
{
closed = 1;
nodes = (
"562 -10 OFFCURVE",
"686 89 OFFCURVE",
"686 297 CURVE SMOOTH",
"686 460 OFFCURVE",
"561 590 OFFCURVE",
"359 590 CURVE SMOOTH",
"169 590 OFFCURVE",
"33 468 OFFCURVE",
"33 294 CURVE SMOOTH",
"33 91 OFFCURVE",
"152 -10 OFFCURVE",
"359 -10 CURVE SMOOTH"
);
},
{
closed = 1;
nodes = (
"229 188 OFFCURVE",
"140 232 OFFCURVE",
"140 346 CURVE SMOOTH",
"140 457 OFFCURVE",
"231 518 OFFCURVE",
"359 518 CURVE SMOOTH",
"475 518 OFFCURVE",
"579 461 OFFCURVE",
"579 347 CURVE SMOOTH",
"579 235 OFFCURVE",
"492 188 OFFCURVE",
"360 188 CURVE SMOOTH"
);
},
{
closed = 1;
nodes = (
"310 532 LINE",
"418 590 OFFCURVE",
"591 718 OFFCURVE",
"679 793 CURVE",
"610 870 LINE",
"517 782 OFFCURVE",
"367 645 OFFCURVE",
"216 539 CURVE"
);
},
{
closed = 1;
nodes = (
"397 790 OFFCURVE",
"358 826 OFFCURVE",
"298 826 CURVE SMOOTH",
"238 826 OFFCURVE",
"199 785 OFFCURVE",
"199 731 CURVE SMOOTH",
"199 678 OFFCURVE",
"233 637 OFFCURVE",
"299 637 CURVE SMOOTH",
"358 637 OFFCURVE",
"397 674 OFFCURVE",
"397 733 CURVE SMOOTH"
);
},
{
closed = 1;
nodes = (
"334 709 OFFCURVE",
"320 697 OFFCURVE",
"298 697 CURVE SMOOTH",
"272 697 OFFCURVE",
"262 714 OFFCURVE",
"262 730 CURVE SMOOTH",
"262 753 OFFCURVE",
"277 767 OFFCURVE",
"299 767 CURVE SMOOTH",
"323 767 OFFCURVE",
"334 751 OFFCURVE",
"334 732 CURVE SMOOTH"
);
},
{
closed = 1;
nodes = (
"719 674 OFFCURVE",
"680 711 OFFCURVE",
"620 711 CURVE SMOOTH",
"560 711 OFFCURVE",
"521 670 OFFCURVE",
"521 616 CURVE SMOOTH",
"521 563 OFFCURVE",
"555 522 OFFCURVE",
"621 522 CURVE SMOOTH",
"680 522 OFFCURVE",
"719 559 OFFCURVE",
"719 618 CURVE SMOOTH"
);
},
{
closed = 1;
nodes = (
"656 595 OFFCURVE",
"641 582 OFFCURVE",
"619 582 CURVE SMOOTH",
"594 582 OFFCURVE",
"584 599 OFFCURVE",
"584 615 CURVE SMOOTH",
"584 639 OFFCURVE",
"599 652 OFFCURVE",
"621 652 CURVE SMOOTH",
"645 652 OFFCURVE",
"656 636 OFFCURVE",
"656 618 CURVE SMOOTH"
);
}
);
width = 719;
},
{
layerId = UUID0;
paths = (
{
closed = 1;
nodes = (
"531 -10 OFFCURVE",
"647 95 OFFCURVE",
"647 282 CURVE SMOOTH",
"647 444 OFFCURVE",
"532 572 OFFCURVE",
"344 572 CURVE SMOOTH",
"167 572 OFFCURVE",
"41 453 OFFCURVE",
"41 282 CURVE SMOOTH",
"41 102 OFFCURVE",
"151 -10 OFFCURVE",
"344 -10 CURVE SMOOTH"
);
},
{
closed = 1;
nodes = (
"219 95 OFFCURVE",
"104 148 OFFCURVE",
"104 307 CURVE SMOOTH",
"104 443 OFFCURVE",
"211 522 OFFCURVE",
"344 522 CURVE SMOOTH",
"470 522 OFFCURVE",
"584 448 OFFCURVE",
"584 310 CURVE SMOOTH",
"584 149 OFFCURVE",
"470 95 OFFCURVE",
"345 95 CURVE SMOOTH"
);
},
{
closed = 1;
nodes = (
"303 536 LINE",
"417 609 OFFCURVE",
"586 732 OFFCURVE",
"664 800 CURVE",
"616 856 LINE",
"527 774 OFFCURVE",
"372 643 OFFCURVE",
"213 535 CURVE"
);
},
{
closed = 1;
nodes = (
"392 781 OFFCURVE",
"355 815 OFFCURVE",
"298 815 CURVE SMOOTH",
"241 815 OFFCURVE",
"204 776 OFFCURVE",
"204 725 CURVE SMOOTH",
"204 675 OFFCURVE",
"236 636 OFFCURVE",
"299 636 CURVE SMOOTH",
"355 636 OFFCURVE",
"392 671 OFFCURVE",
"392 727 CURVE SMOOTH"
);
},
{
closed = 1;
nodes = (
"344 697 OFFCURVE",
"326 681 OFFCURVE",
"298 681 CURVE SMOOTH",
"264 681 OFFCURVE",
"252 704 OFFCURVE",
"252 724 CURVE SMOOTH",
"252 753 OFFCURVE",
"271 771 OFFCURVE",
"299 771 CURVE SMOOTH",
"329 771 OFFCURVE",
"344 751 OFFCURVE",
"344 726 CURVE SMOOTH"
);
},
{
closed = 1;
nodes = (
"681 661 OFFCURVE",
"644 696 OFFCURVE",
"587 696 CURVE SMOOTH",
"530 696 OFFCURVE",
"493 657 OFFCURVE",
"493 606 CURVE SMOOTH",
"493 556 OFFCURVE",
"525 517 OFFCURVE",
"588 517 CURVE SMOOTH",
"644 517 OFFCURVE",
"681 552 OFFCURVE",
"681 608 CURVE SMOOTH"
);
},
{
closed = 1;
nodes = (
"633 579 OFFCURVE",
"614 562 OFFCURVE",
"586 562 CURVE SMOOTH",
"553 562 OFFCURVE",
"541 585 OFFCURVE",
"541 605 CURVE SMOOTH",
"541 635 OFFCURVE",
"560 652 OFFCURVE",
"588 652 CURVE SMOOTH",
"618 652 OFFCURVE",
"633 632 OFFCURVE",
"633 608 CURVE SMOOTH"
);
}
);
width = 688;
}
);
unicode = 0D8A;
},
{
glyphname = usinh;
lastChange = "2016-08-23 12:52:39 +0000";
layers = (
{
layerId = "AF791F9F-5317-4D76-BDD4-1652E63983EA";
paths = (
{
closed = 1;
nodes = (
"616 -230 OFFCURVE",
"718 -109 OFFCURVE",
"718 104 CURVE SMOOTH",
"718 117 OFFCURVE",
"716 138 OFFCURVE",
"713 158 CURVE",
"686 155 LINE",
"689 134 OFFCURVE",
"691 117 OFFCURVE",
"691 102 CURVE SMOOTH",
"691 -99 OFFCURVE",
"593 -203 OFFCURVE",
"375 -203 CURVE SMOOTH",
"160 -203 OFFCURVE",
"61 -88 OFFCURVE",
"61 85 CURVE SMOOTH",
"61 300 OFFCURVE",
"217 417 OFFCURVE",
"509 417 CURVE SMOOTH",
"632 417 LINE",
"632 424 LINE SMOOTH",
"632 523 OFFCURVE",
"558 589 OFFCURVE",
"462 589 CURVE SMOOTH",
"385 589 OFFCURVE",
"339 547 OFFCURVE",
"339 495 CURVE SMOOTH",
"339 480 OFFCURVE",
"342 459 OFFCURVE",
"348 447 CURVE",
"373 453 LINE",
"368 464 OFFCURVE",
"366 478 OFFCURVE",
"366 492 CURVE SMOOTH",
"366 526 OFFCURVE",
"388 564 OFFCURVE",
"463 564 CURVE SMOOTH",
"551 564 OFFCURVE",
"595 507 OFFCURVE",
"606 442 CURVE",
"509 442 LINE SMOOTH",
"210 442 OFFCURVE",
"33 320 OFFCURVE",
"33 85 CURVE SMOOTH",
"33 -94 OFFCURVE",
"134 -230 OFFCURVE",
"375 -230 CURVE SMOOTH"
);
}
);
width = 733;
},
{
layerId = "32AB916E-052E-46AB-9DD5-C403DD480EC5";
paths = (
{
closed = 1;
nodes = (
"690 -276 OFFCURVE",
"799 -124 OFFCURVE",
"799 59 CURVE SMOOTH",
"799 97 OFFCURVE",
"796 124 OFFCURVE",
"793 144 CURVE",
"714 138 LINE",
"717 117 OFFCURVE",
"718 100 OFFCURVE",
"718 78 CURVE SMOOTH",
"718 -74 OFFCURVE",
"628 -151 OFFCURVE",
"459 -151 CURVE SMOOTH",
"293 -151 OFFCURVE",
"199 -62 OFFCURVE",
"199 98 CURVE SMOOTH",
"199 248 OFFCURVE",
"301 371 OFFCURVE",
"581 371 CURVE SMOOTH",
"711 371 LINE",
"711 393 LINE SMOOTH",
"711 496 OFFCURVE",
"660 598 OFFCURVE",
"525 598 CURVE SMOOTH",
"419 598 OFFCURVE",
"372 555 OFFCURVE",
"372 499 CURVE SMOOTH",
"372 479 OFFCURVE",
"376 459 OFFCURVE",
"384 445 CURVE",
"514 458 LINE",
"513 464 OFFCURVE",
"512 473 OFFCURVE",
"512 478 CURVE SMOOTH",
"512 498 OFFCURVE",
"521 515 OFFCURVE",
"554 515 CURVE SMOOTH",
"599 515 OFFCURVE",
"615 481 OFFCURVE",
"625 442 CURVE",
"552 442 LINE SMOOTH",
"233 442 OFFCURVE",
"25 321 OFFCURVE",
"25 72 CURVE SMOOTH",
"25 -127 OFFCURVE",
"151 -276 OFFCURVE",
"415 -276 CURVE SMOOTH"
);
}
);
width = 808;
},
{
layerId = UUID0;
paths = (
{
closed = 1;
nodes = (
"638 -256 OFFCURVE",
"754 -124 OFFCURVE",
"754 60 CURVE SMOOTH",
"754 87 OFFCURVE",
"752 114 OFFCURVE",
"749 134 CURVE",
"694 131 LINE",
"697 110 OFFCURVE",
"698 85 OFFCURVE",
"698 69 CURVE SMOOTH",
"698 -83 OFFCURVE",
"608 -180 OFFCURVE",
"402 -180 CURVE SMOOTH",
"201 -180 OFFCURVE",
"123 -61 OFFCURVE",
"123 83 CURVE SMOOTH",
"123 280 OFFCURVE",
"256 391 OFFCURVE",
"527 391 CURVE SMOOTH",
"667 391 LINE",
"667 400 LINE SMOOTH",
"667 508 OFFCURVE",
"609 589 OFFCURVE",
"480 589 CURVE SMOOTH",
"399 589 OFFCURVE",
"346 552 OFFCURVE",
"346 487 CURVE SMOOTH",
"346 475 OFFCURVE",
"349 456 OFFCURVE",
"355 444 CURVE",
"434 453 LINE",
"432 460 OFFCURVE",
"431 476 OFFCURVE",
"431 481 CURVE SMOOTH",
"431 506 OFFCURVE",
"445 534 OFFCURVE",
"493 534 CURVE SMOOTH",
"564 534 OFFCURVE",
"601 490 OFFCURVE",
"610 442 CURVE",
"529 442 LINE SMOOTH",
"226 442 OFFCURVE",
"30 326 OFFCURVE",
"30 73 CURVE SMOOTH",
"30 -77 OFFCURVE",
"109 -256 OFFCURVE",
"390 -256 CURVE SMOOTH"
);
}
);
width = 766;
}
);
leftKerningGroup = usinh;
rightKerningGroup = usinh;
unicode = 0D8B;
},
{
glyphname = lvocalicsinh;
lastChange = "2016-08-23 12:52:39 +0000";
layers = (
{
layerId = "AF791F9F-5317-4D76-BDD4-1652E63983EA";
paths = (
{
closed = 1;
nodes = (
"793 409 LINE",
"798 424 OFFCURVE",
"803 449 OFFCURVE",
"803 469 CURVE SMOOTH",
"803 539 OFFCURVE",
"760 589 OFFCURVE",
"680 589 CURVE SMOOTH",
"586 589 OFFCURVE",
"517 520 OFFCURVE",
"517 424 CURVE SMOOTH",
"517 417 LINE",
"556 417 LINE SMOOTH",
"727 417 OFFCURVE",
"798 360 OFFCURVE",
"798 234 CURVE SMOOTH",
"798 105 OFFCURVE",
"701 17 OFFCURVE",
"495 17 CURVE SMOOTH",
"290 17 OFFCURVE",
"194 107 OFFCURVE",
"194 237 CURVE SMOOTH",
"194 368 OFFCURVE",
"276 417 OFFCURVE",
"431 417 CURVE SMOOTH",
"475 417 LINE",
"475 424 LINE SMOOTH",
"475 523 OFFCURVE",
"401 589 OFFCURVE",
"311 589 CURVE SMOOTH",
"245 589 OFFCURVE",
"194 546 OFFCURVE",
"194 495 CURVE SMOOTH",
"194 465 OFFCURVE",
"202 444 OFFCURVE",
"215 421 CURVE",
"239 431 LINE",
"226 453 OFFCURVE",
"221 470 OFFCURVE",
"221 492 CURVE SMOOTH",
"221 526 OFFCURVE",
"243 564 OFFCURVE",
"312 564 CURVE SMOOTH",
"394 564 OFFCURVE",
"438 507 OFFCURVE",
"449 442 CURVE",
"456 442 LINE",
"421 442 LINE SMOOTH",
"253 442 OFFCURVE",
"167 372 OFFCURVE",
"167 237 CURVE SMOOTH",
"167 86 OFFCURVE",
"280 -10 OFFCURVE",
"495 -10 CURVE SMOOTH",
"718 -10 OFFCURVE",
"825 88 OFFCURVE",
"825 235 CURVE SMOOTH",
"825 363 OFFCURVE",
"756 442 OFFCURVE",
"566 442 CURVE SMOOTH",
"534 442 LINE",
"543 441 LINE",
"552 508 OFFCURVE",
"600 564 OFFCURVE",
"677 564 CURVE SMOOTH",
"761 564 OFFCURVE",
"776 512 OFFCURVE",
"776 468 CURVE SMOOTH",
"776 450 OFFCURVE",
"772 429 OFFCURVE",
"768 415 CURVE"
);
},
{
closed = 1;
nodes = (
"43 211 OFFCURVE",
"100 122 OFFCURVE",
"182 50 CURVE",
"200 69 LINE",
"124 134 OFFCURVE",
"70 217 OFFCURVE",
"70 331 CURVE SMOOTH",
"70 479 OFFCURVE",
"170 567 OFFCURVE",
"290 567 CURVE SMOOTH",
"295 567 OFFCURVE",
"305 567 OFFCURVE",
"313 566 CURVE",
"337 584 LINE",
"321 587 OFFCURVE",
"305 589 OFFCURVE",
"293 589 CURVE SMOOTH",
"156 589 OFFCURVE",
"43 495 OFFCURVE",
"43 332 CURVE SMOOTH"
);
},
{
closed = 1;
nodes = (
"949 495 OFFCURVE",
"836 589 OFFCURVE",
"706 589 CURVE SMOOTH",
"687 589 OFFCURVE",
"671 587 OFFCURVE",
"655 584 CURVE",
"679 566 LINE",
"687 567 OFFCURVE",
"697 567 OFFCURVE",
"711 567 CURVE SMOOTH",
"822 567 OFFCURVE",
"922 479 OFFCURVE",
"922 339 CURVE SMOOTH",
"922 217 OFFCURVE",
"868 134 OFFCURVE",
"792 69 CURVE",
"810 50 LINE",
"892 122 OFFCURVE",
"949 211 OFFCURVE",
"949 339 CURVE SMOOTH"
);
}
);
width = 992;
},
{
layerId = "32AB916E-052E-46AB-9DD5-C403DD480EC5";
paths = (
{
closed = 1;
nodes = (
"888 414 LINE",
"894 431 OFFCURVE",
"897 453 OFFCURVE",
"897 478 CURVE SMOOTH",
"897 535 OFFCURVE",
"865 598 OFFCURVE",
"756 598 CURVE SMOOTH",
"648 598 OFFCURVE",
"578 515 OFFCURVE",
"578 400 CURVE SMOOTH",
"578 374 LINE",
"683 374 LINE SMOOTH",
"767 374 OFFCURVE",
"822 360 OFFCURVE",
"822 296 CURVE SMOOTH",
"822 210 OFFCURVE",
"718 188 OFFCURVE",
"559 188 CURVE SMOOTH",
"395 188 OFFCURVE",
"299 214 OFFCURVE",
"299 294 CURVE SMOOTH",
"299 362 OFFCURVE",
"358 374 OFFCURVE",
"453 374 CURVE SMOOTH",
"552 374 LINE",
"552 405 LINE SMOOTH",
"552 520 OFFCURVE",
"482 598 OFFCURVE",
"372 598 CURVE SMOOTH",
"277 598 OFFCURVE",
"229 554 OFFCURVE",
"229 498 CURVE SMOOTH",
"229 468 OFFCURVE",
"239 444 OFFCURVE",
"256 428 CURVE",
"367 452 LINE",
"365 459 OFFCURVE",
"364 467 OFFCURVE",
"364 477 CURVE SMOOTH",
"364 498 OFFCURVE",
"374 515 OFFCURVE",
"402 515 CURVE SMOOTH",
"440 515 OFFCURVE",
"458 480 OFFCURVE",
"466 438 CURVE",
"473 442 LINE",
"437 442 LINE SMOOTH",
"281 442 OFFCURVE",
"196 373 OFFCURVE",
"196 244 CURVE SMOOTH",
"196 88 OFFCURVE",
"310 -10 OFFCURVE",
"559 -10 CURVE SMOOTH",
"800 -10 OFFCURVE",
"925 81 OFFCURVE",
"925 244 CURVE SMOOTH",
"925 374 OFFCURVE",
"838 442 OFFCURVE",
"697 442 CURVE SMOOTH",
"657 442 LINE",
"667 437 LINE",
"678 501 OFFCURVE",
"717 516 OFFCURVE",
"755 516 CURVE SMOOTH",
"789 516 OFFCURVE",
"815 497 OFFCURVE",
"815 461 CURVE SMOOTH",
"815 454 OFFCURVE",
"814 444 OFFCURVE",
"811 435 CURVE"
);
},
{
closed = 1;
nodes = (
"32 196 OFFCURVE",
"94 101 OFFCURVE",
"165 37 CURVE",
"225 94 LINE",
"165 154 OFFCURVE",
"120 220 OFFCURVE",
"120 316 CURVE SMOOTH",
"120 452 OFFCURVE",
"219 526 OFFCURVE",
"310 526 CURVE SMOOTH",
"321 526 OFFCURVE",
"330 526 OFFCURVE",
"339 525 CURVE",
"371 590 LINE",
"355 593 OFFCURVE",
"339 595 OFFCURVE",
"309 595 CURVE SMOOTH",
"169 595 OFFCURVE",
"32 504 OFFCURVE",
"32 326 CURVE SMOOTH"
);
},
{
closed = 1;
nodes = (
"1089 507 OFFCURVE",
"952 595 OFFCURVE",
"825 595 CURVE SMOOTH",
"782 595 OFFCURVE",
"766 593 OFFCURVE",
"750 590 CURVE",
"782 523 LINE",
"790 525 OFFCURVE",
"812 526 OFFCURVE",
"826 526 CURVE SMOOTH",
"902 526 OFFCURVE",
"1001 455 OFFCURVE",
"1001 329 CURVE SMOOTH",
"1001 220 OFFCURVE",
"956 154 OFFCURVE",
"896 94 CURVE",
"956 37 LINE",
"1027 101 OFFCURVE",
"1089 196 OFFCURVE",
"1089 333 CURVE SMOOTH"
);
}
);
width = 1121;
},
{
layerId = UUID0;
paths = (
{
closed = 1;
nodes = (
"839 414 LINE",
"844 432 OFFCURVE",
"846 451 OFFCURVE",
"846 468 CURVE SMOOTH",
"846 538 OFFCURVE",
"794 589 OFFCURVE",
"717 589 CURVE SMOOTH",
"618 589 OFFCURVE",
"548 514 OFFCURVE",
"548 396 CURVE SMOOTH",
"548 391 LINE",
"604 391 LINE SMOOTH",
"733 391 OFFCURVE",
"814 360 OFFCURVE",
"814 255 CURVE SMOOTH",
"814 151 OFFCURVE",
"717 95 OFFCURVE",
"528 95 CURVE SMOOTH",
"342 95 OFFCURVE",
"244 150 OFFCURVE",
"244 255 CURVE SMOOTH",
"244 360 OFFCURVE",
"325 391 OFFCURVE",
"454 391 CURVE SMOOTH",
"516 391 LINE",
"516 405 LINE SMOOTH",
"516 516 OFFCURVE",
"453 589 OFFCURVE",
"340 589 CURVE SMOOTH",
"277 589 OFFCURVE",
"216 555 OFFCURVE",
"216 490 CURVE SMOOTH",
"216 466 OFFCURVE",
"223 444 OFFCURVE",
"235 426 CURVE",
"303 444 LINE",
"299 457 OFFCURVE",
"297 470 OFFCURVE",
"297 481 CURVE SMOOTH",
"297 515 OFFCURVE",
"317 534 OFFCURVE",
"357 534 CURVE SMOOTH",
"423 534 OFFCURVE",
"452 487 OFFCURVE",
"460 437 CURVE",
"466 442 LINE",
"447 442 LINE SMOOTH",
"264 442 OFFCURVE",
"184 368 OFFCURVE",
"184 239 CURVE SMOOTH",
"184 83 OFFCURVE",
"303 -10 OFFCURVE",
"528 -10 CURVE SMOOTH",
"755 -10 OFFCURVE",
"874 83 OFFCURVE",
"874 238 CURVE SMOOTH",
"874 368 OFFCURVE",
"794 442 OFFCURVE",
"611 442 CURVE SMOOTH",
"597 442 LINE",
"605 438 LINE",
"617 492 OFFCURVE",
"649 529 OFFCURVE",
"709 529 CURVE SMOOTH",
"760 529 OFFCURVE",
"792 506 OFFCURVE",
"792 460 CURVE SMOOTH",
"792 452 OFFCURVE",
"791 439 OFFCURVE",
"788 427 CURVE"
);
},
{
closed = 1;
nodes = (
"40 205 OFFCURVE",
"98 111 OFFCURVE",
"182 41 CURVE",
"219 79 LINE",
"148 139 OFFCURVE",
"100 217 OFFCURVE",
"100 324 CURVE SMOOTH",
"100 470 OFFCURVE",
"200 543 OFFCURVE",
"299 543 CURVE SMOOTH",
"307 543 OFFCURVE",
"316 542 OFFCURVE",
"325 542 CURVE",
"357 584 LINE",
"341 587 OFFCURVE",
"325 589 OFFCURVE",
"309 589 CURVE SMOOTH",
"171 589 OFFCURVE",
"40 504 OFFCURVE",
"40 329 CURVE SMOOTH"
);
},
{
closed = 1;
nodes = (
"1018 504 OFFCURVE",
"892 589 OFFCURVE",
"756 589 CURVE SMOOTH",
"733 589 OFFCURVE",
"717 587 OFFCURVE",
"701 584 CURVE",
"733 542 LINE",
"742 542 OFFCURVE",
"751 543 OFFCURVE",
"769 543 CURVE SMOOTH",
"864 543 OFFCURVE",
"958 475 OFFCURVE",
"958 329 CURVE SMOOTH",
"958 217 OFFCURVE",
"910 139 OFFCURVE",
"839 79 CURVE",
"876 41 LINE",
"960 111 OFFCURVE",
"1018 205 OFFCURVE",
"1018 338 CURVE SMOOTH"
);
}
);
width = 1058;
}
);
unicode = 0D8F;
},
{
glyphname = esinh;
lastChange = "2016-08-23 12:52:39 +0000";
layers = (
{
layerId = "AF791F9F-5317-4D76-BDD4-1652E63983EA";
paths = (
{
closed = 1;
nodes = (
"578 -10 OFFCURVE",
"715 162 OFFCURVE",
"715 400 CURVE SMOOTH",
"715 674 OFFCURVE",
"510 789 OFFCURVE",
"262 812 CURVE",
"259 787 LINE",
"485 770 OFFCURVE",
"688 668 OFFCURVE",
"688 401 CURVE SMOOTH",
"688 178 OFFCURVE",
"559 17 OFFCURVE",
"328 17 CURVE SMOOTH",
"168 17 OFFCURVE",
"83 81 OFFCURVE",
"83 214 CURVE SMOOTH",
"83 331 OFFCURVE",
"154 397 OFFCURVE",
"293 421 CURVE",
"239 417 LINE",
"406 417 LINE",
"406 424 LINE SMOOTH",
"406 523 OFFCURVE",
"332 589 OFFCURVE",
"242 589 CURVE SMOOTH",
"171 589 OFFCURVE",
"125 547 OFFCURVE",
"125 495 CURVE SMOOTH",
"125 483 OFFCURVE",
"127 466 OFFCURVE",
"132 453 CURVE",
"157 458 LINE",
"154 467 OFFCURVE",
"152 479 OFFCURVE",
"152 492 CURVE SMOOTH",
"152 526 OFFCURVE",
"174 564 OFFCURVE",
"243 564 CURVE SMOOTH",
"325 564 OFFCURVE",
"369 507 OFFCURVE",
"380 442 CURVE",
"22 442 LINE",
"22 417 LINE",
"103 417 LINE SMOOTH",
"143 417 OFFCURVE",
"205 418 OFFCURVE",
"240 424 CURVE",
"230 425 LINE",
"106 393 OFFCURVE",
"56 317 OFFCURVE",
"56 214 CURVE SMOOTH",
"56 62 OFFCURVE",
"154 -10 OFFCURVE",
"327 -10 CURVE SMOOTH"
);
},
{
closed = 1;
nodes = (
"530 582 OFFCURVE",
"557 627 OFFCURVE",
"583 692 CURVE",
"560 705 LINE",
"540 644 OFFCURVE",
"510 608 OFFCURVE",
"461 608 CURVE SMOOTH",
"401 608 OFFCURVE",
"371 639 OFFCURVE",
"357 697 CURVE SMOOTH",
"346 743 OFFCURVE",
"333 779 OFFCURVE",
"298 798 CURVE",
"275 787 LINE",
"295 783 OFFCURVE",
"313 766 OFFCURVE",
"331 691 CURVE SMOOTH",
"346 628 OFFCURVE",
"384 582 OFFCURVE",
"458 582 CURVE SMOOTH"
);
}
);
width = 758;
},
{
layerId = "32AB916E-052E-46AB-9DD5-C403DD480EC5";
paths = (
{
closed = 1;
nodes = (
"665 -10 OFFCURVE",
"791 165 OFFCURVE",
"791 403 CURVE SMOOTH",
"791 660 OFFCURVE",
"607 790 OFFCURVE",
"320 817 CURVE",
"309 734 LINE",
"541 726 OFFCURVE",
"687 638 OFFCURVE",
"687 439 CURVE SMOOTH",
"687 313 OFFCURVE",
"612 188 OFFCURVE",
"360 188 CURVE SMOOTH",
"209 188 OFFCURVE",
"159 221 OFFCURVE",
"159 284 CURVE SMOOTH",
"159 324 OFFCURVE",
"190 362 OFFCURVE",
"271 382 CURVE",
"202 374 LINE",
"437 374 LINE",
"437 405 LINE SMOOTH",
"437 520 OFFCURVE",
"367 598 OFFCURVE",
"257 598 CURVE SMOOTH",
"156 598 OFFCURVE",
"109 555 OFFCURVE",
"109 499 CURVE SMOOTH",
"109 485 OFFCURVE",
"111 466 OFFCURVE",
"118 452 CURVE",
"250 460 LINE",
"249 467 OFFCURVE",
"249 472 OFFCURVE",
"249 477 CURVE SMOOTH",
"249 498 OFFCURVE",
"259 515 OFFCURVE",
"287 515 CURVE SMOOTH",
"325 515 OFFCURVE",
"342 480 OFFCURVE",
"350 442 CURVE",
"21 442 LINE",
"21 374 LINE",
"43 374 LINE SMOOTH",
"76 374 OFFCURVE",
"129 376 OFFCURVE",
"157 380 CURVE",
"190 406 LINE",
"110 374 OFFCURVE",
"52 314 OFFCURVE",
"52 221 CURVE SMOOTH",
"52 81 OFFCURVE",
"139 -10 OFFCURVE",
"361 -10 CURVE SMOOTH"
);
},
{
closed = 1;
nodes = (
"580 540 OFFCURVE",
"622 585 OFFCURVE",
"654 667 CURVE",
"591 717 LINE",
"567 653 OFFCURVE",
"552 625 OFFCURVE",
"504 625 CURVE SMOOTH",
"470 625 OFFCURVE",
"449 641 OFFCURVE",
"437 676 CURVE SMOOTH",
"419 728 OFFCURVE",
"388 765 OFFCURVE",
"337 781 CURVE",
"315 737 LINE",
"331 732 OFFCURVE",
"343 720 OFFCURVE",
"355 672 CURVE SMOOTH",
"378 583 OFFCURVE",
"419 540 OFFCURVE",
"498 540 CURVE SMOOTH"
);
}
);
width = 823;
},
{
layerId = UUID0;
paths = (
{
closed = 1;
nodes = (
"631 -10 OFFCURVE",
"756 165 OFFCURVE",
"756 403 CURVE SMOOTH",
"756 676 OFFCURVE",
"547 793 OFFCURVE",
"291 812 CURVE",
"284 756 LINE",
"497 746 OFFCURVE",
"693 671 OFFCURVE",
"693 408 CURVE SMOOTH",
"693 255 OFFCURVE",
"614 95 OFFCURVE",
"350 95 CURVE SMOOTH",
"173 95 OFFCURVE",
"119 153 OFFCURVE",
"119 240 CURVE SMOOTH",
"119 320 OFFCURVE",
"180 373 OFFCURVE",
"286 398 CURVE",
"241 391 LINE",
"430 391 LINE",
"430 405 LINE SMOOTH",
"430 516 OFFCURVE",
"367 589 OFFCURVE",
"254 589 CURVE SMOOTH",
"182 589 OFFCURVE",
"126 555 OFFCURVE",
"126 490 CURVE SMOOTH",
"126 482 OFFCURVE",
"128 463 OFFCURVE",
"132 452 CURVE",
"214 459 LINE",
"212 465 OFFCURVE",
"211 475 OFFCURVE",
"211 481 CURVE SMOOTH",
"211 515 OFFCURVE",
"231 534 OFFCURVE",
"271 534 CURVE SMOOTH",
"337 534 OFFCURVE",
"364 488 OFFCURVE",
"373 442 CURVE",
"24 442 LINE",
"24 391 LINE",
"59 391 LINE SMOOTH",
"105 391 OFFCURVE",
"175 393 OFFCURVE",
"203 397 CURVE",
"223 416 LINE",
"126 391 OFFCURVE",
"57 313 OFFCURVE",
"57 214 CURVE SMOOTH",
"57 77 OFFCURVE",
"151 -10 OFFCURVE",
"355 -10 CURVE SMOOTH"
);
},
{
closed = 1;
nodes = (
"558 556 OFFCURVE",
"599 615 OFFCURVE",
"625 680 CURVE",
"576 709 LINE",
"556 648 OFFCURVE",
"529 617 OFFCURVE",
"483 617 CURVE SMOOTH",
"434 617 OFFCURVE",
"411 641 OFFCURVE",
"396 696 CURVE SMOOTH",
"382 745 OFFCURVE",
"356 771 OFFCURVE",
"307 797 CURVE",
"295 759 LINE",
"311 754 OFFCURVE",
"328 741 OFFCURVE",
"341 690 CURVE SMOOTH",
"359 619 OFFCURVE",
"389 556 OFFCURVE",
"476 556 CURVE SMOOTH"
);
}
);
width = 796;
}
);
rightKerningGroup = thasinh;
unicode = 0D91;
},
{
glyphname = eesinh;
lastChange = "2016-08-23 12:52:39 +0000";
layers = (
{
components = (
{
name = esinh;
}
);
layerId = "AF791F9F-5317-4D76-BDD4-1652E63983EA";
paths = (
{
closed = 1;
nodes = (
"441 963 OFFCURVE",
"427 960 OFFCURVE",
"417 957 CURVE",
"421 934 LINE",
"432 937 OFFCURVE",
"444 939 OFFCURVE",
"453 939 CURVE SMOOTH",
"484 939 OFFCURVE",
"507 925 OFFCURVE",
"507 859 CURVE SMOOTH",
"507 836 LINE SMOOTH",
"507 799 OFFCURVE",
"507 763 OFFCURVE",
"509 726 CURVE",
"533 713 LINE",
"533 739 LINE SMOOTH",
"533 768 OFFCURVE",
"533 799 OFFCURVE",
"530 829 CURVE",
"534 836 LINE",
"534 901 LINE",
"523 902 LINE",
"518 941 OFFCURVE",
"491 963 OFFCURVE",
"457 963 CURVE SMOOTH"
);
},
{
closed = 1;
nodes = (
"560 963 OFFCURVE",
"533 935 OFFCURVE",
"516 895 CURVE",
"531 872 LINE",
"541 911 OFFCURVE",
"560 940 OFFCURVE",
"598 940 CURVE SMOOTH",
"631 940 OFFCURVE",
"649 915 OFFCURVE",
"649 875 CURVE SMOOTH",
"649 830 OFFCURVE",
"629 812 OFFCURVE",
"596 812 CURVE SMOOTH",
"559 812 OFFCURVE",
"540 837 OFFCURVE",
"531 867 CURVE",
"521 844 LINE",
"534 813 OFFCURVE",
"559 789 OFFCURVE",
"598 789 CURVE SMOOTH",
"643 789 OFFCURVE",
"675 819 OFFCURVE",
"675 875 CURVE SMOOTH",
"675 922 OFFCURVE",
"650 963 OFFCURVE",
"600 963 CURVE SMOOTH"
);
}
);
width = 758;
},
{
components = (
{
name = esinh;
}
);
layerId = "32AB916E-052E-46AB-9DD5-C403DD480EC5";
paths = (
{
closed = 1;
nodes = (
"502 963 OFFCURVE",
"484 958 OFFCURVE",
"473 953 CURVE",
"484 889 LINE",
"490 890 OFFCURVE",
"497 891 OFFCURVE",
"504 891 CURVE SMOOTH",
"526 891 OFFCURVE",
"544 879 OFFCURVE",
"544 835 CURVE SMOOTH",
"544 825 LINE SMOOTH",
"544 795 OFFCURVE",
"546 764 OFFCURVE",
"549 736 CURVE",
"616 698 LINE",
"616 728 LINE SMOOTH",
"616 758 OFFCURVE",
"616 789 OFFCURVE",
"613 819 CURVE",
"616 836 LINE",
"616 901 LINE",
"605 901 LINE",
"594 941 OFFCURVE",
"562 963 OFFCURVE",
"528 963 CURVE SMOOTH"
);
},
{
closed = 1;
nodes = (
"628 963 OFFCURVE",
"595 937 OFFCURVE",
"575 896 CURVE",
"614 863 LINE",
"619 886 OFFCURVE",
"635 899 OFFCURVE",
"651 899 CURVE SMOOTH",
"674 899 OFFCURVE",
"685 882 OFFCURVE",
"685 855 CURVE SMOOTH",
"685 829 OFFCURVE",
"673 814 OFFCURVE",
"653 814 CURVE SMOOTH",
"628 814 OFFCURVE",
"617 834 OFFCURVE",
"612 862 CURVE",
"594 795 LINE",
"607 764 OFFCURVE",
"641 749 OFFCURVE",
"669 749 CURVE SMOOTH",
"729 749 OFFCURVE",
"757 793 OFFCURVE",
"757 856 CURVE SMOOTH",
"757 920 OFFCURVE",
"726 963 OFFCURVE",
"670 963 CURVE SMOOTH"
);
}
);
width = 823;
},
{
components = (
{
name = esinh;
}
);
layerId = UUID0;
paths = (
{
closed = 1;
nodes = (
"472 963 OFFCURVE",
"459 959 OFFCURVE",
"449 954 CURVE",
"457 909 LINE",
"461 910 OFFCURVE",
"469 911 OFFCURVE",
"481 911 CURVE SMOOTH",
"501 911 OFFCURVE",
"526 899 OFFCURVE",
"526 848 CURVE SMOOTH",
"526 829 LINE SMOOTH",
"526 801 OFFCURVE",
"526 773 OFFCURVE",
"529 738 CURVE",
"578 703 LINE",
"578 748 LINE SMOOTH",
"578 778 OFFCURVE",
"578 789 OFFCURVE",
"575 819 CURVE",
"578 836 LINE",
"578 901 LINE",
"567 901 LINE",
"557 941 OFFCURVE",
"527 963 OFFCURVE",
"496 963 CURVE SMOOTH"
);
},
{
closed = 1;
nodes = (
"590 963 OFFCURVE",
"557 937 OFFCURVE",
"537 896 CURVE",
"575 872 LINE",
"582 900 OFFCURVE",
"598 919 OFFCURVE",
"624 919 CURVE SMOOTH",
"653 919 OFFCURVE",
"667 900 OFFCURVE",
"667 865 CURVE SMOOTH",
"667 832 OFFCURVE",
"652 814 OFFCURVE",
"626 814 CURVE SMOOTH",
"594 814 OFFCURVE",
"581 834 OFFCURVE",
"574 862 CURVE",
"556 815 LINE",
"569 784 OFFCURVE",
"603 769 OFFCURVE",
"631 769 CURVE SMOOTH",
"691 769 OFFCURVE",
"719 810 OFFCURVE",
"719 866 CURVE SMOOTH",
"719 922 OFFCURVE",
"688 963 OFFCURVE",
"632 963 CURVE SMOOTH"
);
}
);
width = 796;
}
);
rightKerningGroup = thasinh;
unicode = 0D92;
},
{
glyphname = osinh;
lastChange = "2016-08-23 12:52:39 +0000";
layers = (
{
layerId = "AF791F9F-5317-4D76-BDD4-1652E63983EA";
paths = (
{
closed = 1;
nodes = (
"709 -10 OFFCURVE",
"774 97 OFFCURVE",
"774 346 CURVE SMOOTH",
"774 610 OFFCURVE",
"665 804 OFFCURVE",
"376 804 CURVE SMOOTH",
"231 804 OFFCURVE",
"155 768 OFFCURVE",
"57 708 CURVE",
"73 685 LINE",
"162 748 OFFCURVE",
"251 779 OFFCURVE",
"376 779 CURVE SMOOTH",
"646 779 OFFCURVE",
"747 595 OFFCURVE",
"747 348 CURVE SMOOTH",
"747 122 OFFCURVE",
"696 17 OFFCURVE",
"567 17 CURVE SMOOTH",
"460 17 OFFCURVE",
"417 89 OFFCURVE",
"405 169 CURVE",
"381 169 LINE",
"361 99 OFFCURVE",
"331 17 OFFCURVE",
"220 17 CURVE SMOOTH",
"122 17 OFFCURVE",
"75 108 OFFCURVE",
"75 263 CURVE SMOOTH",
"75 411 OFFCURVE",
"139 532 OFFCURVE",
"201 532 CURVE SMOOTH",
"227 532 OFFCURVE",
"236 516 OFFCURVE",
"236 487 CURVE SMOOTH",
"236 453 OFFCURVE",
"227 426 OFFCURVE",
"227 394 CURVE SMOOTH",
"227 297 OFFCURVE",
"299 245 OFFCURVE",
"409 245 CURVE SMOOTH",
"517 245 OFFCURVE",
"596 301 OFFCURVE",
"596 411 CURVE SMOOTH",
"596 506 OFFCURVE",
"539 571 OFFCURVE",
"437 571 CURVE SMOOTH",
"366 571 OFFCURVE",
"322 532 OFFCURVE",
"322 468 CURVE SMOOTH",
"322 423 OFFCURVE",
"348 372 OFFCURVE",
"422 372 CURVE SMOOTH",
"490 372 OFFCURVE",
"522 414 OFFCURVE",
"522 469 CURVE SMOOTH",
"522 500 OFFCURVE",
"507 539 OFFCURVE",
"465 552 CURVE",
"468 549 LINE",
"524 538 OFFCURVE",
"570 497 OFFCURVE",
"570 413 CURVE SMOOTH",
"570 320 OFFCURVE",
"511 271 OFFCURVE",
"408 271 CURVE SMOOTH",
"322 271 OFFCURVE",
"253 304 OFFCURVE",
"253 394 CURVE SMOOTH",
"253 430 OFFCURVE",
"262 457 OFFCURVE",
"262 488 CURVE SMOOTH",
"262 521 OFFCURVE",
"249 557 OFFCURVE",
"201 557 CURVE SMOOTH",
"128 557 OFFCURVE",
"48 436 OFFCURVE",
"48 263 CURVE SMOOTH",
"48 79 OFFCURVE",
"115 -10 OFFCURVE",
"218 -10 CURVE SMOOTH",
"320 -10 OFFCURVE",
"366 52 OFFCURVE",
"391 126 CURVE",
"416 44 OFFCURVE",
"468 -10 OFFCURVE",
"569 -10 CURVE SMOOTH"
);
},
{
closed = 1;
nodes = (
"496 429 OFFCURVE",
"473 397 OFFCURVE",
"422 397 CURVE SMOOTH",
"372 397 OFFCURVE",
"348 428 OFFCURVE",
"348 468 CURVE SMOOTH",
"348 511 OFFCURVE",
"375 545 OFFCURVE",
"424 545 CURVE SMOOTH",
"470 545 OFFCURVE",
"496 517 OFFCURVE",
"496 471 CURVE SMOOTH"
);
}
);
width = 822;
},
{
layerId = "32AB916E-052E-46AB-9DD5-C403DD480EC5";
paths = (
{
closed = 1;
nodes = (
"733 -10 OFFCURVE",
"854 76 OFFCURVE",
"854 345 CURVE SMOOTH",
"854 653 OFFCURVE",
"680 804 OFFCURVE",
"408 804 CURVE SMOOTH",
"250 804 OFFCURVE",
"143 753 OFFCURVE",
"43 694 CURVE",
"85 625 LINE",
"170 685 OFFCURVE",
"275 731 OFFCURVE",
"411 731 CURVE SMOOTH",
"634 731 OFFCURVE",
"750 607 OFFCURVE",
"750 381 CURVE SMOOTH",
"750 222 OFFCURVE",
"684 177 OFFCURVE",
"595 177 CURVE SMOOTH",
"521 177 OFFCURVE",
"485 211 OFFCURVE",
"467 235 CURVE",
"378 235 LINE",
"350 202 OFFCURVE",
"320 177 OFFCURVE",
"261 177 CURVE SMOOTH",
"185 177 OFFCURVE",
"137 206 OFFCURVE",
"137 322 CURVE SMOOTH",
"137 419 OFFCURVE",
"178 495 OFFCURVE",
"217 495 CURVE SMOOTH",
"236 495 OFFCURVE",
"238 483 OFFCURVE",
"238 468 CURVE SMOOTH",
"238 435 OFFCURVE",
"230 426 OFFCURVE",
"230 387 CURVE SMOOTH",
"230 290 OFFCURVE",
"294 227 OFFCURVE",
"440 227 CURVE SMOOTH",
"562 227 OFFCURVE",
"651 286 OFFCURVE",
"651 412 CURVE SMOOTH",
"651 506 OFFCURVE",
"584 581 OFFCURVE",
"470 581 CURVE SMOOTH",
"368 581 OFFCURVE",
"327 520 OFFCURVE",
"327 461 CURVE SMOOTH",
"327 392 OFFCURVE",
"369 346 OFFCURVE",
"454 346 CURVE SMOOTH",
"526 346 OFFCURVE",
"563 390 OFFCURVE",
"563 452 CURVE SMOOTH",
"563 477 OFFCURVE",
"549 502 OFFCURVE",
"525 519 CURVE",
"532 502 LINE",
"556 484 OFFCURVE",
"573 454 OFFCURVE",
"573 413 CURVE SMOOTH",
"573 346 OFFCURVE",
"527 303 OFFCURVE",
"437 303 CURVE SMOOTH",
"354 303 OFFCURVE",
"310 337 OFFCURVE",
"310 401 CURVE SMOOTH",
"310 435 OFFCURVE",
"319 457 OFFCURVE",
"319 484 CURVE SMOOTH",
"319 533 OFFCURVE",
"296 567 OFFCURVE",
"229 567 CURVE SMOOTH",
"122 567 OFFCURVE",
"36 457 OFFCURVE",
"36 275 CURVE SMOOTH",
"36 80 OFFCURVE",
"112 -10 OFFCURVE",
"232 -10 CURVE SMOOTH",
"338 -10 OFFCURVE",
"399 65 OFFCURVE",
"422 135 CURVE",
"450 49 OFFCURVE",
"502 -10 OFFCURVE",
"618 -10 CURVE SMOOTH"
);
},
{
closed = 1;
nodes = (
"503 436 OFFCURVE",
"492 414 OFFCURVE",
"456 414 CURVE SMOOTH",
"420 414 OFFCURVE",
"407 437 OFFCURVE",
"407 464 CURVE SMOOTH",
"407 489 OFFCURVE",
"423 511 OFFCURVE",
"456 511 CURVE SMOOTH",
"488 511 OFFCURVE",
"503 490 OFFCURVE",
"503 463 CURVE SMOOTH"
);
}
);
width = 890;
},
{
layerId = UUID0;
paths = (
{
closed = 1;
nodes = (
"720 -10 OFFCURVE",
"817 78 OFFCURVE",
"817 345 CURVE SMOOTH",
"817 656 OFFCURVE",
"659 804 OFFCURVE",
"397 804 CURVE SMOOTH",
"238 804 OFFCURVE",
"140 760 OFFCURVE",
"50 699 CURVE",
"84 653 LINE",
"177 722 OFFCURVE",
"276 752 OFFCURVE",
"397 752 CURVE SMOOTH",
"640 752 OFFCURVE",
"754 607 OFFCURVE",
"754 361 CURVE SMOOTH",
"754 150 OFFCURVE",
"674 95 OFFCURVE",
"583 95 CURVE SMOOTH",
"504 95 OFFCURVE",
"444 131 OFFCURVE",
"437 204 CURVE",
"384 204 LINE",
"369 146 OFFCURVE",
"336 95 OFFCURVE",
"245 95 CURVE SMOOTH",
"140 95 OFFCURVE",
"105 188 OFFCURVE",
"105 278 CURVE SMOOTH",
"105 438 OFFCURVE",
"174 501 OFFCURVE",
"209 501 CURVE SMOOTH",
"233 501 OFFCURVE",
"237 488 OFFCURVE",
"237 473 CURVE SMOOTH",
"237 442 OFFCURVE",
"228 423 OFFCURVE",
"228 386 CURVE SMOOTH",
"228 295 OFFCURVE",
"294 228 OFFCURVE",
"430 228 CURVE SMOOTH",
"540 228 OFFCURVE",
"628 287 OFFCURVE",
"628 409 CURVE SMOOTH",
"628 504 OFFCURVE",
"557 571 OFFCURVE",
"454 571 CURVE SMOOTH",
"364 571 OFFCURVE",
"324 521 OFFCURVE",
"324 460 CURVE SMOOTH",
"324 395 OFFCURVE",
"363 352 OFFCURVE",
"440 352 CURVE SMOOTH",
"505 352 OFFCURVE",
"548 387 OFFCURVE",
"548 449 CURVE SMOOTH",
"548 476 OFFCURVE",
"539 504 OFFCURVE",
"513 524 CURVE",
"512 521 LINE",
"544 502 OFFCURVE",
"572 466 OFFCURVE",
"572 412 CURVE SMOOTH",
"572 334 OFFCURVE",
"521 289 OFFCURVE",
"427 289 CURVE SMOOTH",
"343 289 OFFCURVE",
"284 321 OFFCURVE",
"284 392 CURVE SMOOTH",
"284 435 OFFCURVE",
"294 457 OFFCURVE",
"294 487 CURVE SMOOTH",
"294 517 OFFCURVE",
"282 557 OFFCURVE",
"214 557 CURVE SMOOTH",
"138 557 OFFCURVE",
"45 461 OFFCURVE",
"45 264 CURVE SMOOTH",
"45 69 OFFCURVE",
"123 -10 OFFCURVE",
"239 -10 CURVE SMOOTH",
"335 -10 OFFCURVE",
"387 59 OFFCURVE",
"410 129 CURVE",
"439 44 OFFCURVE",
"491 -10 OFFCURVE",
"597 -10 CURVE SMOOTH"
);
},
{
closed = 1;
nodes = (
"500 430 OFFCURVE",
"484 403 OFFCURVE",
"440 403 CURVE SMOOTH",
"399 403 OFFCURVE",
"381 425 OFFCURVE",
"381 462 CURVE SMOOTH",
"381 494 OFFCURVE",
"404 518 OFFCURVE",
"440 518 CURVE SMOOTH",
"482 518 OFFCURVE",
"500 492 OFFCURVE",
"500 461 CURVE SMOOTH"
);
}
);
width = 862;
}
);
unicode = 0D94;
},
{
glyphname = oosinh;
lastChange = "2016-08-23 12:52:39 +0000";
layers = (
{
layerId = "AF791F9F-5317-4D76-BDD4-1652E63983EA";
paths = (
{
closed = 1;
nodes = (
"709 -10 OFFCURVE",
"774 84 OFFCURVE",
"774 309 CURVE SMOOTH",
"774 550 OFFCURVE",
"661 723 OFFCURVE",
"364 723 CURVE SMOOTH",
"248 723 OFFCURVE",
"159 710 OFFCURVE",
"63 680 CURVE",
"72 655 LINE",
"163 685 OFFCURVE",
"257 698 OFFCURVE",
"364 698 CURVE SMOOTH",
"647 698 OFFCURVE",
"747 535 OFFCURVE",
"747 308 CURVE SMOOTH",
"747 108 OFFCURVE",
"696 17 OFFCURVE",
"567 17 CURVE SMOOTH",
"460 17 OFFCURVE",
"417 89 OFFCURVE",
"405 169 CURVE",
"381 169 LINE",
"361 99 OFFCURVE",
"331 17 OFFCURVE",
"220 17 CURVE SMOOTH",
"122 17 OFFCURVE",
"75 108 OFFCURVE",
"75 263 CURVE SMOOTH",
"75 411 OFFCURVE",
"139 532 OFFCURVE",
"201 532 CURVE SMOOTH",
"227 532 OFFCURVE",
"236 516 OFFCURVE",
"236 487 CURVE SMOOTH",
"236 453 OFFCURVE",
"227 426 OFFCURVE",
"227 394 CURVE SMOOTH",
"227 297 OFFCURVE",
"299 245 OFFCURVE",
"409 245 CURVE SMOOTH",
"517 245 OFFCURVE",
"596 301 OFFCURVE",
"596 411 CURVE SMOOTH",
"596 506 OFFCURVE",
"539 571 OFFCURVE",
"437 571 CURVE SMOOTH",
"366 571 OFFCURVE",
"322 532 OFFCURVE",
"322 468 CURVE SMOOTH",
"322 423 OFFCURVE",
"348 372 OFFCURVE",
"422 372 CURVE SMOOTH",
"490 372 OFFCURVE",
"522 414 OFFCURVE",
"522 469 CURVE SMOOTH",
"522 500 OFFCURVE",
"507 539 OFFCURVE",
"465 552 CURVE",
"468 549 LINE",
"524 538 OFFCURVE",
"570 497 OFFCURVE",
"570 413 CURVE SMOOTH",
"570 320 OFFCURVE",
"511 271 OFFCURVE",
"408 271 CURVE SMOOTH",
"322 271 OFFCURVE",
"253 304 OFFCURVE",
"253 394 CURVE SMOOTH",
"253 430 OFFCURVE",
"262 457 OFFCURVE",
"262 488 CURVE SMOOTH",
"262 521 OFFCURVE",
"249 557 OFFCURVE",
"201 557 CURVE SMOOTH",
"128 557 OFFCURVE",
"48 436 OFFCURVE",
"48 263 CURVE SMOOTH",
"48 79 OFFCURVE",
"115 -10 OFFCURVE",
"218 -10 CURVE SMOOTH",
"320 -10 OFFCURVE",
"366 52 OFFCURVE",
"391 126 CURVE",
"416 44 OFFCURVE",
"468 -10 OFFCURVE",
"569 -10 CURVE SMOOTH"
);
},
{
closed = 1;
nodes = (
"496 429 OFFCURVE",
"473 397 OFFCURVE",
"422 397 CURVE SMOOTH",
"372 397 OFFCURVE",
"348 428 OFFCURVE",
"348 468 CURVE SMOOTH",
"348 511 OFFCURVE",
"375 545 OFFCURVE",
"424 545 CURVE SMOOTH",
"470 545 OFFCURVE",
"496 517 OFFCURVE",
"496 471 CURVE SMOOTH"
);
},
{
closed = 1;
nodes = (
"190 939 OFFCURVE",
"132 864 OFFCURVE",
"132 796 CURVE SMOOTH",
"132 754 OFFCURVE",
"157 717 OFFCURVE",
"186 689 CURVE",
"213 698 LINE",
"182 724 OFFCURVE",
"159 751 OFFCURVE",
"159 796 CURVE SMOOTH",
"159 859 OFFCURVE",
"216 913 OFFCURVE",
"386 913 CURVE SMOOTH",
"637 913 OFFCURVE",
"689 831 OFFCURVE",
"689 769 CURVE SMOOTH",
"689 717 OFFCURVE",
"657 680 OFFCURVE",
"602 658 CURVE",
"622 639 LINE",
"671 662 OFFCURVE",
"716 696 OFFCURVE",
"716 771 CURVE SMOOTH",
"716 841 OFFCURVE",
"657 939 OFFCURVE",
"386 939 CURVE SMOOTH"
);
}
);
width = 822;
},
{
layerId = "32AB916E-052E-46AB-9DD5-C403DD480EC5";
paths = (
{
closed = 1;
nodes = (
"733 -10 OFFCURVE",
"854 75 OFFCURVE",
"854 315 CURVE SMOOTH",
"854 579 OFFCURVE",
"686 717 OFFCURVE",
"392 717 CURVE SMOOTH",
"270 717 OFFCURVE",
"147 697 OFFCURVE",
"53 667 CURVE",
"82 592 LINE",
"170 626 OFFCURVE",
"286 644 OFFCURVE",
"389 644 CURVE SMOOTH",
"635 644 OFFCURVE",
"750 539 OFFCURVE",
"750 349 CURVE SMOOTH",
"750 220 OFFCURVE",
"684 177 OFFCURVE",
"595 177 CURVE SMOOTH",
"521 177 OFFCURVE",
"485 211 OFFCURVE",
"467 235 CURVE",
"378 235 LINE",
"350 202 OFFCURVE",
"320 177 OFFCURVE",
"261 177 CURVE SMOOTH",
"185 177 OFFCURVE",
"137 206 OFFCURVE",
"137 322 CURVE SMOOTH",
"137 419 OFFCURVE",
"178 495 OFFCURVE",
"217 495 CURVE SMOOTH",
"236 495 OFFCURVE",
"238 483 OFFCURVE",
"238 468 CURVE SMOOTH",
"238 435 OFFCURVE",
"230 426 OFFCURVE",
"230 387 CURVE SMOOTH",
"230 290 OFFCURVE",
"294 227 OFFCURVE",
"440 227 CURVE SMOOTH",
"562 227 OFFCURVE",
"651 286 OFFCURVE",
"651 412 CURVE SMOOTH",
"651 506 OFFCURVE",
"584 581 OFFCURVE",
"470 581 CURVE SMOOTH",
"368 581 OFFCURVE",
"327 520 OFFCURVE",
"327 461 CURVE SMOOTH",
"327 392 OFFCURVE",
"369 346 OFFCURVE",
"454 346 CURVE SMOOTH",
"526 346 OFFCURVE",
"563 390 OFFCURVE",
"563 452 CURVE SMOOTH",
"563 477 OFFCURVE",
"549 502 OFFCURVE",
"525 519 CURVE",
"532 502 LINE",
"556 484 OFFCURVE",
"573 454 OFFCURVE",
"573 413 CURVE SMOOTH",
"573 346 OFFCURVE",
"527 303 OFFCURVE",
"437 303 CURVE SMOOTH",
"354 303 OFFCURVE",
"310 337 OFFCURVE",
"310 401 CURVE SMOOTH",
"310 435 OFFCURVE",
"319 457 OFFCURVE",
"319 484 CURVE SMOOTH",
"319 533 OFFCURVE",
"296 567 OFFCURVE",
"229 567 CURVE SMOOTH",
"122 567 OFFCURVE",
"36 457 OFFCURVE",
"36 275 CURVE SMOOTH",
"36 80 OFFCURVE",
"112 -10 OFFCURVE",
"232 -10 CURVE SMOOTH",
"338 -10 OFFCURVE",
"399 65 OFFCURVE",
"422 135 CURVE",
"450 49 OFFCURVE",
"502 -10 OFFCURVE",
"618 -10 CURVE SMOOTH"
);
},
{
closed = 1;
nodes = (
"503 436 OFFCURVE",
"492 414 OFFCURVE",
"456 414 CURVE SMOOTH",
"420 414 OFFCURVE",
"407 437 OFFCURVE",
"407 464 CURVE SMOOTH",
"407 489 OFFCURVE",
"423 511 OFFCURVE",
"456 511 CURVE SMOOTH",
"488 511 OFFCURVE",
"503 490 OFFCURVE",
"503 463 CURVE SMOOTH"
);
},
{
closed = 1;
nodes = (
"202 962 OFFCURVE",
"132 871 OFFCURVE",
"132 790 CURVE SMOOTH",
"132 724 OFFCURVE",
"168 677 OFFCURVE",
"216 644 CURVE",
"293 677 LINE",
"255 696 OFFCURVE",
"220 719 OFFCURVE",
"220 758 CURVE SMOOTH",
"220 798 OFFCURVE",
"244 823 OFFCURVE",
"411 823 CURVE SMOOTH",
"624 823 OFFCURVE",
"687 785 OFFCURVE",
"687 730 CURVE SMOOTH",
"687 699 OFFCURVE",
"669 678 OFFCURVE",
"641 664 CURVE",
"714 612 LINE",
"742 635 OFFCURVE",
"767 682 OFFCURVE",
"767 746 CURVE SMOOTH",
"767 839 OFFCURVE",
"720 962 OFFCURVE",
"408 962 CURVE SMOOTH"
);
}
);
width = 890;
},
{
layerId = UUID0;
paths = (
{
closed = 1;
nodes = (
"720 -10 OFFCURVE",
"817 75 OFFCURVE",
"817 310 CURVE SMOOTH",
"817 591 OFFCURVE",
"665 723 OFFCURVE",
"382 723 CURVE SMOOTH",
"259 723 OFFCURVE",
"170 708 OFFCURVE",
"66 678 CURVE",
"82 626 LINE",
"183 657 OFFCURVE",
"260 671 OFFCURVE",
"378 671 CURVE SMOOTH",
"651 671 OFFCURVE",
"754 544 OFFCURVE",
"754 328 CURVE SMOOTH",
"754 151 OFFCURVE",
"674 95 OFFCURVE",
"583 95 CURVE SMOOTH",
"504 95 OFFCURVE",
"444 131 OFFCURVE",
"437 204 CURVE",
"384 204 LINE",
"369 146 OFFCURVE",
"336 95 OFFCURVE",
"245 95 CURVE SMOOTH",
"140 95 OFFCURVE",
"105 188 OFFCURVE",
"105 278 CURVE SMOOTH",
"105 438 OFFCURVE",
"174 501 OFFCURVE",
"209 501 CURVE SMOOTH",
"233 501 OFFCURVE",
"237 488 OFFCURVE",
"237 473 CURVE SMOOTH",
"237 442 OFFCURVE",
"228 423 OFFCURVE",
"228 386 CURVE SMOOTH",
"228 295 OFFCURVE",
"294 228 OFFCURVE",
"430 228 CURVE SMOOTH",
"540 228 OFFCURVE",
"628 287 OFFCURVE",
"628 409 CURVE SMOOTH",
"628 504 OFFCURVE",
"557 571 OFFCURVE",
"454 571 CURVE SMOOTH",
"364 571 OFFCURVE",
"324 521 OFFCURVE",
"324 460 CURVE SMOOTH",
"324 395 OFFCURVE",
"363 352 OFFCURVE",
"440 352 CURVE SMOOTH",
"505 352 OFFCURVE",
"548 387 OFFCURVE",
"548 449 CURVE SMOOTH",
"548 476 OFFCURVE",
"539 504 OFFCURVE",
"513 524 CURVE",
"512 521 LINE",
"544 502 OFFCURVE",
"572 466 OFFCURVE",
"572 412 CURVE SMOOTH",
"572 334 OFFCURVE",
"521 289 OFFCURVE",
"427 289 CURVE SMOOTH",
"343 289 OFFCURVE",
"284 321 OFFCURVE",
"284 392 CURVE SMOOTH",
"284 435 OFFCURVE",
"294 457 OFFCURVE",
"294 487 CURVE SMOOTH",
"294 517 OFFCURVE",
"282 557 OFFCURVE",
"214 557 CURVE SMOOTH",
"138 557 OFFCURVE",
"45 461 OFFCURVE",
"45 264 CURVE SMOOTH",
"45 69 OFFCURVE",
"123 -10 OFFCURVE",
"239 -10 CURVE SMOOTH",
"335 -10 OFFCURVE",
"387 59 OFFCURVE",
"410 129 CURVE",
"439 44 OFFCURVE",
"491 -10 OFFCURVE",
"597 -10 CURVE SMOOTH"
);
},
{
closed = 1;
nodes = (
"500 430 OFFCURVE",
"484 403 OFFCURVE",
"440 403 CURVE SMOOTH",
"399 403 OFFCURVE",
"381 425 OFFCURVE",
"381 462 CURVE SMOOTH",
"381 494 OFFCURVE",
"404 518 OFFCURVE",
"440 518 CURVE SMOOTH",
"482 518 OFFCURVE",
"500 492 OFFCURVE",
"500 461 CURVE SMOOTH"
);
},
{
closed = 1;
nodes = (
"212 945 OFFCURVE",
"131 875 OFFCURVE",
"131 788 CURVE SMOOTH",
"131 737 OFFCURVE",
"155 698 OFFCURVE",
"195 664 CURVE",
"244 687 LINE",
"204 710 OFFCURVE",
"189 740 OFFCURVE",
"189 776 CURVE SMOOTH",
"189 828 OFFCURVE",
"235 868 OFFCURVE",
"398 868 CURVE SMOOTH",
"633 868 OFFCURVE",
"693 804 OFFCURVE",
"693 741 CURVE SMOOTH",
"693 695 OFFCURVE",
"664 663 OFFCURVE",
"609 650 CURVE",
"669 608 LINE",
"716 640 OFFCURVE",
"747 682 OFFCURVE",
"747 752 CURVE SMOOTH",
"747 834 OFFCURVE",
"693 945 OFFCURVE",
"400 945 CURVE SMOOTH"
);
}
);
width = 862;
}
);
unicode = 0D95;
},
{
glyphname = kasinh;
lastChange = "2016-08-23 15:05:55 +0000";
layers = (
{
layerId = "AF791F9F-5317-4D76-BDD4-1652E63983EA";
paths = (
{
closed = 1;
nodes = (
"618 -10 OFFCURVE",
"659 72 OFFCURVE",
"659 196 CURVE SMOOTH",
"659 347 OFFCURVE",
"566 442 OFFCURVE",
"392 442 CURVE SMOOTH",
"340 442 OFFCURVE",
"298 433 OFFCURVE",
"274 427 CURVE",
"245 400 LINE",
"282 409 OFFCURVE",
"326 417 OFFCURVE",
"382 417 CURVE SMOOTH",
"563 417 OFFCURVE",
"632 323 OFFCURVE",
"632 194 CURVE SMOOTH",
"632 61 OFFCURVE",
"583 17 OFFCURVE",
"510 17 CURVE SMOOTH",
"455 17 OFFCURVE",
"386 48 OFFCURVE",
"381 159 CURVE",
"357 159 LINE",
"352 61 OFFCURVE",
"298 17 OFFCURVE",
"231 17 CURVE SMOOTH",
"166 17 OFFCURVE",
"122 51 OFFCURVE",
"122 151 CURVE SMOOTH",
"122 164 OFFCURVE",
"123 176 OFFCURVE",
"126 188 CURVE",
"54 196 LINE",
"43 194 LINE",
"40 173 LINE",
"112 165 LINE",
"102 190 LINE",
"99 180 OFFCURVE",
"96 164 OFFCURVE",
"96 153 CURVE SMOOTH",
"96 66 OFFCURVE",
"132 -10 OFFCURVE",
"228 -10 CURVE SMOOTH",
"306 -10 OFFCURVE",
"351 35 OFFCURVE",
"369 105 CURVE",
"381 32 OFFCURVE",
"436 -10 OFFCURVE",
"511 -10 CURVE SMOOTH"
);
},
{
closed = 1;
nodes = (
"881 -8 OFFCURVE",
"939 91 OFFCURVE",
"939 268 CURVE SMOOTH",
"939 431 OFFCURVE",
"844 589 OFFCURVE",
"625 589 CURVE SMOOTH",
"454 589 OFFCURVE",
"304 492 OFFCURVE",
"19 191 CURVE",
"40 173 LINE",
"133 281 OFFCURVE",
"220 364 OFFCURVE",
"293 417 CURVE",
"305 431 LINE",
"395 498 OFFCURVE",
"492 563 OFFCURVE",
"625 563 CURVE SMOOTH",
"819 563 OFFCURVE",
"912 423 OFFCURVE",
"912 267 CURVE SMOOTH",
"912 92 OFFCURVE",
"853 17 OFFCURVE",
"717 17 CURVE SMOOTH",
"691 17 OFFCURVE",
"664 23 OFFCURVE",
"641 31 CURVE",
"634 6 LINE",
"669 -6 OFFCURVE",
"698 -8 OFFCURVE",
"719 -8 CURVE SMOOTH"
);
},
{
closed = 1;
nodes = (
"92 571 OFFCURVE",
"45 530 OFFCURVE",
"45 462 CURVE SMOOTH",
"45 424 OFFCURVE",
"54 397 OFFCURVE",
"67 369 CURVE",
"92 377 LINE",
"81 402 OFFCURVE",
"73 422 OFFCURVE",
"73 464 CURVE SMOOTH",
"73 505 OFFCURVE",
"100 546 OFFCURVE",
"154 546 CURVE SMOOTH",
"210 546 OFFCURVE",
"249 502 OFFCURVE",
"277 421 CURVE",
"299 435 LINE",
"270 503 OFFCURVE",
"234 571 OFFCURVE",
"156 571 CURVE SMOOTH"
);
}
);
width = 983;
},
{
layerId = "32AB916E-052E-46AB-9DD5-C403DD480EC5";
paths = (
{
closed = 1;
nodes = (
"655 -10 OFFCURVE",
"718 75 OFFCURVE",
"718 211 CURVE SMOOTH",
"718 377 OFFCURVE",
"616 442 OFFCURVE",
"449 442 CURVE SMOOTH",
"385 442 OFFCURVE",
"316 431 OFFCURVE",
"278 419 CURVE",
"264 369 LINE",
"300 372 OFFCURVE",
"346 374 OFFCURVE",
"424 374 CURVE SMOOTH",
"586 374 OFFCURVE",
"618 320 OFFCURVE",
"618 261 CURVE SMOOTH",
"618 204 OFFCURVE",
"585 180 OFFCURVE",
"533 180 CURVE SMOOTH",
"481 180 OFFCURVE",
"451 200 OFFCURVE",
"440 253 CURVE",
"367 253 LINE",
"353 213 OFFCURVE",
"335 180 OFFCURVE",
"274 180 CURVE SMOOTH",
"229 180 OFFCURVE",
"199 195 OFFCURVE",
"199 242 CURVE SMOOTH",
"199 248 OFFCURVE",
"199 251 OFFCURVE",
"200 257 CURVE",
"140 260 LINE",
"89 216 LINE",
"72 162 LINE",
"157 157 LINE",
"122 207 LINE",
"117 189 OFFCURVE",
"119 178 OFFCURVE",
"119 161 CURVE SMOOTH",
"119 68 OFFCURVE",
"166 -10 OFFCURVE",
"259 -10 CURVE SMOOTH",
"351 -10 OFFCURVE",
"387 50 OFFCURVE",
"409 117 CURVE",
"429 41 OFFCURVE",
"472 -10 OFFCURVE",
"556 -10 CURVE SMOOTH"
);
},
{
closed = 1;
nodes = (
"926 -8 OFFCURVE",
"1007 109 OFFCURVE",
"1007 274 CURVE SMOOTH",
"1007 462 OFFCURVE",
"880 598 OFFCURVE",
"642 598 CURVE SMOOTH",
"466 598 OFFCURVE",
"317 516 OFFCURVE",
"12 213 CURVE",
"72 162 LINE",
"175 275 OFFCURVE",
"261 348 OFFCURVE",
"329 396 CURVE",
"366 424 LINE",
"432 455 OFFCURVE",
"500 471 OFFCURVE",
"610 471 CURVE SMOOTH",
"794 471 OFFCURVE",
"884 369 OFFCURVE",
"884 235 CURVE SMOOTH",
"884 143 OFFCURVE",
"851 65 OFFCURVE",
"756 65 CURVE SMOOTH",
"731 65 OFFCURVE",
"707 67 OFFCURVE",
"693 71 CURVE",
"678 0 LINE",
"700 -6 OFFCURVE",
"727 -8 OFFCURVE",
"756 -8 CURVE SMOOTH"
);
},
{
closed = 1;
nodes = (
"92 578 OFFCURVE",
"28 542 OFFCURVE",
"28 458 CURVE SMOOTH",
"28 423 OFFCURVE",
"41 393 OFFCURVE",
"55 369 CURVE",
"181 402 LINE",
"175 418 OFFCURVE",
"170 433 OFFCURVE",
"170 457 CURVE SMOOTH",
"170 480 OFFCURVE",
"182 495 OFFCURVE",
"206 495 CURVE SMOOTH",
"238 495 OFFCURVE",
"255 459 OFFCURVE",
"266 419 CURVE",
"344 438 LINE",
"327 504 OFFCURVE",
"287 578 OFFCURVE",
"172 578 CURVE SMOOTH"
);
}
);
width = 1039;
},
{
layerId = UUID0;
paths = (
{
closed = 1;
nodes = (
"628 -10 OFFCURVE",
"685 71 OFFCURVE",
"685 199 CURVE SMOOTH",
"685 349 OFFCURVE",
"589 442 OFFCURVE",
"404 442 CURVE SMOOTH",
"354 442 OFFCURVE",
"294 431 OFFCURVE",
"264 424 CURVE",
"253 384 LINE",
"281 388 OFFCURVE",
"321 391 OFFCURVE",
"394 391 CURVE SMOOTH",
"572 391 OFFCURVE",
"629 295 OFFCURVE",
"629 207 CURVE SMOOTH",
"629 130 OFFCURVE",
"595 95 OFFCURVE",
"523 95 CURVE SMOOTH",
"458 95 OFFCURVE",
"410 120 OFFCURVE",
"406 200 CURVE",
"355 200 LINE",
"355 134 OFFCURVE",
"320 95 OFFCURVE",
"247 95 CURVE SMOOTH",
"191 95 OFFCURVE",
"156 118 OFFCURVE",
"156 187 CURVE SMOOTH",
"156 197 OFFCURVE",
"157 206 OFFCURVE",
"160 214 CURVE",
"90 220 LINE",
"72 211 LINE",
"60 167 LINE",
"135 157 LINE",
"110 207 LINE",
"105 189 OFFCURVE",
"103 176 OFFCURVE",
"103 153 CURVE SMOOTH",
"103 66 OFFCURVE",
"149 -10 OFFCURVE",
"238 -10 CURVE SMOOTH",
"321 -10 OFFCURVE",
"360 42 OFFCURVE",
"382 109 CURVE",
"399 31 OFFCURVE",
"455 -10 OFFCURVE",
"523 -10 CURVE SMOOTH"
);
},
{
closed = 1;
nodes = (
"891 -8 OFFCURVE",
"966 99 OFFCURVE",
"966 264 CURVE SMOOTH",
"966 445 OFFCURVE",
"858 589 OFFCURVE",
"633 589 CURVE SMOOTH",
"444 589 OFFCURVE",
"310 502 OFFCURVE",
"17 201 CURVE",
"60 167 LINE",
"161 277 OFFCURVE",
"242 355 OFFCURVE",
"315 408 CURVE",
"342 429 LINE",
"436 491 OFFCURVE",
"508 504 OFFCURVE",
"611 504 CURVE SMOOTH",
"782 504 OFFCURVE",
"902 416 OFFCURVE",
"902 238 CURVE SMOOTH",
"902 128 OFFCURVE",
"858 44 OFFCURVE",
"739 44 CURVE SMOOTH",
"708 44 OFFCURVE",
"684 50 OFFCURVE",
"670 57 CURVE",
"657 7 LINE",
"681 -4 OFFCURVE",
"715 -8 OFFCURVE",
"748 -8 CURVE SMOOTH"
);
},
{
closed = 1;
nodes = (
"90 571 OFFCURVE",
"34 530 OFFCURVE",
"34 448 CURVE SMOOTH",
"34 420 OFFCURVE",
"44 387 OFFCURVE",
"57 367 CURVE",
"133 386 LINE",
"126 401 OFFCURVE",
"119 422 OFFCURVE",
"119 450 CURVE SMOOTH",
"119 478 OFFCURVE",
"131 514 OFFCURVE",
"173 514 CURVE SMOOTH",
"217 514 OFFCURVE",
"244 480 OFFCURVE",
"267 419 CURVE",
"316 439 LINE",
"291 507 OFFCURVE",
"244 571 OFFCURVE",
"163 571 CURVE SMOOTH"
);
}
);
width = 1007;
}
);
rightKerningGroup = kasinh;
unicode = 0D9A;
},
{
glyphname = khasinh;
lastChange = "2016-08-23 15:05:55 +0000";
layers = (
{
layerId = "AF791F9F-5317-4D76-BDD4-1652E63983EA";
paths = (
{
closed = 1;
nodes = (
"324 -10 OFFCURVE",
"366 36 OFFCURVE",
"366 100 CURVE SMOOTH",
"366 168 OFFCURVE",
"320 206 OFFCURVE",
"257 206 CURVE SMOOTH",
"186 206 OFFCURVE",
"148 160 OFFCURVE",
"148 101 CURVE SMOOTH",
"148 48 OFFCURVE",
"182 21 OFFCURVE",
"207 10 CURVE",
"232 4 LINE",
"151 30 OFFCURVE",
"70 84 OFFCURVE",
"70 254 CURVE SMOOTH",
"70 409 OFFCURVE",
"168 512 OFFCURVE",
"310 512 CURVE SMOOTH",
"436 512 OFFCURVE",
"503 436 OFFCURVE",
"503 318 CURVE SMOOTH",
"503 240 OFFCURVE",
"475 186 OFFCURVE",
"447 135 CURVE SMOOTH",
"427 97 OFFCURVE",
"404 53 OFFCURVE",
"382 3 CURVE",
"405 -9 LINE",
"424 36 OFFCURVE",
"449 89 OFFCURVE",
"470 130 CURVE",
"479 147 LINE",
"509 197 OFFCURVE",
"530 261 OFFCURVE",
"530 319 CURVE SMOOTH",
"530 443 OFFCURVE",
"458 538 OFFCURVE",
"310 538 CURVE SMOOTH",
"157 538 OFFCURVE",
"43 429 OFFCURVE",
"43 254 CURVE SMOOTH",
"43 95 OFFCURVE",
"124 -10 OFFCURVE",
"256 -10 CURVE SMOOTH"
);
},
{
closed = 1;
nodes = (
"708 -10 OFFCURVE",
"779 68 OFFCURVE",
"779 330 CURVE SMOOTH",
"779 634 OFFCURVE",
"648 804 OFFCURVE",
"369 804 CURVE SMOOTH",
"230 804 OFFCURVE",
"136 764 OFFCURVE",
"43 705 CURVE",
"59 682 LINE",
"156 750 OFFCURVE",
"254 779 OFFCURVE",
"369 779 CURVE SMOOTH",
"640 779 OFFCURVE",
"752 607 OFFCURVE",
"752 330 CURVE SMOOTH",
"752 74 OFFCURVE",
"686 17 OFFCURVE",
"618 17 CURVE SMOOTH",
"564 17 OFFCURVE",
"521 48 OFFCURVE",
"521 152 CURVE",
"466 152 LINE",
"450 128 LINE",
"515 128 LINE",
"495 138 LINE",
"497 74 OFFCURVE",
"522 -10 OFFCURVE",
"618 -10 CURVE SMOOTH"
);
},
{
closed = 1;
nodes = (
"314 181 OFFCURVE",
"340 147 OFFCURVE",
"340 100 CURVE SMOOTH",
"340 54 OFFCURVE",
"313 14 OFFCURVE",
"257 14 CURVE SMOOTH",
"208 14 OFFCURVE",
"174 46 OFFCURVE",
"174 97 CURVE SMOOTH",
"174 146 OFFCURVE",
"202 181 OFFCURVE",
"257 181 CURVE SMOOTH"
);
}
);
width = 827;
},
{
layerId = "32AB916E-052E-46AB-9DD5-C403DD480EC5";
paths = (
{
closed = 1;
nodes = (
"364 -10 OFFCURVE",
"414 45 OFFCURVE",
"414 126 CURVE SMOOTH",
"414 200 OFFCURVE",
"365 253 OFFCURVE",
"276 253 CURVE SMOOTH",
"185 253 OFFCURVE",
"146 194 OFFCURVE",
"146 132 CURVE SMOOTH",
"146 108 OFFCURVE",
"164 66 OFFCURVE",
"175 57 CURVE",
"191 64 LINE",
"148 110 OFFCURVE",
"130 151 OFFCURVE",
"130 218 CURVE SMOOTH",
"130 327 OFFCURVE",
"200 405 OFFCURVE",
"321 405 CURVE SMOOTH",
"424 405 OFFCURVE",
"474 344 OFFCURVE",
"474 254 CURVE SMOOTH",
"474 225 OFFCURVE",
"468 182 OFFCURVE",
"449 138 CURVE",
"428 97 OFFCURVE",
"408 52 OFFCURVE",
"393 21 CURVE",
"472 -10 LINE",
"489 32 OFFCURVE",
"509 77 OFFCURVE",
"527 119 CURVE",
"534 140 LINE",
"564 195 OFFCURVE",
"598 253 OFFCURVE",
"598 333 CURVE SMOOTH",
"598 452 OFFCURVE",
"517 563 OFFCURVE",
"336 563 CURVE SMOOTH",
"174 563 OFFCURVE",
"32 456 OFFCURVE",
"32 257 CURVE SMOOTH",
"32 100 OFFCURVE",
"121 -10 OFFCURVE",
"272 -10 CURVE SMOOTH"
);
},
{
closed = 1;
nodes = (
"768 -10 OFFCURVE",
"866 65 OFFCURVE",
"866 339 CURVE SMOOTH",
"866 666 OFFCURVE",
"678 804 OFFCURVE",
"432 804 CURVE SMOOTH",
"266 804 OFFCURVE",
"159 753 OFFCURVE",
"59 694 CURVE",
"101 625 LINE",
"186 685 OFFCURVE",
"291 731 OFFCURVE",
"430 731 CURVE SMOOTH",
"646 731 OFFCURVE",
"762 588 OFFCURVE",
"762 361 CURVE SMOOTH",
"762 205 OFFCURVE",
"721 172 OFFCURVE",
"676 172 CURVE SMOOTH",
"639 172 OFFCURVE",
"621 188 OFFCURVE",
"617 222 CURVE",
"510 223 LINE",
"491 118 LINE",
"547 116 LINE",
"536 194 LINE",
"536 70 OFFCURVE",
"571 -10 OFFCURVE",
"682 -10 CURVE SMOOTH"
);
},
{
closed = 1;
nodes = (
"316 183 OFFCURVE",
"333 157 OFFCURVE",
"333 126 CURVE SMOOTH",
"333 94 OFFCURVE",
"313 72 OFFCURVE",
"277 72 CURVE SMOOTH",
"241 72 OFFCURVE",
"223 95 OFFCURVE",
"223 127 CURVE SMOOTH",
"223 158 OFFCURVE",
"239 183 OFFCURVE",
"277 183 CURVE SMOOTH"
);
}
);
width = 904;
},
{
layerId = UUID0;
paths = (
{
closed = 1;
nodes = (
"339 -10 OFFCURVE",
"387 35 OFFCURVE",
"387 111 CURVE SMOOTH",
"387 180 OFFCURVE",
"343 229 OFFCURVE",
"260 229 CURVE SMOOTH",
"194 229 OFFCURVE",
"142 189 OFFCURVE",
"142 119 CURVE SMOOTH",
"142 96 OFFCURVE",
"151 68 OFFCURVE",
"169 55 CURVE",
"166 64 LINE",
"123 110 OFFCURVE",
"101 150 OFFCURVE",
"101 233 CURVE SMOOTH",
"101 375 OFFCURVE",
"188 455 OFFCURVE",
"315 455 CURVE SMOOTH",
"423 455 OFFCURVE",
"497 398 OFFCURVE",
"497 286 CURVE SMOOTH",
"497 244 OFFCURVE",
"480 186 OFFCURVE",
"454 138 CURVE SMOOTH",
"432 97 OFFCURVE",
"414 61 OFFCURVE",
"392 11 CURVE",
"447 -9 LINE",
"464 34 OFFCURVE",
"481 75 OFFCURVE",
"502 116 CURVE SMOOTH",
"515 140 LINE SMOOTH",
"544 196 OFFCURVE",
"568 262 OFFCURVE",
"568 324 CURVE SMOOTH",
"568 452 OFFCURVE",
"482 548 OFFCURVE",
"327 548 CURVE SMOOTH",
"179 548 OFFCURVE",
"41 451 OFFCURVE",
"41 249 CURVE SMOOTH",
"41 95 OFFCURVE",
"132 -10 OFFCURVE",
"261 -10 CURVE SMOOTH"
);
},
{
closed = 1;
nodes = (
"729 -10 OFFCURVE",
"818 70 OFFCURVE",
"818 337 CURVE SMOOTH",
"818 649 OFFCURVE",
"657 804 OFFCURVE",
"393 804 CURVE SMOOTH",
"232 804 OFFCURVE",
"135 760 OFFCURVE",
"41 699 CURVE",
"75 653 LINE",
"169 720 OFFCURVE",
"265 752 OFFCURVE",
"393 752 CURVE SMOOTH",
"639 752 OFFCURVE",
"755 599 OFFCURVE",
"755 347 CURVE SMOOTH",
"755 136 OFFCURVE",
"686 92 OFFCURVE",
"632 92 CURVE SMOOTH",
"579 92 OFFCURVE",
"562 125 OFFCURVE",
"560 169 CURVE",
"482 170 LINE",
"460 110 LINE",
"533 108 LINE",
"512 138 LINE",
"514 74 OFFCURVE",
"534 -10 OFFCURVE",
"634 -10 CURVE SMOOTH"
);
},
{
closed = 1;
nodes = (
"309 178 OFFCURVE",
"330 150 OFFCURVE",
"330 108 CURVE SMOOTH",
"330 68 OFFCURVE",
"301 43 OFFCURVE",
"261 43 CURVE SMOOTH",
"212 43 OFFCURVE",
"193 75 OFFCURVE",
"193 108 CURVE SMOOTH",
"193 154 OFFCURVE",
"220 178 OFFCURVE",
"260 178 CURVE SMOOTH"
);
}
);
width = 863;
}
);
rightKerningGroup = khasinh;
unicode = 0D9B;
},
{
glyphname = gasinh;
lastChange = "2016-08-23 15:05:55 +0000";
layers = (
{
layerId = "AF791F9F-5317-4D76-BDD4-1652E63983EA";
paths = (
{
closed = 1;
nodes = (
"736 -6 OFFCURVE",
"815 93 OFFCURVE",
"815 285 CURVE SMOOTH",
"815 435 OFFCURVE",
"758 589 OFFCURVE",
"597 589 CURVE SMOOTH",
"475 589 OFFCURVE",
"375 491 OFFCURVE",
"342 293 CURVE",
"362 288 LINE",
"371 291 OFFCURVE",
"386 293 OFFCURVE",
"403 293 CURVE SMOOTH",
"450 293 OFFCURVE",
"480 260 OFFCURVE",
"480 189 CURVE SMOOTH",
"480 91 OFFCURVE",
"427 17 OFFCURVE",
"289 17 CURVE SMOOTH",
"136 17 OFFCURVE",
"71 128 OFFCURVE",
"71 280 CURVE SMOOTH",
"71 451 OFFCURVE",
"172 564 OFFCURVE",
"325 564 CURVE SMOOTH",
"347 564 OFFCURVE",
"367 562 OFFCURVE",
"380 560 CURVE",
"383 585 LINE",
"365 588 OFFCURVE",
"342 589 OFFCURVE",
"326 589 CURVE SMOOTH",
"168 589 OFFCURVE",
"44 474 OFFCURVE",
"44 279 CURVE SMOOTH",
"44 106 OFFCURVE",
"127 -10 OFFCURVE",
"288 -10 CURVE SMOOTH",
"450 -10 OFFCURVE",
"507 82 OFFCURVE",
"507 188 CURVE SMOOTH",
"507 259 OFFCURVE",
"477 318 OFFCURVE",
"403 318 CURVE SMOOTH",
"386 318 OFFCURVE",
"374 316 OFFCURVE",
"362 312 CURVE",
"371 307 LINE",
"401 468 OFFCURVE",
"488 563 OFFCURVE",
"595 563 CURVE SMOOTH",
"735 563 OFFCURVE",
"788 430 OFFCURVE",
"788 285 CURVE SMOOTH",
"788 111 OFFCURVE",
"722 19 OFFCURVE",
"578 19 CURVE SMOOTH",
"539 19 OFFCURVE",
"503 27 OFFCURVE",
"480 35 CURVE",
"472 9 LINE",
"501 1 OFFCURVE",
"535 -6 OFFCURVE",
"577 -6 CURVE SMOOTH"
);
}
);
width = 859;
},
{
layerId = "32AB916E-052E-46AB-9DD5-C403DD480EC5";
paths = (
{
closed = 1;
nodes = (
"735 -8 OFFCURVE",
"907 45 OFFCURVE",
"907 297 CURVE SMOOTH",
"907 498 OFFCURVE",
"776 598 OFFCURVE",
"637 598 CURVE SMOOTH",
"478 598 OFFCURVE",
"374 489 OFFCURVE",
"344 292 CURVE",
"401 278 LINE",
"409 281 OFFCURVE",
"417 283 OFFCURVE",
"427 283 CURVE SMOOTH",
"449 283 OFFCURVE",
"459 271 OFFCURVE",
"459 253 CURVE SMOOTH",
"459 206 OFFCURVE",
"396 187 OFFCURVE",
"315 187 CURVE SMOOTH",
"178 187 OFFCURVE",
"137 261 OFFCURVE",
"137 341 CURVE SMOOTH",
"137 436 OFFCURVE",
"202 525 OFFCURVE",
"363 525 CURVE SMOOTH",
"385 525 OFFCURVE",
"406 523 OFFCURVE",
"419 521 CURVE",
"424 594 LINE",
"409 596 OFFCURVE",
"384 598 OFFCURVE",
"361 598 CURVE SMOOTH",
"179 598 OFFCURVE",
"33 495 OFFCURVE",
"33 288 CURVE SMOOTH",
"33 107 OFFCURVE",
"125 -10 OFFCURVE",
"307 -10 CURVE SMOOTH",
"492 -10 OFFCURVE",
"557 103 OFFCURVE",
"557 210 CURVE SMOOTH",
"557 314 OFFCURVE",
"491 354 OFFCURVE",
"418 354 CURVE SMOOTH",
"400 354 OFFCURVE",
"386 352 OFFCURVE",
"374 349 CURVE",
"416 315 LINE",
"456 418 OFFCURVE",
"522 462 OFFCURVE",
"612 462 CURVE SMOOTH",
"703 462 OFFCURVE",
"784 403 OFFCURVE",
"784 248 CURVE SMOOTH",
"784 142 OFFCURVE",
"727 65 OFFCURVE",
"612 65 CURVE SMOOTH",
"574 65 OFFCURVE",
"551 68 OFFCURVE",
"527 74 CURVE",
"508 2 LINE",
"536 -4 OFFCURVE",
"574 -8 OFFCURVE",
"621 -8 CURVE SMOOTH"
);
}
);
width = 940;
},
{
layerId = UUID0;
paths = (
{
closed = 1;
nodes = (
"742 -8 OFFCURVE",
"858 78 OFFCURVE",
"858 288 CURVE SMOOTH",
"858 456 OFFCURVE",
"775 589 OFFCURVE",
"615 589 CURVE SMOOTH",
"478 589 OFFCURVE",
"374 493 OFFCURVE",
"344 292 CURVE",
"381 282 LINE",
"391 283 OFFCURVE",
"399 284 OFFCURVE",
"407 284 CURVE SMOOTH",
"448 284 OFFCURVE",
"483 271 OFFCURVE",
"483 210 CURVE SMOOTH",
"483 155 OFFCURVE",
"444 95 OFFCURVE",
"310 95 CURVE SMOOTH",
"166 95 OFFCURVE",
"102 179 OFFCURVE",
"102 299 CURVE SMOOTH",
"102 451 OFFCURVE",
"197 537 OFFCURVE",
"337 537 CURVE SMOOTH",
"361 537 OFFCURVE",
"380 535 OFFCURVE",
"393 533 CURVE",
"397 585 LINE",
"382 587 OFFCURVE",
"355 589 OFFCURVE",
"336 589 CURVE SMOOTH",
"170 589 OFFCURVE",
"41 487 OFFCURVE",
"41 282 CURVE SMOOTH",
"41 107 OFFCURVE",
"134 -10 OFFCURVE",
"308 -10 CURVE SMOOTH",
"482 -10 OFFCURVE",
"542 101 OFFCURVE",
"542 195 CURVE SMOOTH",
"542 296 OFFCURVE",
"488 334 OFFCURVE",
"415 334 CURVE SMOOTH",
"397 334 OFFCURVE",
"383 332 OFFCURVE",
"371 329 CURVE",
"400 317 LINE",
"429 435 OFFCURVE",
"494 501 OFFCURVE",
"602 501 CURVE SMOOTH",
"728 501 OFFCURVE",
"794 405 OFFCURVE",
"794 263 CURVE SMOOTH",
"794 124 OFFCURVE",
"723 44 OFFCURVE",
"598 44 CURVE SMOOTH",
"560 44 OFFCURVE",
"539 47 OFFCURVE",
"515 54 CURVE",
"502 2 LINE",
"524 -4 OFFCURVE",
"560 -8 OFFCURVE",
"599 -8 CURVE SMOOTH"
);
}
);
width = 900;
}
);
rightKerningGroup = gasinh;
unicode = 0D9C;
},
{
glyphname = ghasinh;
lastChange = "2016-08-23 15:05:55 +0000";
layers = (
{
layerId = "AF791F9F-5317-4D76-BDD4-1652E63983EA";
paths = (
{
closed = 1;
nodes = (
"275 -10 OFFCURVE",
"321 -2 OFFCURVE",
"347 10 CURVE",
"340 34 LINE",
"310 20 OFFCURVE",
"270 17 OFFCURVE",
"235 17 CURVE SMOOTH",
"120 17 OFFCURVE",
"75 89 OFFCURVE",
"75 189 CURVE SMOOTH",
"75 312 OFFCURVE",
"147 402 OFFCURVE",
"315 421 CURVE",
"253 417 LINE",
"372 417 LINE",
"372 424 LINE SMOOTH",
"372 523 OFFCURVE",
"298 589 OFFCURVE",
"208 589 CURVE SMOOTH",
"137 589 OFFCURVE",
"91 547 OFFCURVE",
"91 495 CURVE SMOOTH",
"91 483 OFFCURVE",
"93 466 OFFCURVE",
"98 453 CURVE",
"123 458 LINE",
"120 467 OFFCURVE",
"118 479 OFFCURVE",
"118 492 CURVE SMOOTH",
"118 526 OFFCURVE",
"140 564 OFFCURVE",
"209 564 CURVE SMOOTH",
"291 564 OFFCURVE",
"335 507 OFFCURVE",
"346 442 CURVE",
"25 442 LINE",
"25 417 LINE",
"117 417 LINE SMOOTH",
"157 417 OFFCURVE",
"219 419 OFFCURVE",
"254 425 CURVE",
"262 428 LINE",
"118 407 OFFCURVE",
"48 312 OFFCURVE",
"48 189 CURVE SMOOTH",
"48 59 OFFCURVE",
"123 -10 OFFCURVE",
"236 -10 CURVE SMOOTH"
);
},
{
closed = 1;
nodes = (
"682 -10 OFFCURVE",
"729 80 OFFCURVE",
"729 201 CURVE SMOOTH",
"729 362 OFFCURVE",
"626 442 OFFCURVE",
"436 442 CURVE",
"440 441 LINE",
"449 508 OFFCURVE",
"497 564 OFFCURVE",
"574 564 CURVE SMOOTH",
"658 564 OFFCURVE",
"673 512 OFFCURVE",
"673 468 CURVE SMOOTH",
"673 449 OFFCURVE",
"669 427 OFFCURVE",
"662 407 CURVE",
"687 399 LINE",
"694 418 OFFCURVE",
"700 446 OFFCURVE",
"700 469 CURVE SMOOTH",
"700 536 OFFCURVE",
"667 589 OFFCURVE",
"577 589 CURVE SMOOTH",
"483 589 OFFCURVE",
"414 520 OFFCURVE",
"414 423 CURVE SMOOTH",
"414 417 LINE",
"435 417 LINE SMOOTH",
"610 417 OFFCURVE",
"702 348 OFFCURVE",
"702 201 CURVE SMOOTH",
"702 86 OFFCURVE",
"659 17 OFFCURVE",
"539 17 CURVE SMOOTH",
"502 17 OFFCURVE",
"462 23 OFFCURVE",
"431 36 CURVE",
"421 10 LINE",
"449 1 OFFCURVE",
"495 -10 OFFCURVE",
"539 -10 CURVE SMOOTH"
);
},
{
closed = 1;
nodes = (
"447 193 OFFCURVE",
"475 161 OFFCURVE",
"475 122 CURVE SMOOTH",
"475 76 OFFCURVE",
"448 53 OFFCURVE",
"426 37 CURVE",
"421 10 LINE",
"446 23 LINE",
"477 45 OFFCURVE",
"502 76 OFFCURVE",
"502 122 CURVE SMOOTH",
"502 186 OFFCURVE",
"445 218 OFFCURVE",
"384 218 CURVE SMOOTH",
"306 218 OFFCURVE",
"267 169 OFFCURVE",
"267 122 CURVE SMOOTH",
"267 75 OFFCURVE",
"294 43 OFFCURVE",
"323 23 CURVE",
"347 10 LINE",
"342 37 LINE",
"317 57 OFFCURVE",
"294 76 OFFCURVE",
"294 121 CURVE SMOOTH",
"294 161 OFFCURVE",
"324 193 OFFCURVE",
"384 193 CURVE SMOOTH"
);
}
);
width = 773;
},
{
layerId = "32AB916E-052E-46AB-9DD5-C403DD480EC5";
paths = (
{
closed = 1;
nodes = (
"315 -10 OFFCURVE",
"349 -7 OFFCURVE",
"385 6 CURVE",
"311 183 LINE",
"291 180 OFFCURVE",
"271 177 OFFCURVE",
"253 177 CURVE SMOOTH",
"192 177 OFFCURVE",
"151 199 OFFCURVE",
"151 258 CURVE SMOOTH",
"151 319 OFFCURVE",
"203 361 OFFCURVE",
"282 379 CURVE",
"204 374 LINE",
"412 374 LINE",
"412 405 LINE SMOOTH",
"412 520 OFFCURVE",
"342 598 OFFCURVE",
"232 598 CURVE SMOOTH",
"131 598 OFFCURVE",
"84 555 OFFCURVE",
"84 499 CURVE SMOOTH",
"84 485 OFFCURVE",
"86 466 OFFCURVE",
"93 452 CURVE",
"225 460 LINE",
"224 466 OFFCURVE",
"224 473 OFFCURVE",
"224 477 CURVE SMOOTH",
"224 498 OFFCURVE",
"234 515 OFFCURVE",
"262 515 CURVE SMOOTH",
"300 515 OFFCURVE",
"317 480 OFFCURVE",
"325 442 CURVE",
"21 442 LINE",
"21 374 LINE",
"65 374 LINE SMOOTH",
"98 374 OFFCURVE",
"151 376 OFFCURVE",
"179 380 CURVE",
"211 409 LINE",
"114 379 OFFCURVE",
"44 298 OFFCURVE",
"44 191 CURVE SMOOTH",
"44 62 OFFCURVE",
"121 -10 OFFCURVE",
"260 -10 CURVE SMOOTH"
);
},
{
closed = 1;
nodes = (
"724 -10 OFFCURVE",
"792 77 OFFCURVE",
"792 204 CURVE SMOOTH",
"792 368 OFFCURVE",
"677 442 OFFCURVE",
"506 442 CURVE",
"527 437 LINE",
"538 501 OFFCURVE",
"577 516 OFFCURVE",
"615 516 CURVE SMOOTH",
"649 516 OFFCURVE",
"675 497 OFFCURVE",
"675 461 CURVE SMOOTH",
"675 447 OFFCURVE",
"672 437 OFFCURVE",
"669 428 CURVE",
"745 405 LINE",
"753 428 OFFCURVE",
"758 449 OFFCURVE",
"758 477 CURVE SMOOTH",
"758 539 OFFCURVE",
"725 598 OFFCURVE",
"616 598 CURVE SMOOTH",
"508 598 OFFCURVE",
"438 515 OFFCURVE",
"438 400 CURVE SMOOTH",
"438 374 LINE",
"489 374 LINE SMOOTH",
"629 374 OFFCURVE",
"689 335 OFFCURVE",
"689 261 CURVE SMOOTH",
"689 188 OFFCURVE",
"628 177 OFFCURVE",
"592 177 CURVE SMOOTH",
"560 177 OFFCURVE",
"547 179 OFFCURVE",
"528 182 CURVE",
"449 6 LINE",
"493 -5 OFFCURVE",
"532 -10 OFFCURVE",
"570 -10 CURVE SMOOTH"
);
},
{
closed = 1;
nodes = (
"473 223 OFFCURVE",
"493 202 OFFCURVE",
"493 181 CURVE SMOOTH",
"493 162 OFFCURVE",
"482 153 OFFCURVE",
"465 147 CURVE",
"449 6 LINE",
"491 85 LINE",
"539 96 OFFCURVE",
"575 125 OFFCURVE",
"575 183 CURVE SMOOTH",
"575 238 OFFCURVE",
"532 295 OFFCURVE",
"416 295 CURVE SMOOTH",
"299 295 OFFCURVE",
"258 243 OFFCURVE",
"258 184 CURVE SMOOTH",
"258 128 OFFCURVE",
"288 100 OFFCURVE",
"345 84 CURVE",
"385 6 LINE",
"367 147 LINE",
"352 155 OFFCURVE",
"342 165 OFFCURVE",
"342 182 CURVE SMOOTH",
"342 204 OFFCURVE",
"363 223 OFFCURVE",
"415 223 CURVE SMOOTH"
);
}
);
width = 824;
},
{
layerId = UUID0;
paths = (
{
closed = 1;
nodes = (
"295 -10 OFFCURVE",
"340 -2 OFFCURVE",
"366 10 CURVE",
"324 97 LINE",
"298 90 OFFCURVE",
"275 88 OFFCURVE",
"238 88 CURVE SMOOTH",
"168 88 OFFCURVE",
"110 117 OFFCURVE",
"110 214 CURVE SMOOTH",
"110 304 OFFCURVE",
"174 378 OFFCURVE",
"311 397 CURVE",
"253 391 LINE",
"395 391 LINE",
"395 405 LINE SMOOTH",
"395 516 OFFCURVE",
"332 589 OFFCURVE",
"219 589 CURVE SMOOTH",
"147 589 OFFCURVE",
"91 555 OFFCURVE",
"91 490 CURVE SMOOTH",
"91 482 OFFCURVE",
"93 463 OFFCURVE",
"97 452 CURVE",
"179 459 LINE",
"177 465 OFFCURVE",
"176 475 OFFCURVE",
"176 481 CURVE SMOOTH",
"176 515 OFFCURVE",
"196 534 OFFCURVE",
"236 534 CURVE SMOOTH",
"302 534 OFFCURVE",
"329 488 OFFCURVE",
"338 442 CURVE",
"24 442 LINE",
"24 391 LINE",
"72 391 LINE SMOOTH",
"118 391 OFFCURVE",
"188 393 OFFCURVE",
"216 397 CURVE",
"223 415 LINE",
"121 382 OFFCURVE",
"48 308 OFFCURVE",
"48 187 CURVE SMOOTH",
"48 53 OFFCURVE",
"128 -10 OFFCURVE",
"250 -10 CURVE SMOOTH"
);
},
{
closed = 1;
nodes = (
"701 -10 OFFCURVE",
"759 72 OFFCURVE",
"759 201 CURVE SMOOTH",
"759 375 OFFCURVE",
"617 442 OFFCURVE",
"461 442 CURVE",
"484 438 LINE",
"496 492 OFFCURVE",
"528 529 OFFCURVE",
"588 529 CURVE SMOOTH",
"639 529 OFFCURVE",
"671 506 OFFCURVE",
"671 460 CURVE SMOOTH",
"671 446 OFFCURVE",
"668 428 OFFCURVE",
"662 413 CURVE",
"712 397 LINE",
"720 419 OFFCURVE",
"725 442 OFFCURVE",
"725 468 CURVE SMOOTH",
"725 538 OFFCURVE",
"686 589 OFFCURVE",
"595 589 CURVE SMOOTH",
"499 589 OFFCURVE",
"427 515 OFFCURVE",
"427 397 CURVE SMOOTH",
"427 391 LINE",
"443 391 LINE SMOOTH",
"624 391 OFFCURVE",
"699 319 OFFCURVE",
"699 216 CURVE SMOOTH",
"699 125 OFFCURVE",
"645 88 OFFCURVE",
"568 88 CURVE SMOOTH",
"540 88 OFFCURVE",
"512 90 OFFCURVE",
"484 98 CURVE",
"441 10 LINE",
"468 0 OFFCURVE",
"513 -10 OFFCURVE",
"557 -10 CURVE SMOOTH"
);
},
{
closed = 1;
nodes = (
"470 208 OFFCURVE",
"488 180 OFFCURVE",
"488 152 CURVE SMOOTH",
"488 130 OFFCURVE",
"477 113 OFFCURVE",
"458 100 CURVE",
"441 10 LINE",
"486 64 LINE",
"525 85 OFFCURVE",
"548 113 OFFCURVE",
"548 156 CURVE SMOOTH",
"548 223 OFFCURVE",
"493 260 OFFCURVE",
"403 260 CURVE SMOOTH",
"314 260 OFFCURVE",
"259 223 OFFCURVE",
"259 156 CURVE SMOOTH",
"259 114 OFFCURVE",
"284 84 OFFCURVE",
"323 63 CURVE",
"366 10 LINE",
"349 100 LINE",
"329 116 OFFCURVE",
"319 131 OFFCURVE",
"319 152 CURVE SMOOTH",
"319 180 OFFCURVE",
"337 208 OFFCURVE",
"403 208 CURVE SMOOTH"
);
}
);
width = 800;
}
);
rightKerningGroup = ghasinh;
unicode = 0D9D;
},
{
glyphname = ngasinh;
lastChange = "2016-08-23 15:05:55 +0000";
layers = (
{
layerId = "AF791F9F-5317-4D76-BDD4-1652E63983EA";
paths = (
{
closed = 1;
nodes = (
"708 -10 OFFCURVE",
"773 97 OFFCURVE",
"773 346 CURVE SMOOTH",
"773 610 OFFCURVE",
"664 804 OFFCURVE",
"387 804 CURVE SMOOTH",
"254 804 OFFCURVE",
"178 768 OFFCURVE",
"80 708 CURVE",
"96 685 LINE",
"185 748 OFFCURVE",
"274 779 OFFCURVE",
"387 779 CURVE SMOOTH",
"645 779 OFFCURVE",
"746 595 OFFCURVE",
"746 348 CURVE SMOOTH",
"746 122 OFFCURVE",
"695 17 OFFCURVE",
"573 17 CURVE SMOOTH",
"471 17 OFFCURVE",
"428 89 OFFCURVE",
"416 169 CURVE",
"392 169 LINE",
"373 99 OFFCURVE",
"342 17 OFFCURVE",
"227 17 CURVE SMOOTH",
"144 17 OFFCURVE",
"87 62 OFFCURVE",
"87 158 CURVE SMOOTH",
"87 257 OFFCURVE",
"143 294 OFFCURVE",
"256 330 CURVE SMOOTH",
"407 377 OFFCURVE",
"440 411 OFFCURVE",
"440 474 CURVE SMOOTH",
"440 537 OFFCURVE",
"388 589 OFFCURVE",
"259 589 CURVE SMOOTH",
"119 589 OFFCURVE",
"23 532 OFFCURVE",
"23 449 CURVE SMOOTH",
"23 385 OFFCURVE",
"65 350 OFFCURVE",
"124 350 CURVE SMOOTH",
"192 350 OFFCURVE",
"225 392 OFFCURVE",
"225 450 CURVE SMOOTH",
"225 504 OFFCURVE",
"193 546 OFFCURVE",
"129 546 CURVE SMOOTH",
"124 546 OFFCURVE",
"117 545 OFFCURVE",
"108 543 CURVE",
"94 532 LINE",
"133 554 OFFCURVE",
"187 564 OFFCURVE",
"258 564 CURVE SMOOTH",
"364 564 OFFCURVE",
"413 531 OFFCURVE",
"413 474 CURVE SMOOTH",
"413 419 OFFCURVE",
"382 396 OFFCURVE",
"247 353 CURVE SMOOTH",
"118 312 OFFCURVE",
"60 260 OFFCURVE",
"60 157 CURVE SMOOTH",
"60 34 OFFCURVE",
"142 -10 OFFCURVE",
"226 -10 CURVE SMOOTH",
"331 -10 OFFCURVE",
"379 52 OFFCURVE",
"403 124 CURVE",
"428 42 OFFCURVE",
"479 -10 OFFCURVE",
"574 -10 CURVE SMOOTH"
);
},
{
closed = 1;
nodes = (
"199 408 OFFCURVE",
"176 375 OFFCURVE",
"124 375 CURVE SMOOTH",
"70 375 OFFCURVE",
"49 407 OFFCURVE",
"49 447 CURVE SMOOTH",
"49 489 OFFCURVE",
"73 525 OFFCURVE",
"124 525 CURVE SMOOTH",
"171 525 OFFCURVE",
"199 496 OFFCURVE",
"199 450 CURVE SMOOTH"
);
}
);
width = 820;
},
{
layerId = "32AB916E-052E-46AB-9DD5-C403DD480EC5";
paths = (
{
closed = 1;
nodes = (
"735 -10 OFFCURVE",
"848 76 OFFCURVE",
"848 345 CURVE SMOOTH",
"848 655 OFFCURVE",
"674 804 OFFCURVE",
"415 804 CURVE SMOOTH",
"266 804 OFFCURVE",
"159 753 OFFCURVE",
"59 694 CURVE",
"101 625 LINE",
"186 685 OFFCURVE",
"291 731 OFFCURVE",
"416 731 CURVE SMOOTH",
"628 731 OFFCURVE",
"744 607 OFFCURVE",
"744 381 CURVE SMOOTH",
"744 222 OFFCURVE",
"677 182 OFFCURVE",
"597 182 CURVE SMOOTH",
"518 182 OFFCURVE",
"482 222 OFFCURVE",
"466 268 CURVE",
"393 268 LINE",
"370 210 OFFCURVE",
"327 182 OFFCURVE",
"237 182 CURVE SMOOTH",
"178 182 OFFCURVE",
"147 196 OFFCURVE",
"147 232 CURVE SMOOTH",
"147 262 OFFCURVE",
"171 282 OFFCURVE",
"277 309 CURVE SMOOTH",
"453 354 OFFCURVE",
"492 395 OFFCURVE",
"492 474 CURVE SMOOTH",
"492 545 OFFCURVE",
"431 598 OFFCURVE",
"286 598 CURVE SMOOTH",
"116 598 OFFCURVE",
"19 549 OFFCURVE",
"19 454 CURVE SMOOTH",
"19 383 OFFCURVE",
"62 333 OFFCURVE",
"147 333 CURVE SMOOTH",
"232 333 OFFCURVE",
"276 384 OFFCURVE",
"276 446 CURVE SMOOTH",
"276 513 OFFCURVE",
"231 553 OFFCURVE",
"174 553 CURVE SMOOTH",
"160 553 OFFCURVE",
"147 551 OFFCURVE",
"136 548 CURVE",
"150 508 LINE",
"186 516 OFFCURVE",
"229 526 OFFCURVE",
"287 526 CURVE SMOOTH",
"362 526 OFFCURVE",
"405 512 OFFCURVE",
"405 474 CURVE SMOOTH",
"405 434 OFFCURVE",
"378 415 OFFCURVE",
"271 383 CURVE SMOOTH",
"115 336 OFFCURVE",
"41 290 OFFCURVE",
"41 171 CURVE SMOOTH",
"41 70 OFFCURVE",
"96 -10 OFFCURVE",
"231 -10 CURVE SMOOTH",
"349 -10 OFFCURVE",
"406 65 OFFCURVE",
"429 135 CURVE",
"456 48 OFFCURVE",
"512 -10 OFFCURVE",
"616 -10 CURVE SMOOTH"
);
},
{
closed = 1;
nodes = (
"196 423 OFFCURVE",
"184 401 OFFCURVE",
"149 401 CURVE SMOOTH",
"113 401 OFFCURVE",
"100 425 OFFCURVE",
"100 451 CURVE SMOOTH",
"100 476 OFFCURVE",
"116 499 OFFCURVE",
"149 499 CURVE SMOOTH",
"182 499 OFFCURVE",
"196 476 OFFCURVE",
"196 450 CURVE SMOOTH"
);
}
);
width = 884;
},
{
layerId = UUID0;
paths = (
{
closed = 1;
nodes = (
"717 -10 OFFCURVE",
"809 78 OFFCURVE",
"809 345 CURVE SMOOTH",
"809 656 OFFCURVE",
"651 804 OFFCURVE",
"401 804 CURVE SMOOTH",
"257 804 OFFCURVE",
"159 760 OFFCURVE",
"69 699 CURVE",
"103 653 LINE",
"196 722 OFFCURVE",
"295 752 OFFCURVE",
"401 752 CURVE SMOOTH",
"631 752 OFFCURVE",
"746 607 OFFCURVE",
"746 361 CURVE SMOOTH",
"746 148 OFFCURVE",
"671 95 OFFCURVE",
"585 95 CURVE SMOOTH",
"511 95 OFFCURVE",
"451 131 OFFCURVE",
"444 204 CURVE",
"391 204 LINE",
"376 147 OFFCURVE",
"342 95 OFFCURVE",
"233 95 CURVE SMOOTH",
"159 95 OFFCURVE",
"114 122 OFFCURVE",
"114 181 CURVE SMOOTH",
"114 257 OFFCURVE",
"178 283 OFFCURVE",
"267 313 CURVE SMOOTH",
"433 369 OFFCURVE",
"472 401 OFFCURVE",
"472 472 CURVE SMOOTH",
"472 537 OFFCURVE",
"407 589 OFFCURVE",
"274 589 CURVE SMOOTH",
"104 589 OFFCURVE",
"20 528 OFFCURVE",
"20 450 CURVE SMOOTH",
"20 377 OFFCURVE",
"69 337 OFFCURVE",
"137 337 CURVE SMOOTH",
"201 337 OFFCURVE",
"256 367 OFFCURVE",
"256 446 CURVE SMOOTH",
"256 501 OFFCURVE",
"217 538 OFFCURVE",
"163 538 CURVE SMOOTH",
"153 538 OFFCURVE",
"137 537 OFFCURVE",
"129 535 CURVE",
"139 517 LINE",
"168 529 OFFCURVE",
"208 537 OFFCURVE",
"277 537 CURVE SMOOTH",
"353 537 OFFCURVE",
"412 515 OFFCURVE",
"412 467 CURVE SMOOTH",
"412 426 OFFCURVE",
"383 408 OFFCURVE",
"252 363 CURVE SMOOTH",
"129 321 OFFCURVE",
"52 279 OFFCURVE",
"52 164 CURVE SMOOTH",
"52 50 OFFCURVE",
"120 -10 OFFCURVE",
"235 -10 CURVE SMOOTH",
"335 -10 OFFCURVE",
"394 59 OFFCURVE",
"417 129 CURVE",
"446 44 OFFCURVE",
"498 -10 OFFCURVE",
"599 -10 CURVE SMOOTH"
);
},
{
closed = 1;
nodes = (
"199 408 OFFCURVE",
"176 388 OFFCURVE",
"139 388 CURVE SMOOTH",
"96 388 OFFCURVE",
"77 413 OFFCURVE",
"77 449 CURVE SMOOTH",
"77 484 OFFCURVE",
"103 506 OFFCURVE",
"138 506 CURVE SMOOTH",
"182 506 OFFCURVE",
"199 478 OFFCURVE",
"199 449 CURVE SMOOTH"
);
}
);
width = 853;
}
);
rightKerningGroup = ngasinh;
unicode = 0D9E;
},
{
glyphname = nngasinh;
lastChange = "2016-08-23 15:05:55 +0000";
layers = (
{
layerId = "AF791F9F-5317-4D76-BDD4-1652E63983EA";
paths = (
{
closed = 1;
nodes = (
"869 -6 OFFCURVE",
"948 93 OFFCURVE",
"948 285 CURVE SMOOTH",
"948 435 OFFCURVE",
"891 589 OFFCURVE",
"730 589 CURVE SMOOTH",
"608 589 OFFCURVE",
"508 491 OFFCURVE",
"475 293 CURVE",
"495 288 LINE",
"504 291 OFFCURVE",
"519 293 OFFCURVE",
"536 293 CURVE SMOOTH",
"583 293 OFFCURVE",
"613 260 OFFCURVE",
"613 189 CURVE SMOOTH",
"613 91 OFFCURVE",
"560 17 OFFCURVE",
"423 17 CURVE SMOOTH",
"265 17 OFFCURVE",
"211 133 OFFCURVE",
"211 268 CURVE SMOOTH",
"211 447 OFFCURVE",
"338 524 OFFCURVE",
"452 524 CURVE SMOOTH",
"467 524 OFFCURVE",
"481 524 OFFCURVE",
"494 523 CURVE",
"504 556 LINE",
"496 543 LINE",
"478 547 OFFCURVE",
"467 548 OFFCURVE",
"453 548 CURVE SMOOTH",
"324 548 OFFCURVE",
"184 463 OFFCURVE",
"184 269 CURVE SMOOTH",
"184 104 OFFCURVE",
"260 -10 OFFCURVE",
"418 -10 CURVE SMOOTH",
"583 -10 OFFCURVE",
"640 82 OFFCURVE",
"640 188 CURVE SMOOTH",
"640 259 OFFCURVE",
"610 318 OFFCURVE",
"536 318 CURVE SMOOTH",
"519 318 OFFCURVE",
"507 316 OFFCURVE",
"495 312 CURVE",
"504 307 LINE",
"534 468 OFFCURVE",
"621 563 OFFCURVE",
"728 563 CURVE SMOOTH",
"868 563 OFFCURVE",
"921 430 OFFCURVE",
"921 285 CURVE SMOOTH",
"921 111 OFFCURVE",
"855 19 OFFCURVE",
"711 19 CURVE SMOOTH",
"672 19 OFFCURVE",
"636 27 OFFCURVE",
"613 35 CURVE",
"605 9 LINE",
"634 1 OFFCURVE",
"668 -6 OFFCURVE",
"710 -6 CURVE SMOOTH"
);
},
{
closed = 1;
nodes = (
"44 201 OFFCURVE",
"83 120 OFFCURVE",
"140 34 CURVE",
"164 48 LINE",
"107 129 OFFCURVE",
"71 208 OFFCURVE",
"71 312 CURVE SMOOTH",
"71 451 OFFCURVE",
"144 564 OFFCURVE",
"324 564 CURVE SMOOTH",
"396 564 OFFCURVE",
"433 555 OFFCURVE",
"494 536 CURVE",
"504 556 LINE",
"452 574 OFFCURVE",
"397 589 OFFCURVE",
"321 589 CURVE SMOOTH",
"144 589 OFFCURVE",
"44 481 OFFCURVE",
"44 314 CURVE SMOOTH"
);
}
);
width = 992;
},
{
layerId = "32AB916E-052E-46AB-9DD5-C403DD480EC5";
paths = (
{
closed = 1;
nodes = (
"904 -8 OFFCURVE",
"1076 45 OFFCURVE",
"1076 297 CURVE SMOOTH",
"1076 498 OFFCURVE",
"945 598 OFFCURVE",
"806 598 CURVE SMOOTH",
"647 598 OFFCURVE",
"543 489 OFFCURVE",
"513 292 CURVE",
"570 278 LINE",
"578 281 OFFCURVE",
"586 283 OFFCURVE",
"596 283 CURVE SMOOTH",
"618 283 OFFCURVE",
"628 271 OFFCURVE",
"628 253 CURVE SMOOTH",
"628 206 OFFCURVE",
"565 187 OFFCURVE",
"484 187 CURVE SMOOTH",
"345 187 OFFCURVE",
"306 261 OFFCURVE",
"306 332 CURVE SMOOTH",
"306 416 OFFCURVE",
"359 488 OFFCURVE",
"485 488 CURVE SMOOTH",
"495 488 OFFCURVE",
"505 487 OFFCURVE",
"512 486 CURVE",
"542 575 LINE",
"525 553 LINE",
"515 555 OFFCURVE",
"504 555 OFFCURVE",
"495 555 CURVE SMOOTH",
"315 555 OFFCURVE",
"204 442 OFFCURVE",
"204 281 CURVE SMOOTH",
"204 116 OFFCURVE",
"290 -10 OFFCURVE",
"476 -10 CURVE SMOOTH",
"661 -10 OFFCURVE",
"726 103 OFFCURVE",
"726 210 CURVE SMOOTH",
"726 314 OFFCURVE",
"660 354 OFFCURVE",
"587 354 CURVE SMOOTH",
"569 354 OFFCURVE",
"555 352 OFFCURVE",
"543 349 CURVE",
"585 315 LINE",
"625 418 OFFCURVE",
"691 462 OFFCURVE",
"781 462 CURVE SMOOTH",
"872 462 OFFCURVE",
"953 403 OFFCURVE",
"953 248 CURVE SMOOTH",
"953 142 OFFCURVE",
"896 65 OFFCURVE",
"781 65 CURVE SMOOTH",
"743 65 OFFCURVE",
"720 68 OFFCURVE",
"696 74 CURVE",
"677 2 LINE",
"705 -4 OFFCURVE",
"743 -8 OFFCURVE",
"790 -8 CURVE SMOOTH"
);
},
{
closed = 1;
nodes = (
"33 214 OFFCURVE",
"75 111 OFFCURVE",
"127 29 CURVE",
"200 70 LINE",
"151 148 OFFCURVE",
"121 220 OFFCURVE",
"121 312 CURVE SMOOTH",
"121 468 OFFCURVE",
"228 535 OFFCURVE",
"351 535 CURVE SMOOTH",
"411 535 OFFCURVE",
"460 528 OFFCURVE",
"511 519 CURVE",
"542 575 LINE",
"471 596 OFFCURVE",
"419 607 OFFCURVE",
"338 607 CURVE SMOOTH",
"164 607 OFFCURVE",
"33 504 OFFCURVE",
"33 317 CURVE SMOOTH"
);
}
);
width = 1109;
},
{
layerId = UUID0;
paths = (
{
closed = 1;
nodes = (
"897 -8 OFFCURVE",
"1013 78 OFFCURVE",
"1013 288 CURVE SMOOTH",
"1013 456 OFFCURVE",
"930 589 OFFCURVE",
"770 589 CURVE SMOOTH",
"633 589 OFFCURVE",
"529 493 OFFCURVE",
"499 292 CURVE",
"536 282 LINE",
"546 283 OFFCURVE",
"554 284 OFFCURVE",
"562 284 CURVE SMOOTH",
"603 284 OFFCURVE",
"638 271 OFFCURVE",
"638 210 CURVE SMOOTH",
"638 155 OFFCURVE",
"599 95 OFFCURVE",
"466 95 CURVE SMOOTH",
"327 95 OFFCURVE",
"268 183 OFFCURVE",
"268 284 CURVE SMOOTH",
"268 407 OFFCURVE",
"342 505 OFFCURVE",
"485 505 CURVE SMOOTH",
"490 505 OFFCURVE",
"495 505 OFFCURVE",
"500 505 CURVE",
"516 566 LINE",
"505 547 LINE",
"499 548 OFFCURVE",
"494 548 OFFCURVE",
"490 548 CURVE SMOOTH",
"313 548 OFFCURVE",
"207 444 OFFCURVE",
"207 272 CURVE SMOOTH",
"207 104 OFFCURVE",
"295 -10 OFFCURVE",
"463 -10 CURVE SMOOTH",
"636 -10 OFFCURVE",
"697 101 OFFCURVE",
"697 195 CURVE SMOOTH",
"697 296 OFFCURVE",
"643 334 OFFCURVE",
"570 334 CURVE SMOOTH",
"552 334 OFFCURVE",
"538 332 OFFCURVE",
"526 329 CURVE",
"555 317 LINE",
"584 435 OFFCURVE",
"649 501 OFFCURVE",
"757 501 CURVE SMOOTH",
"883 501 OFFCURVE",
"949 405 OFFCURVE",
"949 263 CURVE SMOOTH",
"949 124 OFFCURVE",
"878 44 OFFCURVE",
"753 44 CURVE SMOOTH",
"715 44 OFFCURVE",
"694 47 OFFCURVE",
"670 54 CURVE",
"657 2 LINE",
"679 -4 OFFCURVE",
"715 -8 OFFCURVE",
"754 -8 CURVE SMOOTH"
);
},
{
closed = 1;
nodes = (
"45 195 OFFCURVE",
"91 99 OFFCURVE",
"139 24 CURVE",
"189 51 LINE",
"139 131 OFFCURVE",
"105 201 OFFCURVE",
"105 297 CURVE SMOOTH",
"105 464 OFFCURVE",
"210 540 OFFCURVE",
"353 540 CURVE SMOOTH",
"397 540 OFFCURVE",
"449 538 OFFCURVE",
"496 528 CURVE",
"516 566 LINE",
"461 581 OFFCURVE",
"401 589 OFFCURVE",
"348 589 CURVE SMOOTH",
"188 589 OFFCURVE",
"45 507 OFFCURVE",
"45 305 CURVE SMOOTH"
);
}
);
width = 1054;
}
);
rightKerningGroup = gasinh;
unicode = 0D9F;
},
{
glyphname = casinh;
lastChange = "2016-08-23 15:05:55 +0000";
layers = (
{
layerId = "AF791F9F-5317-4D76-BDD4-1652E63983EA";
paths = (
{
closed = 1;
nodes = (
"578 -10 OFFCURVE",
"715 162 OFFCURVE",
"715 418 CURVE SMOOTH",
"715 688 OFFCURVE",
"547 804 OFFCURVE",
"346 804 CURVE SMOOTH",
"218 804 OFFCURVE",
"141 768 OFFCURVE",
"42 708 CURVE",
"58 685 LINE",
"147 748 OFFCURVE",
"238 779 OFFCURVE",
"346 779 CURVE SMOOTH",
"532 779 OFFCURVE",
"688 674 OFFCURVE",
"688 420 CURVE SMOOTH",
"688 178 OFFCURVE",
"559 17 OFFCURVE",
"328 17 CURVE SMOOTH",
"168 17 OFFCURVE",
"83 81 OFFCURVE",
"83 214 CURVE SMOOTH",
"83 331 OFFCURVE",
"154 397 OFFCURVE",
"293 421 CURVE",
"239 417 LINE",
"406 417 LINE",
"406 424 LINE SMOOTH",
"406 523 OFFCURVE",
"332 589 OFFCURVE",
"242 589 CURVE SMOOTH",
"171 589 OFFCURVE",
"125 547 OFFCURVE",
"125 495 CURVE SMOOTH",
"125 483 OFFCURVE",
"127 466 OFFCURVE",
"132 453 CURVE",
"157 458 LINE",
"154 467 OFFCURVE",
"152 479 OFFCURVE",
"152 492 CURVE SMOOTH",
"152 526 OFFCURVE",
"174 564 OFFCURVE",
"243 564 CURVE SMOOTH",
"325 564 OFFCURVE",
"369 507 OFFCURVE",
"380 442 CURVE",
"22 442 LINE",
"22 417 LINE",
"103 417 LINE SMOOTH",
"143 417 OFFCURVE",
"205 418 OFFCURVE",
"240 424 CURVE",
"230 425 LINE",
"106 393 OFFCURVE",
"56 317 OFFCURVE",
"56 214 CURVE SMOOTH",
"56 62 OFFCURVE",
"154 -10 OFFCURVE",
"323 -10 CURVE SMOOTH"
);
}
);
width = 758;
},
{
layerId = "32AB916E-052E-46AB-9DD5-C403DD480EC5";
paths = (
{
closed = 1;
nodes = (
"672 -10 OFFCURVE",
"791 173 OFFCURVE",
"791 412 CURVE SMOOTH",
"791 698 OFFCURVE",
"612 804 OFFCURVE",
"396 804 CURVE SMOOTH",
"241 804 OFFCURVE",
"135 753 OFFCURVE",
"35 694 CURVE",
"82 625 LINE",
"166 685 OFFCURVE",
"267 731 OFFCURVE",
"395 731 CURVE SMOOTH",
"561 731 OFFCURVE",
"687 656 OFFCURVE",
"687 458 CURVE SMOOTH",
"687 313 OFFCURVE",
"613 188 OFFCURVE",
"357 188 CURVE SMOOTH",
"224 188 OFFCURVE",
"159 221 OFFCURVE",
"159 284 CURVE SMOOTH",
"159 326 OFFCURVE",
"189 362 OFFCURVE",
"270 382 CURVE",
"202 374 LINE",
"440 374 LINE",
"440 405 LINE SMOOTH",
"440 520 OFFCURVE",
"370 598 OFFCURVE",
"260 598 CURVE SMOOTH",
"159 598 OFFCURVE",
"112 555 OFFCURVE",
"112 499 CURVE SMOOTH",
"112 485 OFFCURVE",
"114 466 OFFCURVE",
"121 452 CURVE",
"253 460 LINE",
"252 467 OFFCURVE",
"252 472 OFFCURVE",
"252 477 CURVE SMOOTH",
"252 498 OFFCURVE",
"262 515 OFFCURVE",
"290 515 CURVE SMOOTH",
"328 515 OFFCURVE",
"345 480 OFFCURVE",
"353 442 CURVE",
"21 442 LINE",
"21 374 LINE",
"43 374 LINE SMOOTH",
"76 374 OFFCURVE",
"129 376 OFFCURVE",
"157 380 CURVE",
"188 406 LINE",
"108 374 OFFCURVE",
"52 314 OFFCURVE",
"52 229 CURVE SMOOTH",
"52 81 OFFCURVE",
"143 -10 OFFCURVE",
"365 -10 CURVE SMOOTH"
);
}
);
width = 823;
},
{
layerId = UUID0;
paths = (
{
closed = 1;
nodes = (
"628 -10 OFFCURVE",
"752 173 OFFCURVE",
"752 402 CURVE SMOOTH",
"752 690 OFFCURVE",
"565 804 OFFCURVE",
"362 804 CURVE SMOOTH",
"227 804 OFFCURVE",
"128 761 OFFCURVE",
"39 699 CURVE",
"73 653 LINE",
"170 726 OFFCURVE",
"265 752 OFFCURVE",
"367 752 CURVE SMOOTH",
"515 752 OFFCURVE",
"689 674 OFFCURVE",
"689 422 CURVE SMOOTH",
"689 259 OFFCURVE",
"610 95 OFFCURVE",
"344 95 CURVE SMOOTH",
"174 95 OFFCURVE",
"115 153 OFFCURVE",
"115 245 CURVE SMOOTH",
"115 320 OFFCURVE",
"176 373 OFFCURVE",
"282 398 CURVE",
"237 391 LINE",
"426 391 LINE",
"426 405 LINE SMOOTH",
"426 516 OFFCURVE",
"363 589 OFFCURVE",
"250 589 CURVE SMOOTH",
"178 589 OFFCURVE",
"122 555 OFFCURVE",
"122 490 CURVE SMOOTH",
"122 482 OFFCURVE",
"124 463 OFFCURVE",
"128 452 CURVE",
"210 459 LINE",
"208 465 OFFCURVE",
"207 475 OFFCURVE",
"207 481 CURVE SMOOTH",
"207 515 OFFCURVE",
"227 534 OFFCURVE",
"267 534 CURVE SMOOTH",
"333 534 OFFCURVE",
"360 488 OFFCURVE",
"369 442 CURVE",
"20 442 LINE",
"20 391 LINE",
"55 391 LINE SMOOTH",
"101 391 OFFCURVE",
"171 393 OFFCURVE",
"199 397 CURVE",
"219 416 LINE",
"122 391 OFFCURVE",
"53 313 OFFCURVE",
"53 219 CURVE SMOOTH",
"53 77 OFFCURVE",
"151 -10 OFFCURVE",
"349 -10 CURVE SMOOTH"
);
}
);
width = 792;
}
);
rightKerningGroup = casinh;
unicode = 0DA0;
},
{
glyphname = chasinh;
lastChange = "2016-08-23 15:05:55 +0000";
layers = (
{
layerId = "AF791F9F-5317-4D76-BDD4-1652E63983EA";
paths = (
{
closed = 1;
nodes = (
"595 -10 OFFCURVE",
"702 88 OFFCURVE",
"702 235 CURVE SMOOTH",
"702 361 OFFCURVE",
"631 442 OFFCURVE",
"435 442 CURVE SMOOTH",
"418 442 LINE",
"419 428 LINE",
"428 514 OFFCURVE",
"480 564 OFFCURVE",
"552 564 CURVE SMOOTH",
"618 564 OFFCURVE",
"650 519 OFFCURVE",
"650 440 CURVE SMOOTH",
"650 346 OFFCURVE",
"607 278 OFFCURVE",
"522 278 CURVE SMOOTH",
"455 278 OFFCURVE",
"421 318 OFFCURVE",
"421 421 CURVE",
"411 440 LINE",
"431 518 LINE",
"479 629 OFFCURVE",
"581 717 OFFCURVE",
"702 754 CURVE",
"694 780 LINE",
"557 737 OFFCURVE",
"395 607 OFFCURVE",
"395 416 CURVE SMOOTH",
"395 309 OFFCURVE",
"445 253 OFFCURVE",
"515 253 CURVE SMOOTH",
"618 253 OFFCURVE",
"676 335 OFFCURVE",
"676 440 CURVE SMOOTH",
"676 517 OFFCURVE",
"644 589 OFFCURVE",
"554 589 CURVE SMOOTH",
"478 589 OFFCURVE",
"403 522 OFFCURVE",
"403 426 CURVE SMOOTH",
"403 417 LINE",
"440 417 LINE SMOOTH",
"605 417 OFFCURVE",
"675 360 OFFCURVE",
"675 234 CURVE SMOOTH",
"675 105 OFFCURVE",
"578 17 OFFCURVE",
"372 17 CURVE SMOOTH",
"167 17 OFFCURVE",
"71 107 OFFCURVE",
"71 237 CURVE SMOOTH",
"71 368 OFFCURVE",
"153 417 OFFCURVE",
"308 417 CURVE SMOOTH",
"352 417 LINE",
"352 424 LINE SMOOTH",
"352 523 OFFCURVE",
"278 589 OFFCURVE",
"188 589 CURVE SMOOTH",
"117 589 OFFCURVE",
"71 547 OFFCURVE",
"71 495 CURVE SMOOTH",
"71 465 OFFCURVE",
"79 444 OFFCURVE",
"92 421 CURVE",
"116 431 LINE",
"103 453 OFFCURVE",
"98 470 OFFCURVE",
"98 492 CURVE SMOOTH",
"98 526 OFFCURVE",
"120 564 OFFCURVE",
"189 564 CURVE SMOOTH",
"271 564 OFFCURVE",
"315 507 OFFCURVE",
"326 442 CURVE",
"333 442 LINE",
"298 442 LINE SMOOTH",
"130 442 OFFCURVE",
"44 372 OFFCURVE",
"44 237 CURVE SMOOTH",
"44 86 OFFCURVE",
"157 -10 OFFCURVE",
"372 -10 CURVE SMOOTH"
);
}
);
width = 746;
},
{
layerId = "32AB916E-052E-46AB-9DD5-C403DD480EC5";
paths = (
{
closed = 1;
nodes = (
"635 -10 OFFCURVE",
"761 84 OFFCURVE",
"761 244 CURVE SMOOTH",
"761 371 OFFCURVE",
"675 442 OFFCURVE",
"532 442 CURVE SMOOTH",
"450 442 LINE",
"492 424 LINE",
"501 495 OFFCURVE",
"535 530 OFFCURVE",
"582 530 CURVE SMOOTH",
"627 530 OFFCURVE",
"649 497 OFFCURVE",
"649 433 CURVE SMOOTH",
"649 342 OFFCURVE",
"612 300 OFFCURVE",
"559 300 CURVE SMOOTH",
"511 300 OFFCURVE",
"490 330 OFFCURVE",
"490 398 CURVE",
"444 440 LINE",
"505 540 LINE",
"552 622 OFFCURVE",
"648 658 OFFCURVE",
"758 683 CURVE",
"720 799 LINE",
"574 759 OFFCURVE",
"413 613 OFFCURVE",
"413 408 CURVE SMOOTH",
"413 283 OFFCURVE",
"463 232 OFFCURVE",
"554 232 CURVE SMOOTH",
"660 232 OFFCURVE",
"737 326 OFFCURVE",
"737 437 CURVE SMOOTH",
"737 517 OFFCURVE",
"704 598 OFFCURVE",
"598 598 CURVE SMOOTH",
"518 598 OFFCURVE",
"437 518 OFFCURVE",
"437 430 CURVE SMOOTH",
"437 374 LINE",
"518 374 LINE SMOOTH",
"601 374 OFFCURVE",
"660 360 OFFCURVE",
"660 296 CURVE SMOOTH",
"660 210 OFFCURVE",
"554 188 OFFCURVE",
"395 188 CURVE SMOOTH",
"231 188 OFFCURVE",
"135 214 OFFCURVE",
"135 294 CURVE SMOOTH",
"135 362 OFFCURVE",
"194 374 OFFCURVE",
"289 374 CURVE SMOOTH",
"388 374 LINE",
"388 405 LINE SMOOTH",
"388 520 OFFCURVE",
"318 598 OFFCURVE",
"208 598 CURVE SMOOTH",
"107 598 OFFCURVE",
"60 555 OFFCURVE",
"60 499 CURVE SMOOTH",
"60 466 OFFCURVE",
"70 442 OFFCURVE",
"87 427 CURVE",
"203 452 LINE",
"201 459 OFFCURVE",
"200 467 OFFCURVE",
"200 477 CURVE SMOOTH",
"200 498 OFFCURVE",
"210 515 OFFCURVE",
"238 515 CURVE SMOOTH",
"276 515 OFFCURVE",
"294 480 OFFCURVE",
"302 438 CURVE",
"310 442 LINE",
"273 442 LINE SMOOTH",
"117 442 OFFCURVE",
"32 373 OFFCURVE",
"32 244 CURVE SMOOTH",
"32 86 OFFCURVE",
"146 -10 OFFCURVE",
"395 -10 CURVE SMOOTH"
);
}
);
width = 793;
},
{
layerId = UUID0;
paths = (
{
closed = 1;
nodes = (
"612 -10 OFFCURVE",
"731 83 OFFCURVE",
"731 239 CURVE SMOOTH",
"731 366 OFFCURVE",
"647 442 OFFCURVE",
"468 442 CURVE SMOOTH",
"453 442 LINE",
"459 428 LINE",
"464 490 OFFCURVE",
"497 538 OFFCURVE",
"563 538 CURVE SMOOTH",
"621 538 OFFCURVE",
"650 501 OFFCURVE",
"650 433 CURVE SMOOTH",
"650 344 OFFCURVE",
"610 290 OFFCURVE",
"539 290 CURVE SMOOTH",
"485 290 OFFCURVE",
"458 320 OFFCURVE",
"458 403 CURVE",
"447 440 LINE",
"480 538 LINE",
"531 630 OFFCURVE",
"623 685 OFFCURVE",
"738 713 CURVE",
"715 787 LINE",
"573 748 OFFCURVE",
"405 607 OFFCURVE",
"405 406 CURVE SMOOTH",
"405 286 OFFCURVE",
"458 239 OFFCURVE",
"534 239 CURVE SMOOTH",
"652 239 OFFCURVE",
"706 335 OFFCURVE",
"706 437 CURVE SMOOTH",
"706 522 OFFCURVE",
"669 589 OFFCURVE",
"579 589 CURVE SMOOTH",
"505 589 OFFCURVE",
"437 524 OFFCURVE",
"437 430 CURVE SMOOTH",
"437 391 LINE",
"461 391 LINE SMOOTH",
"590 391 OFFCURVE",
"671 360 OFFCURVE",
"671 255 CURVE SMOOTH",
"671 151 OFFCURVE",
"574 95 OFFCURVE",
"385 95 CURVE SMOOTH",
"199 95 OFFCURVE",
"101 150 OFFCURVE",
"101 256 CURVE SMOOTH",
"101 360 OFFCURVE",
"184 391 OFFCURVE",
"311 391 CURVE SMOOTH",
"373 391 LINE",
"373 405 LINE SMOOTH",
"373 516 OFFCURVE",
"310 589 OFFCURVE",
"197 589 CURVE SMOOTH",
"125 589 OFFCURVE",
"69 555 OFFCURVE",
"69 490 CURVE SMOOTH",
"69 467 OFFCURVE",
"75 444 OFFCURVE",
"88 426 CURVE",
"160 444 LINE",
"156 457 OFFCURVE",
"154 470 OFFCURVE",
"154 481 CURVE SMOOTH",
"154 515 OFFCURVE",
"173 534 OFFCURVE",
"214 534 CURVE SMOOTH",
"280 534 OFFCURVE",
"309 487 OFFCURVE",
"317 437 CURVE",
"323 442 LINE",
"304 442 LINE SMOOTH",
"121 442 OFFCURVE",
"41 368 OFFCURVE",
"41 241 CURVE SMOOTH",
"41 83 OFFCURVE",
"160 -10 OFFCURVE",
"385 -10 CURVE SMOOTH"
);
}
);
width = 772;
}
);
rightKerningGroup = chasinh;
unicode = 0DA1;
},
{
glyphname = jasinh;
lastChange = "2016-08-23 15:05:55 +0000";
layers = (
{
layerId = "AF791F9F-5317-4D76-BDD4-1652E63983EA";
paths = (
{
closed = 1;
nodes = (
"595 -10 OFFCURVE",
"702 88 OFFCURVE",
"702 235 CURVE SMOOTH",
"702 363 OFFCURVE",
"630 442 OFFCURVE",
"434 442 CURVE SMOOTH",
"411 442 LINE",
"420 442 LINE",
"431 513 OFFCURVE",
"474 564 OFFCURVE",
"561 564 CURVE SMOOTH",
"617 564 OFFCURVE",
"647 535 OFFCURVE",
"647 492 CURVE SMOOTH",
"647 451 OFFCURVE",
"626 431 OFFCURVE",
"586 431 CURVE SMOOTH",
"545 431 OFFCURVE",
"514 456 OFFCURVE",
"514 531 CURVE SMOOTH",
"514 663 OFFCURVE",
"590 720 OFFCURVE",
"702 754 CURVE",
"694 780 LINE",
"557 737 OFFCURVE",
"489 650 OFFCURVE",
"489 533 CURVE SMOOTH",
"489 530 LINE SMOOTH",
"489 440 OFFCURVE",
"539 407 OFFCURVE",
"587 407 CURVE SMOOTH",
"645 407 OFFCURVE",
"674 440 OFFCURVE",
"674 491 CURVE SMOOTH",
"674 550 OFFCURVE",
"633 589 OFFCURVE",
"561 589 CURVE SMOOTH",
"463 589 OFFCURVE",
"394 520 OFFCURVE",
"394 424 CURVE SMOOTH",
"394 417 LINE",
"439 417 LINE SMOOTH",
"604 417 OFFCURVE",
"675 360 OFFCURVE",
"675 234 CURVE SMOOTH",
"675 105 OFFCURVE",
"578 17 OFFCURVE",
"372 17 CURVE SMOOTH",
"167 17 OFFCURVE",
"71 107 OFFCURVE",
"71 237 CURVE SMOOTH",
"71 368 OFFCURVE",
"153 417 OFFCURVE",
"308 417 CURVE SMOOTH",
"352 417 LINE",
"352 424 LINE SMOOTH",
"352 523 OFFCURVE",
"278 589 OFFCURVE",
"188 589 CURVE SMOOTH",
"117 589 OFFCURVE",
"71 547 OFFCURVE",
"71 495 CURVE SMOOTH",
"71 464 OFFCURVE",
"79 444 OFFCURVE",
"92 421 CURVE",
"116 431 LINE",
"103 453 OFFCURVE",
"98 470 OFFCURVE",
"98 492 CURVE SMOOTH",
"98 526 OFFCURVE",
"120 564 OFFCURVE",
"189 564 CURVE SMOOTH",
"271 564 OFFCURVE",
"315 507 OFFCURVE",
"326 442 CURVE",
"333 442 LINE",
"298 442 LINE SMOOTH",
"130 442 OFFCURVE",
"44 372 OFFCURVE",
"44 237 CURVE SMOOTH",
"44 86 OFFCURVE",
"157 -10 OFFCURVE",
"372 -10 CURVE SMOOTH"
);
}
);
width = 746;
},
{
layerId = "32AB916E-052E-46AB-9DD5-C403DD480EC5";
paths = (
{
closed = 1;
nodes = (
"635 -10 OFFCURVE",
"761 84 OFFCURVE",
"761 244 CURVE SMOOTH",
"761 371 OFFCURVE",
"675 442 OFFCURVE",
"533 442 CURVE SMOOTH",
"465 442 LINE",
"497 441 LINE",
"509 501 OFFCURVE",
"546 530 OFFCURVE",
"596 530 CURVE SMOOTH",
"641 530 OFFCURVE",
"653 505 OFFCURVE",
"653 481 CURVE SMOOTH",
"653 458 OFFCURVE",
"642 446 OFFCURVE",
"621 446 CURVE SMOOTH",
"589 446 OFFCURVE",
"578 468 OFFCURVE",
"578 506 CURVE SMOOTH",
"578 604 OFFCURVE",
"638 654 OFFCURVE",
"758 683 CURVE",
"720 799 LINE",
"592 764 OFFCURVE",
"508 660 OFFCURVE",
"508 534 CURVE SMOOTH",
"508 510 LINE SMOOTH",
"508 442 OFFCURVE",
"547 386 OFFCURVE",
"616 386 CURVE SMOOTH",
"695 386 OFFCURVE",
"735 420 OFFCURVE",
"735 486 CURVE SMOOTH",
"735 558 OFFCURVE",
"683 598 OFFCURVE",
"596 598 CURVE SMOOTH",
"480 598 OFFCURVE",
"414 508 OFFCURVE",
"414 400 CURVE SMOOTH",
"414 374 LINE",
"519 374 LINE SMOOTH",
"601 374 OFFCURVE",
"658 360 OFFCURVE",
"658 296 CURVE SMOOTH",
"658 210 OFFCURVE",
"554 188 OFFCURVE",
"395 188 CURVE SMOOTH",
"231 188 OFFCURVE",
"135 214 OFFCURVE",
"135 294 CURVE SMOOTH",
"135 362 OFFCURVE",
"194 374 OFFCURVE",
"289 374 CURVE SMOOTH",
"388 374 LINE",
"388 405 LINE SMOOTH",
"388 520 OFFCURVE",
"318 598 OFFCURVE",
"208 598 CURVE SMOOTH",
"107 598 OFFCURVE",
"60 555 OFFCURVE",
"60 499 CURVE SMOOTH",
"60 466 OFFCURVE",
"70 442 OFFCURVE",
"87 427 CURVE",
"203 452 LINE",
"201 459 OFFCURVE",
"200 467 OFFCURVE",
"200 477 CURVE SMOOTH",
"200 498 OFFCURVE",
"210 515 OFFCURVE",
"238 515 CURVE SMOOTH",
"276 515 OFFCURVE",
"294 480 OFFCURVE",
"302 438 CURVE",
"310 442 LINE",
"273 442 LINE SMOOTH",
"117 442 OFFCURVE",
"32 373 OFFCURVE",
"32 244 CURVE SMOOTH",
"32 86 OFFCURVE",
"146 -10 OFFCURVE",
"395 -10 CURVE SMOOTH"
);
}
);
width = 793;
},
{
layerId = UUID0;
paths = (
{
closed = 1;
nodes = (
"612 -10 OFFCURVE",
"731 83 OFFCURVE",
"731 239 CURVE SMOOTH",
"731 366 OFFCURVE",
"651 442 OFFCURVE",
"468 442 CURVE SMOOTH",
"453 442 LINE",
"459 440 LINE",
"468 500 OFFCURVE",
"511 541 OFFCURVE",
"580 541 CURVE SMOOTH",
"633 541 OFFCURVE",
"646 506 OFFCURVE",
"646 488 CURVE SMOOTH",
"646 454 OFFCURVE",
"628 442 OFFCURVE",
"600 442 CURVE SMOOTH",
"563 442 OFFCURVE",
"548 466 OFFCURVE",
"548 512 CURVE SMOOTH",
"548 641 OFFCURVE",
"624 684 OFFCURVE",
"738 713 CURVE",
"715 787 LINE",
"587 752 OFFCURVE",
"496 660 OFFCURVE",
"496 521 CURVE SMOOTH",
"496 510 LINE SMOOTH",
"496 452 OFFCURVE",
"528 400 OFFCURVE",
"599 400 CURVE SMOOTH",
"665 400 OFFCURVE",
"705 428 OFFCURVE",
"705 486 CURVE SMOOTH",
"705 549 OFFCURVE",
"661 589 OFFCURVE",
"579 589 CURVE SMOOTH",
"475 589 OFFCURVE",
"405 514 OFFCURVE",
"405 396 CURVE SMOOTH",
"405 391 LINE",
"461 391 LINE SMOOTH",
"590 391 OFFCURVE",
"671 360 OFFCURVE",
"671 255 CURVE SMOOTH",
"671 151 OFFCURVE",
"574 95 OFFCURVE",
"385 95 CURVE SMOOTH",
"199 95 OFFCURVE",
"101 150 OFFCURVE",
"101 256 CURVE SMOOTH",
"101 360 OFFCURVE",
"184 391 OFFCURVE",
"311 391 CURVE SMOOTH",
"373 391 LINE",
"373 405 LINE SMOOTH",
"373 516 OFFCURVE",
"310 589 OFFCURVE",
"197 589 CURVE SMOOTH",
"125 589 OFFCURVE",
"69 555 OFFCURVE",
"69 490 CURVE SMOOTH",
"69 467 OFFCURVE",
"75 444 OFFCURVE",
"88 426 CURVE",
"160 444 LINE",
"156 457 OFFCURVE",
"154 470 OFFCURVE",
"154 481 CURVE SMOOTH",
"154 515 OFFCURVE",
"173 534 OFFCURVE",
"214 534 CURVE SMOOTH",
"280 534 OFFCURVE",
"309 487 OFFCURVE",
"317 437 CURVE",
"323 442 LINE",
"304 442 LINE SMOOTH",
"121 442 OFFCURVE",
"41 368 OFFCURVE",
"41 241 CURVE SMOOTH",
"41 83 OFFCURVE",
"160 -10 OFFCURVE",
"385 -10 CURVE SMOOTH"
);
}
);
width = 772;
}
);
rightKerningGroup = pasinh;
unicode = 0DA2;
},
{
glyphname = jhasinh;
lastChange = "2016-08-23 15:05:55 +0000";
layers = (
{
layerId = "AF791F9F-5317-4D76-BDD4-1652E63983EA";
paths = (
{
closed = 1;
nodes = (
"618 -10 OFFCURVE",
"654 68 OFFCURVE",
"654 196 CURVE SMOOTH",
"654 347 OFFCURVE",
"566 442 OFFCURVE",
"392 442 CURVE SMOOTH",
"340 442 OFFCURVE",
"298 433 OFFCURVE",
"274 427 CURVE",
"245 400 LINE",
"282 409 OFFCURVE",
"326 417 OFFCURVE",
"382 417 CURVE SMOOTH",
"563 417 OFFCURVE",
"632 323 OFFCURVE",
"632 194 CURVE SMOOTH",
"632 61 OFFCURVE",
"583 17 OFFCURVE",
"510 17 CURVE SMOOTH",
"455 17 OFFCURVE",
"386 48 OFFCURVE",
"381 159 CURVE",
"357 159 LINE",
"352 61 OFFCURVE",
"298 17 OFFCURVE",
"231 17 CURVE SMOOTH",
"166 17 OFFCURVE",
"122 51 OFFCURVE",
"122 151 CURVE SMOOTH",
"122 164 OFFCURVE",
"123 176 OFFCURVE",
"126 188 CURVE",
"54 196 LINE",
"43 194 LINE",
"40 173 LINE",
"112 165 LINE",
"102 190 LINE",
"99 180 OFFCURVE",
"96 164 OFFCURVE",
"96 153 CURVE SMOOTH",
"96 66 OFFCURVE",
"132 -10 OFFCURVE",
"228 -10 CURVE SMOOTH",
"306 -10 OFFCURVE",
"351 35 OFFCURVE",
"369 105 CURVE",
"381 32 OFFCURVE",
"436 -10 OFFCURVE",
"511 -10 CURVE SMOOTH"
);
},
{
closed = 1;
nodes = (
"454 589 OFFCURVE",
"304 492 OFFCURVE",
"19 191 CURVE",
"40 173 LINE",
"133 281 OFFCURVE",
"220 364 OFFCURVE",
"293 417 CURVE",
"305 431 LINE",
"395 498 OFFCURVE",
"492 564 OFFCURVE",
"639 564 CURVE SMOOTH",
"753 564 OFFCURVE",
"842 534 OFFCURVE",
"953 481 CURVE",
"969 495 LINE",
"866 551 OFFCURVE",
"763 589 OFFCURVE",
"642 589 CURVE SMOOTH"
);
},
{
closed = 1;
nodes = (
"92 571 OFFCURVE",
"45 530 OFFCURVE",
"45 462 CURVE SMOOTH",
"45 424 OFFCURVE",
"54 397 OFFCURVE",
"67 369 CURVE",
"92 377 LINE",
"81 402 OFFCURVE",
"73 422 OFFCURVE",
"73 464 CURVE SMOOTH",
"73 505 OFFCURVE",
"100 546 OFFCURVE",
"154 546 CURVE SMOOTH",
"210 546 OFFCURVE",
"249 502 OFFCURVE",
"277 421 CURVE",
"299 435 LINE",
"270 503 OFFCURVE",
"234 571 OFFCURVE",
"156 571 CURVE SMOOTH"
);
},
{
closed = 1;
nodes = (
"1268 -10 OFFCURVE",
"1333 97 OFFCURVE",
"1333 346 CURVE SMOOTH",
"1333 610 OFFCURVE",
"1224 804 OFFCURVE",
"947 804 CURVE SMOOTH",
"814 804 OFFCURVE",
"738 768 OFFCURVE",
"640 708 CURVE",
"656 685 LINE",
"745 748 OFFCURVE",
"834 779 OFFCURVE",
"947 779 CURVE SMOOTH",
"1205 779 OFFCURVE",
"1306 595 OFFCURVE",
"1306 348 CURVE SMOOTH",
"1306 122 OFFCURVE",
"1255 17 OFFCURVE",
"1133 17 CURVE SMOOTH",
"1031 17 OFFCURVE",
"988 89 OFFCURVE",
"976 169 CURVE",
"952 169 LINE",
"932 96 OFFCURVE",
"902 17 OFFCURVE",
"798 17 CURVE SMOOTH",
"704 17 OFFCURVE",
"657 87 OFFCURVE",
"657 226 CURVE SMOOTH",
"657 394 OFFCURVE",
"755 479 OFFCURVE",
"893 479 CURVE SMOOTH",
"915 479 OFFCURVE",
"942 477 OFFCURVE",
"960 473 CURVE",
"969 495 LINE",
"944 498 OFFCURVE",
"920 502 OFFCURVE",
"893 502 CURVE SMOOTH",
"747 502 OFFCURVE",
"634 424 OFFCURVE",
"634 226 CURVE SMOOTH",
"634 54 OFFCURVE",
"702 -10 OFFCURVE",
"795 -10 CURVE SMOOTH",
"891 -10 OFFCURVE",
"939 52 OFFCURVE",
"963 124 CURVE",
"988 42 OFFCURVE",
"1039 -10 OFFCURVE",
"1134 -10 CURVE SMOOTH"
);
}
);
width = 1380;
},
{
layerId = "32AB916E-052E-46AB-9DD5-C403DD480EC5";
paths = (
{
closed = 1;
nodes = (
"655 -10 OFFCURVE",
"702 82 OFFCURVE",
"702 211 CURVE SMOOTH",
"702 377 OFFCURVE",
"616 442 OFFCURVE",
"449 442 CURVE SMOOTH",
"385 442 OFFCURVE",
"316 431 OFFCURVE",
"278 419 CURVE",
"264 369 LINE",
"300 372 OFFCURVE",
"346 374 OFFCURVE",
"424 374 CURVE SMOOTH",
"586 374 OFFCURVE",
"618 320 OFFCURVE",
"618 261 CURVE SMOOTH",
"618 204 OFFCURVE",
"585 180 OFFCURVE",
"533 180 CURVE SMOOTH",
"481 180 OFFCURVE",
"451 200 OFFCURVE",
"440 253 CURVE",
"367 253 LINE",
"353 213 OFFCURVE",
"335 180 OFFCURVE",
"274 180 CURVE SMOOTH",
"229 180 OFFCURVE",
"199 195 OFFCURVE",
"199 242 CURVE SMOOTH",
"199 248 OFFCURVE",
"199 251 OFFCURVE",
"200 257 CURVE",
"140 260 LINE",
"89 216 LINE",
"72 162 LINE",
"157 156 LINE",
"122 207 LINE",
"117 189 OFFCURVE",
"119 178 OFFCURVE",
"119 161 CURVE SMOOTH",
"119 68 OFFCURVE",
"166 -10 OFFCURVE",
"259 -10 CURVE SMOOTH",
"351 -10 OFFCURVE",
"387 50 OFFCURVE",
"409 117 CURVE",
"429 41 OFFCURVE",
"472 -10 OFFCURVE",
"556 -10 CURVE SMOOTH"
);
},
{
closed = 1;
nodes = (
"449 598 OFFCURVE",
"315 510 OFFCURVE",
"12 213 CURVE",
"72 162 LINE",
"175 275 OFFCURVE",
"261 348 OFFCURVE",
"329 396 CURVE",
"367 422 LINE",
"467 496 OFFCURVE",
"559 522 OFFCURVE",
"664 522 CURVE SMOOTH",
"769 522 OFFCURVE",
"848 498 OFFCURVE",
"907 468 CURVE",
"1010 509 LINE",
"900 561 OFFCURVE",
"793 598 OFFCURVE",
"663 598 CURVE SMOOTH"
);
},
{
closed = 1;
nodes = (
"92 578 OFFCURVE",
"28 542 OFFCURVE",
"28 458 CURVE SMOOTH",
"28 423 OFFCURVE",
"41 393 OFFCURVE",
"55 369 CURVE",
"181 402 LINE",
"175 418 OFFCURVE",
"170 433 OFFCURVE",
"170 457 CURVE SMOOTH",
"170 480 OFFCURVE",
"182 495 OFFCURVE",
"206 495 CURVE SMOOTH",
"238 495 OFFCURVE",
"255 459 OFFCURVE",
"266 419 CURVE",
"344 438 LINE",
"327 504 OFFCURVE",
"287 578 OFFCURVE",
"172 578 CURVE SMOOTH"
);
},
{
closed = 1;
nodes = (
"1302 -10 OFFCURVE",
"1418 75 OFFCURVE",
"1418 345 CURVE SMOOTH",
"1418 654 OFFCURVE",
"1244 804 OFFCURVE",
"985 804 CURVE SMOOTH",
"836 804 OFFCURVE",
"729 753 OFFCURVE",
"629 694 CURVE",
"671 625 LINE",
"756 685 OFFCURVE",
"861 731 OFFCURVE",
"986 731 CURVE SMOOTH",
"1198 731 OFFCURVE",
"1314 607 OFFCURVE",
"1314 381 CURVE SMOOTH",
"1314 222 OFFCURVE",
"1247 182 OFFCURVE",
"1167 182 CURVE SMOOTH",
"1088 182 OFFCURVE",
"1052 222 OFFCURVE",
"1036 268 CURVE",
"963 268 LINE",
"940 210 OFFCURVE",
"897 182 OFFCURVE",
"826 182 CURVE SMOOTH",
"755 182 OFFCURVE",
"717 219 OFFCURVE",
"717 297 CURVE SMOOTH",
"717 374 OFFCURVE",
"783 437 OFFCURVE",
"887 437 CURVE SMOOTH",
"934 437 OFFCURVE",
"964 433 OFFCURVE",
"986 426 CURVE",
"1010 509 LINE",
"974 509 OFFCURVE",
"935 502 OFFCURVE",
"899 500 CURVE",
"692 500 OFFCURVE",
"623 397 OFFCURVE",
"623 233 CURVE SMOOTH",
"623 115 OFFCURVE",
"672 -10 OFFCURVE",
"809 -10 CURVE SMOOTH",
"922 -10 OFFCURVE",
"976 65 OFFCURVE",
"999 135 CURVE",
"1026 48 OFFCURVE",
"1082 -10 OFFCURVE",
"1186 -10 CURVE SMOOTH"
);
}
);
width = 1454;
},
{
layerId = UUID0;
paths = (
{
closed = 1;
nodes = (
"628 -10 OFFCURVE",
"675 68 OFFCURVE",
"675 206 CURVE SMOOTH",
"675 353 OFFCURVE",
"589 442 OFFCURVE",
"404 442 CURVE SMOOTH",
"354 442 OFFCURVE",
"294 431 OFFCURVE",
"264 424 CURVE",
"253 384 LINE",
"281 388 OFFCURVE",
"321 391 OFFCURVE",
"394 391 CURVE SMOOTH",
"572 391 OFFCURVE",
"629 295 OFFCURVE",
"629 207 CURVE SMOOTH",
"629 130 OFFCURVE",
"595 95 OFFCURVE",
"523 95 CURVE SMOOTH",
"458 95 OFFCURVE",
"410 120 OFFCURVE",
"406 200 CURVE",
"355 200 LINE",
"355 134 OFFCURVE",
"320 95 OFFCURVE",
"247 95 CURVE SMOOTH",
"191 95 OFFCURVE",
"156 118 OFFCURVE",
"156 187 CURVE SMOOTH",
"156 197 OFFCURVE",
"157 206 OFFCURVE",
"160 214 CURVE",
"90 220 LINE",
"72 211 LINE",
"60 167 LINE",
"135 157 LINE",
"110 207 LINE",
"105 189 OFFCURVE",
"103 176 OFFCURVE",
"103 153 CURVE SMOOTH",
"103 66 OFFCURVE",
"149 -10 OFFCURVE",
"238 -10 CURVE SMOOTH",
"321 -10 OFFCURVE",
"360 42 OFFCURVE",
"382 109 CURVE",
"399 31 OFFCURVE",
"455 -10 OFFCURVE",
"523 -10 CURVE SMOOTH"
);
},
{
closed = 1;
nodes = (
"444 589 OFFCURVE",
"310 504 OFFCURVE",
"17 201 CURVE",
"60 167 LINE",
"161 277 OFFCURVE",
"242 355 OFFCURVE",
"315 408 CURVE",
"341 429 LINE",
"443 503 OFFCURVE",
"531 535 OFFCURVE",
"642 535 CURVE SMOOTH",
"746 535 OFFCURVE",
"824 512 OFFCURVE",
"916 467 CURVE",
"993 490 LINE",
"888 545 OFFCURVE",
"776 589 OFFCURVE",
"644 589 CURVE SMOOTH"
);
},
{
closed = 1;
nodes = (
"90 571 OFFCURVE",
"34 530 OFFCURVE",
"34 448 CURVE SMOOTH",
"34 420 OFFCURVE",
"44 387 OFFCURVE",
"57 367 CURVE",
"133 386 LINE",
"126 401 OFFCURVE",
"119 422 OFFCURVE",
"119 450 CURVE SMOOTH",
"119 478 OFFCURVE",
"131 514 OFFCURVE",
"173 514 CURVE SMOOTH",
"217 514 OFFCURVE",
"244 480 OFFCURVE",
"267 419 CURVE",
"316 439 LINE",
"291 507 OFFCURVE",
"244 571 OFFCURVE",
"163 571 CURVE SMOOTH"
);
},
{
closed = 1;
nodes = (
"1283 -10 OFFCURVE",
"1375 78 OFFCURVE",
"1375 345 CURVE SMOOTH",
"1375 656 OFFCURVE",
"1217 804 OFFCURVE",
"967 804 CURVE SMOOTH",
"823 804 OFFCURVE",
"725 760 OFFCURVE",
"635 699 CURVE",
"669 653 LINE",
"762 722 OFFCURVE",
"861 752 OFFCURVE",
"967 752 CURVE SMOOTH",
"1197 752 OFFCURVE",
"1312 607 OFFCURVE",
"1312 361 CURVE SMOOTH",
"1312 150 OFFCURVE",
"1237 95 OFFCURVE",
"1151 95 CURVE SMOOTH",
"1077 95 OFFCURVE",
"1017 131 OFFCURVE",
"1010 204 CURVE",
"957 204 LINE",
"942 147 OFFCURVE",
"908 95 OFFCURVE",
"820 95 CURVE SMOOTH",
"734 95 OFFCURVE",
"684 140 OFFCURVE",
"684 245 CURVE SMOOTH",
"684 378 OFFCURVE",
"760 451 OFFCURVE",
"888 451 CURVE SMOOTH",
"920 451 OFFCURVE",
"950 447 OFFCURVE",
"977 442 CURVE",
"993 490 LINE",
"967 496 OFFCURVE",
"922 498 OFFCURVE",
"900 498 CURVE SMOOTH",
"740 498 OFFCURVE",
"630 419 OFFCURVE",
"630 242 CURVE SMOOTH",
"630 79 OFFCURVE",
"691 -10 OFFCURVE",
"810 -10 CURVE SMOOTH",
"906 -10 OFFCURVE",
"960 59 OFFCURVE",
"983 129 CURVE",
"1012 44 OFFCURVE",
"1064 -10 OFFCURVE",
"1165 -10 CURVE SMOOTH"
);
}
);
width = 1420;
}
);
rightKerningGroup = ngasinh;
unicode = 0DA3;
},
{
glyphname = nyasinh;
lastChange = "2016-08-23 15:05:55 +0000";
layers = (
{
layerId = "AF791F9F-5317-4D76-BDD4-1652E63983EA";
paths = (
{
closed = 1;
nodes = (
"743 -10 OFFCURVE",
"779 68 OFFCURVE",
"779 196 CURVE SMOOTH",
"779 347 OFFCURVE",
"691 442 OFFCURVE",
"517 442 CURVE SMOOTH",
"465 442 OFFCURVE",
"423 433 OFFCURVE",
"399 427 CURVE",
"370 400 LINE",
"407 409 OFFCURVE",
"451 417 OFFCURVE",
"507 417 CURVE SMOOTH",
"688 417 OFFCURVE",
"757 323 OFFCURVE",
"757 194 CURVE SMOOTH",
"757 61 OFFCURVE",
"708 17 OFFCURVE",
"635 17 CURVE SMOOTH",
"580 17 OFFCURVE",
"511 48 OFFCURVE",
"506 159 CURVE",
"482 159 LINE",
"477 61 OFFCURVE",
"423 17 OFFCURVE",
"356 17 CURVE SMOOTH",
"291 17 OFFCURVE",
"247 51 OFFCURVE",
"247 151 CURVE SMOOTH",
"247 164 OFFCURVE",
"248 176 OFFCURVE",
"251 188 CURVE",
"179 196 LINE",
"168 194 LINE",
"165 173 LINE",
"237 165 LINE",
"227 190 LINE",
"224 180 OFFCURVE",
"221 164 OFFCURVE",
"221 153 CURVE SMOOTH",
"221 66 OFFCURVE",
"257 -10 OFFCURVE",
"353 -10 CURVE SMOOTH",
"431 -10 OFFCURVE",
"476 35 OFFCURVE",
"494 105 CURVE",
"506 32 OFFCURVE",
"561 -10 OFFCURVE",
"636 -10 CURVE SMOOTH"
);
},
{
closed = 1;
nodes = (
"577 589 OFFCURVE",
"429 492 OFFCURVE",
"144 191 CURVE",
"165 173 LINE",
"258 281 OFFCURVE",
"345 364 OFFCURVE",
"418 417 CURVE",
"430 431 LINE",
"520 498 OFFCURVE",
"617 564 OFFCURVE",
"764 564 CURVE SMOOTH",
"818 564 OFFCURVE",
"864 558 OFFCURVE",
"913 543 CURVE",
"935 563 LINE",
"881 581 OFFCURVE",
"827 589 OFFCURVE",
"763 589 CURVE SMOOTH"
);
},
{
closed = 1;
nodes = (
"224 571 OFFCURVE",
"170 526 OFFCURVE",
"170 462 CURVE SMOOTH",
"170 424 OFFCURVE",
"179 397 OFFCURVE",
"192 369 CURVE",
"217 377 LINE",
"206 402 OFFCURVE",
"198 422 OFFCURVE",
"198 464 CURVE SMOOTH",
"198 505 OFFCURVE",
"225 546 OFFCURVE",
"279 546 CURVE SMOOTH",
"335 546 OFFCURVE",
"374 502 OFFCURVE",
"402 421 CURVE",
"424 435 LINE",
"395 503 OFFCURVE",
"359 571 OFFCURVE",
"281 571 CURVE SMOOTH"
);
},
{
closed = 1;
nodes = (
"1069 -10 OFFCURVE",
"1133 5 OFFCURVE",
"1188 31 CURVE",
"1177 55 LINE",
"1116 26 OFFCURVE",
"1084 16 OFFCURVE",
"1010 16 CURVE SMOOTH",
"858 16 OFFCURVE",
"782 85 OFFCURVE",
"782 213 CURVE SMOOTH",
"782 350 OFFCURVE",
"890 417 OFFCURVE",
"1078 417 CURVE SMOOTH",
"1159 417 LINE",
"1159 424 LINE SMOOTH",
"1159 523 OFFCURVE",
"1085 589 OFFCURVE",
"995 589 CURVE SMOOTH",
"922 589 OFFCURVE",
"878 543 OFFCURVE",
"878 495 CURVE SMOOTH",
"878 474 OFFCURVE",
"883 451 OFFCURVE",
"892 436 CURVE",
"916 444 LINE",
"908 459 OFFCURVE",
"905 475 OFFCURVE",
"905 492 CURVE SMOOTH",
"905 526 OFFCURVE",
"927 564 OFFCURVE",
"996 564 CURVE SMOOTH",
"1078 564 OFFCURVE",
"1122 507 OFFCURVE",
"1133 442 CURVE",
"1081 442 LINE SMOOTH",
"880 442 OFFCURVE",
"760 373 OFFCURVE",
"760 213 CURVE SMOOTH",
"760 74 OFFCURVE",
"835 -10 OFFCURVE",
"1004 -10 CURVE SMOOTH"
);
},
{
closed = 1;
nodes = (
"1161 -284 OFFCURVE",
"1205 -265 OFFCURVE",
"1242 -236 CURVE",
"1229 -215 LINE",
"1192 -244 OFFCURVE",
"1160 -259 OFFCURVE",
"1103 -259 CURVE SMOOTH",
"1044 -259 OFFCURVE",
"988 -229 OFFCURVE",
"988 -152 CURVE SMOOTH",
"988 -85 OFFCURVE",
"1032 -35 OFFCURVE",
"1104 4 CURVE",
"1059 -1 LINE",
"1001 -37 OFFCURVE",
"961 -82 OFFCURVE",
"961 -151 CURVE SMOOTH",
"961 -229 OFFCURVE",
"1012 -284 OFFCURVE",
"1102 -284 CURVE SMOOTH"
);
},
{
closed = 1;
nodes = (
"44 214 OFFCURVE",
"83 141 OFFCURVE",
"146 60 CURVE",
"167 75 LINE",
"101 158 OFFCURVE",
"71 224 OFFCURVE",
"71 320 CURVE SMOOTH",
"71 451 OFFCURVE",
"155 539 OFFCURVE",
"273 549 CURVE",
"272 570 LINE",
"151 564 OFFCURVE",
"44 476 OFFCURVE",
"44 322 CURVE SMOOTH"
);
}
);
width = 1189;
},
{
layerId = "32AB916E-052E-46AB-9DD5-C403DD480EC5";
paths = (
{
closed = 1;
nodes = (
"805 -10 OFFCURVE",
"852 82 OFFCURVE",
"852 211 CURVE SMOOTH",
"852 377 OFFCURVE",
"766 442 OFFCURVE",
"599 442 CURVE SMOOTH",
"535 442 OFFCURVE",
"466 431 OFFCURVE",
"428 419 CURVE",
"414 369 LINE",
"450 372 OFFCURVE",
"496 374 OFFCURVE",
"574 374 CURVE SMOOTH",
"736 374 OFFCURVE",
"768 320 OFFCURVE",
"768 261 CURVE SMOOTH",
"768 204 OFFCURVE",
"735 180 OFFCURVE",
"683 180 CURVE SMOOTH",
"631 180 OFFCURVE",
"601 200 OFFCURVE",
"590 253 CURVE",
"517 253 LINE",
"503 213 OFFCURVE",
"485 180 OFFCURVE",
"424 180 CURVE SMOOTH",
"379 180 OFFCURVE",
"349 195 OFFCURVE",
"349 242 CURVE SMOOTH",
"349 248 OFFCURVE",
"349 251 OFFCURVE",
"350 257 CURVE",
"290 260 LINE",
"239 216 LINE",
"222 162 LINE",
"307 156 LINE",
"272 207 LINE",
"267 189 OFFCURVE",
"269 178 OFFCURVE",
"269 161 CURVE SMOOTH",
"269 68 OFFCURVE",
"316 -10 OFFCURVE",
"409 -10 CURVE SMOOTH",
"501 -10 OFFCURVE",
"537 50 OFFCURVE",
"559 117 CURVE",
"579 41 OFFCURVE",
"622 -10 OFFCURVE",
"706 -10 CURVE SMOOTH"
);
},
{
closed = 1;
nodes = (
"599 598 OFFCURVE",
"465 510 OFFCURVE",
"162 213 CURVE",
"222 162 LINE",
"325 275 OFFCURVE",
"411 348 OFFCURVE",
"479 396 CURVE SMOOTH",
"517 422 LINE",
"623 498 OFFCURVE",
"701 524 OFFCURVE",
"814 524 CURVE SMOOTH",
"879 524 OFFCURVE",
"935 510 OFFCURVE",
"983 492 CURVE",
"1029 566 LINE",
"963 587 OFFCURVE",
"893 598 OFFCURVE",
"813 598 CURVE SMOOTH"
);
},
{
closed = 1;
nodes = (
"242 578 OFFCURVE",
"181 540 OFFCURVE",
"181 458 CURVE SMOOTH",
"181 423 OFFCURVE",
"191 393 OFFCURVE",
"205 369 CURVE",
"331 402 LINE",
"325 418 OFFCURVE",
"320 433 OFFCURVE",
"320 457 CURVE SMOOTH",
"320 480 OFFCURVE",
"332 495 OFFCURVE",
"356 495 CURVE SMOOTH",
"388 495 OFFCURVE",
"405 459 OFFCURVE",
"416 419 CURVE",
"494 438 LINE",
"477 504 OFFCURVE",
"437 578 OFFCURVE",
"322 578 CURVE SMOOTH"
);
},
{
closed = 1;
nodes = (
"1147 -10 OFFCURVE",
"1227 8 OFFCURVE",
"1284 40 CURVE",
"1255 111 LINE",
"1199 81 OFFCURVE",
"1157 74 OFFCURVE",
"1097 74 CURVE SMOOTH",
"1013 74 OFFCURVE",
"939 121 OFFCURVE",
"939 218 CURVE SMOOTH",
"939 318 OFFCURVE",
"997 374 OFFCURVE",
"1161 374 CURVE SMOOTH",
"1253 374 LINE",
"1253 396 LINE SMOOTH",
"1253 519 OFFCURVE",
"1183 598 OFFCURVE",
"1074 598 CURVE SMOOTH",
"974 598 OFFCURVE",
"926 555 OFFCURVE",
"926 499 CURVE SMOOTH",
"926 479 OFFCURVE",
"930 459 OFFCURVE",
"938 445 CURVE",
"1068 458 LINE",
"1067 464 OFFCURVE",
"1066 471 OFFCURVE",
"1066 478 CURVE SMOOTH",
"1066 498 OFFCURVE",
"1076 515 OFFCURVE",
"1104 515 CURVE SMOOTH",
"1143 515 OFFCURVE",
"1158 481 OFFCURVE",
"1167 442 CURVE",
"1128 442 LINE SMOOTH",
"887 442 OFFCURVE",
"772 378 OFFCURVE",
"772 214 CURVE SMOOTH",
"772 71 OFFCURVE",
"851 -10 OFFCURVE",
"1060 -10 CURVE SMOOTH"
);
},
{
closed = 1;
nodes = (
"1226 -286 OFFCURVE",
"1278 -273 OFFCURVE",
"1333 -241 CURVE",
"1296 -176 LINE",
"1264 -197 OFFCURVE",
"1237 -204 OFFCURVE",
"1207 -204 CURVE SMOOTH",
"1151 -204 OFFCURVE",
"1115 -174 OFFCURVE",
"1115 -119 CURVE SMOOTH",
"1115 -63 OFFCURVE",
"1142 -30 OFFCURVE",
"1229 26 CURVE",
"1115 10 LINE",
"1037 -18 OFFCURVE",
"980 -63 OFFCURVE",
"980 -143 CURVE SMOOTH",
"980 -230 OFFCURVE",
"1048 -286 OFFCURVE",
"1163 -286 CURVE SMOOTH"
);
},
{
closed = 1;
nodes = (
"32 198 OFFCURVE",
"81 116 OFFCURVE",
"142 44 CURVE",
"212 92 LINE",
"155 159 OFFCURVE",
"120 217 OFFCURVE",
"120 316 CURVE SMOOTH",
"120 444 OFFCURVE",
"221 511 OFFCURVE",
"309 521 CURVE",
"311 576 LINE",
"167 576 OFFCURVE",
"32 485 OFFCURVE",
"32 315 CURVE SMOOTH"
);
}
);
width = 1284;
},
{
layerId = UUID0;
paths = (
{
closed = 1;
nodes = (
"779 -10 OFFCURVE",
"826 68 OFFCURVE",
"826 206 CURVE SMOOTH",
"826 353 OFFCURVE",
"740 442 OFFCURVE",
"555 442 CURVE SMOOTH",
"505 442 OFFCURVE",
"445 431 OFFCURVE",
"415 424 CURVE",
"404 384 LINE",
"432 388 OFFCURVE",
"472 391 OFFCURVE",
"545 391 CURVE SMOOTH",
"723 391 OFFCURVE",
"780 295 OFFCURVE",
"780 207 CURVE SMOOTH",
"780 130 OFFCURVE",
"746 95 OFFCURVE",
"674 95 CURVE SMOOTH",
"609 95 OFFCURVE",
"561 120 OFFCURVE",
"557 200 CURVE",
"506 200 LINE",
"506 134 OFFCURVE",
"471 95 OFFCURVE",
"398 95 CURVE SMOOTH",
"342 95 OFFCURVE",
"307 118 OFFCURVE",
"307 187 CURVE SMOOTH",
"307 197 OFFCURVE",
"308 206 OFFCURVE",
"311 214 CURVE",
"241 220 LINE",
"223 211 LINE",
"211 167 LINE",
"286 157 LINE",
"261 207 LINE",
"256 189 OFFCURVE",
"254 176 OFFCURVE",
"254 153 CURVE SMOOTH",
"254 66 OFFCURVE",
"300 -10 OFFCURVE",
"389 -10 CURVE SMOOTH",
"472 -10 OFFCURVE",
"511 42 OFFCURVE",
"533 109 CURVE",
"550 31 OFFCURVE",
"606 -10 OFFCURVE",
"674 -10 CURVE SMOOTH"
);
},
{
closed = 1;
nodes = (
"595 589 OFFCURVE",
"461 504 OFFCURVE",
"168 201 CURVE",
"211 167 LINE",
"312 277 OFFCURVE",
"393 355 OFFCURVE",
"466 408 CURVE",
"492 429 LINE",
"594 503 OFFCURVE",
"684 537 OFFCURVE",
"793 537 CURVE SMOOTH",
"862 537 OFFCURVE",
"914 527 OFFCURVE",
"973 505 CURVE",
"1003 557 LINE",
"938 578 OFFCURVE",
"875 589 OFFCURVE",
"795 589 CURVE SMOOTH"
);
},
{
closed = 1;
nodes = (
"248 571 OFFCURVE",
"187 516 OFFCURVE",
"187 448 CURVE SMOOTH",
"187 424 OFFCURVE",
"195 387 OFFCURVE",
"208 367 CURVE",
"284 386 LINE",
"277 401 OFFCURVE",
"270 422 OFFCURVE",
"270 450 CURVE SMOOTH",
"270 478 OFFCURVE",
"282 514 OFFCURVE",
"324 514 CURVE SMOOTH",
"368 514 OFFCURVE",
"395 480 OFFCURVE",
"418 419 CURVE",
"467 439 LINE",
"442 507 OFFCURVE",
"395 571 OFFCURVE",
"314 571 CURVE SMOOTH"
);
},
{
closed = 1;
nodes = (
"1116 -10 OFFCURVE",
"1200 6 OFFCURVE",
"1253 36 CURVE",
"1233 88 LINE",
"1163 55 OFFCURVE",
"1132 48 OFFCURVE",
"1067 48 CURVE SMOOTH",
"940 48 OFFCURVE",
"869 123 OFFCURVE",
"869 217 CURVE SMOOTH",
"869 344 OFFCURVE",
"947 391 OFFCURVE",
"1111 391 CURVE SMOOTH",
"1220 391 LINE",
"1220 405 LINE SMOOTH",
"1220 518 OFFCURVE",
"1160 589 OFFCURVE",
"1042 589 CURVE SMOOTH",
"970 589 OFFCURVE",
"916 555 OFFCURVE",
"916 490 CURVE SMOOTH",
"916 466 OFFCURVE",
"922 453 OFFCURVE",
"927 442 CURVE",
"1005 452 LINE",
"1003 458 OFFCURVE",
"1001 471 OFFCURVE",
"1001 481 CURVE SMOOTH",
"1001 506 OFFCURVE",
"1012 534 OFFCURVE",
"1057 534 CURVE SMOOTH",
"1128 534 OFFCURVE",
"1156 492 OFFCURVE",
"1164 442 CURVE",
"1118 442 LINE SMOOTH",
"940 442 OFFCURVE",
"782 403 OFFCURVE",
"782 216 CURVE SMOOTH",
"782 74 OFFCURVE",
"880 -10 OFFCURVE",
"1044 -10 CURVE SMOOTH"
);
},
{
closed = 1;
nodes = (
"1214 -284 OFFCURVE",
"1268 -259 OFFCURVE",
"1304 -230 CURVE",
"1278 -187 LINE",
"1241 -214 OFFCURVE",
"1212 -228 OFFCURVE",
"1167 -228 CURVE SMOOTH",
"1112 -228 OFFCURVE",
"1067 -198 OFFCURVE",
"1067 -133 CURVE SMOOTH",
"1067 -76 OFFCURVE",
"1099 -32 OFFCURVE",
"1185 19 CURVE",
"1110 11 LINE",
"1031 -27 OFFCURVE",
"986 -76 OFFCURVE",
"986 -143 CURVE SMOOTH",
"986 -225 OFFCURVE",
"1031 -284 OFFCURVE",
"1148 -284 CURVE SMOOTH"
);
},
{
closed = 1;
nodes = (
"40 210 OFFCURVE",
"87 127 OFFCURVE",
"150 51 CURVE",
"194 83 LINE",
"137 152 OFFCURVE",
"100 214 OFFCURVE",
"100 314 CURVE SMOOTH",
"100 452 OFFCURVE",
"198 526 OFFCURVE",
"298 530 CURVE",
"292 569 LINE",
"171 569 OFFCURVE",
"40 482 OFFCURVE",
"40 316 CURVE SMOOTH"
);
}
);
width = 1253;
}
);
rightKerningGroup = dasinh;
unicode = 0DA4;
},
{
glyphname = jnyasinh;
lastChange = "2016-08-23 15:05:55 +0000";
layers = (
{
layerId = "AF791F9F-5317-4D76-BDD4-1652E63983EA";
paths = (
{
closed = 1;
nodes = (
"814 578 LINE",
"792 585 OFFCURVE",
"759 589 OFFCURVE",
"740 589 CURVE SMOOTH",
"606 589 OFFCURVE",
"508 491 OFFCURVE",
"475 293 CURVE",
"495 288 LINE",
"504 291 OFFCURVE",
"519 293 OFFCURVE",
"536 293 CURVE SMOOTH",
"583 293 OFFCURVE",
"613 260 OFFCURVE",
"613 189 CURVE SMOOTH",
"613 91 OFFCURVE",
"560 17 OFFCURVE",
"423 17 CURVE SMOOTH",
"265 17 OFFCURVE",
"211 133 OFFCURVE",
"211 268 CURVE SMOOTH",
"211 447 OFFCURVE",
"338 524 OFFCURVE",
"452 524 CURVE SMOOTH",
"467 524 OFFCURVE",
"481 524 OFFCURVE",
"494 523 CURVE",
"504 556 LINE",
"496 543 LINE",
"478 547 OFFCURVE",
"468 548 OFFCURVE",
"453 548 CURVE SMOOTH",
"324 548 OFFCURVE",
"184 463 OFFCURVE",
"184 269 CURVE SMOOTH",
"184 104 OFFCURVE",
"260 -10 OFFCURVE",
"418 -10 CURVE SMOOTH",
"583 -10 OFFCURVE",
"635 82 OFFCURVE",
"635 183 CURVE SMOOTH",
"635 259 OFFCURVE",
"610 318 OFFCURVE",
"536 318 CURVE SMOOTH",
"519 318 OFFCURVE",
"507 316 OFFCURVE",
"495 312 CURVE",
"504 307 LINE",
"535 468 OFFCURVE",
"618 564 OFFCURVE",
"740 564 CURVE SMOOTH",
"760 564 OFFCURVE",
"778 562 OFFCURVE",
"795 558 CURVE"
);
},
{
closed = 1;
nodes = (
"44 201 OFFCURVE",
"83 120 OFFCURVE",
"140 34 CURVE",
"164 48 LINE",
"107 129 OFFCURVE",
"71 208 OFFCURVE",
"71 312 CURVE SMOOTH",
"71 451 OFFCURVE",
"144 564 OFFCURVE",
"324 564 CURVE SMOOTH",
"396 564 OFFCURVE",
"433 555 OFFCURVE",
"494 536 CURVE",
"504 556 LINE",
"452 574 OFFCURVE",
"397 589 OFFCURVE",
"321 589 CURVE SMOOTH",
"144 589 OFFCURVE",
"44 481 OFFCURVE",
"44 314 CURVE SMOOTH"
);
},
{
closed = 1;
nodes = (
"925 -10 OFFCURVE",
"989 5 OFFCURVE",
"1044 31 CURVE",
"1033 55 LINE",
"972 26 OFFCURVE",
"940 16 OFFCURVE",
"866 16 CURVE SMOOTH",
"714 16 OFFCURVE",
"638 85 OFFCURVE",
"638 213 CURVE SMOOTH",
"638 350 OFFCURVE",
"746 417 OFFCURVE",
"934 417 CURVE SMOOTH",
"1015 417 LINE",
"1015 424 LINE SMOOTH",
"1015 523 OFFCURVE",
"941 589 OFFCURVE",
"851 589 CURVE SMOOTH",
"778 589 OFFCURVE",
"734 543 OFFCURVE",
"734 495 CURVE SMOOTH",
"734 474 OFFCURVE",
"739 451 OFFCURVE",
"748 436 CURVE",
"772 444 LINE",
"764 459 OFFCURVE",
"761 475 OFFCURVE",
"761 492 CURVE SMOOTH",
"761 526 OFFCURVE",
"783 564 OFFCURVE",
"852 564 CURVE SMOOTH",
"934 564 OFFCURVE",
"978 507 OFFCURVE",
"989 442 CURVE",
"937 442 LINE SMOOTH",
"736 442 OFFCURVE",
"614 373 OFFCURVE",
"614 213 CURVE SMOOTH",
"614 74 OFFCURVE",
"691 -10 OFFCURVE",
"860 -10 CURVE SMOOTH"
);
},
{
closed = 1;
nodes = (
"1017 -284 OFFCURVE",
"1061 -265 OFFCURVE",
"1098 -236 CURVE",
"1085 -215 LINE",
"1048 -244 OFFCURVE",
"1016 -259 OFFCURVE",
"959 -259 CURVE SMOOTH",
"900 -259 OFFCURVE",
"844 -229 OFFCURVE",
"844 -152 CURVE SMOOTH",
"844 -85 OFFCURVE",
"888 -35 OFFCURVE",
"960 4 CURVE",
"915 -1 LINE",
"857 -37 OFFCURVE",
"817 -82 OFFCURVE",
"817 -151 CURVE SMOOTH",
"817 -229 OFFCURVE",
"868 -284 OFFCURVE",
"958 -284 CURVE SMOOTH"
);
}
);
width = 1045;
},
{
layerId = "32AB916E-052E-46AB-9DD5-C403DD480EC5";
paths = (
{
closed = 1;
nodes = (
"908 577 LINE",
"876 590 OFFCURVE",
"841 598 OFFCURVE",
"803 598 CURVE SMOOTH",
"647 598 OFFCURVE",
"543 489 OFFCURVE",
"513 292 CURVE",
"570 278 LINE",
"578 281 OFFCURVE",
"586 283 OFFCURVE",
"596 283 CURVE SMOOTH",
"618 283 OFFCURVE",
"628 271 OFFCURVE",
"628 253 CURVE SMOOTH",
"628 206 OFFCURVE",
"565 187 OFFCURVE",
"484 187 CURVE SMOOTH",
"345 187 OFFCURVE",
"306 261 OFFCURVE",
"306 332 CURVE SMOOTH",
"306 416 OFFCURVE",
"359 488 OFFCURVE",
"485 488 CURVE SMOOTH",
"495 488 OFFCURVE",
"505 487 OFFCURVE",
"512 486 CURVE",
"542 575 LINE",
"525 553 LINE",
"515 554 OFFCURVE",
"504 555 OFFCURVE",
"495 555 CURVE SMOOTH",
"315 555 OFFCURVE",
"204 442 OFFCURVE",
"204 281 CURVE SMOOTH",
"204 116 OFFCURVE",
"290 -10 OFFCURVE",
"476 -10 CURVE SMOOTH",
"661 -10 OFFCURVE",
"713 102 OFFCURVE",
"713 206 CURVE SMOOTH",
"713 312 OFFCURVE",
"660 354 OFFCURVE",
"587 354 CURVE SMOOTH",
"569 354 OFFCURVE",
"555 352 OFFCURVE",
"543 349 CURVE",
"589 315 LINE",
"632 462 OFFCURVE",
"702 525 OFFCURVE",
"806 525 CURVE SMOOTH",
"821 525 OFFCURVE",
"836 523 OFFCURVE",
"850 520 CURVE"
);
},
{
closed = 1;
nodes = (
"33 214 OFFCURVE",
"75 111 OFFCURVE",
"127 29 CURVE",
"200 70 LINE",
"151 148 OFFCURVE",
"121 220 OFFCURVE",
"121 312 CURVE SMOOTH",
"121 468 OFFCURVE",
"228 535 OFFCURVE",
"351 535 CURVE SMOOTH",
"411 535 OFFCURVE",
"460 528 OFFCURVE",
"511 519 CURVE",
"542 575 LINE",
"471 596 OFFCURVE",
"419 607 OFFCURVE",
"338 607 CURVE SMOOTH",
"164 607 OFFCURVE",
"33 504 OFFCURVE",
"33 317 CURVE SMOOTH"
);
},
{
closed = 1;
nodes = (
"1008 -10 OFFCURVE",
"1088 8 OFFCURVE",
"1145 40 CURVE",
"1116 111 LINE",
"1060 81 OFFCURVE",
"1018 74 OFFCURVE",
"958 74 CURVE SMOOTH",
"874 74 OFFCURVE",
"800 121 OFFCURVE",
"800 218 CURVE SMOOTH",
"800 318 OFFCURVE",
"860 374 OFFCURVE",
"1022 374 CURVE SMOOTH",
"1114 374 LINE",
"1114 396 LINE SMOOTH",
"1114 519 OFFCURVE",
"1044 598 OFFCURVE",
"935 598 CURVE SMOOTH",
"835 598 OFFCURVE",
"787 555 OFFCURVE",
"787 499 CURVE SMOOTH",
"787 479 OFFCURVE",
"791 459 OFFCURVE",
"799 445 CURVE",
"929 458 LINE",
"928 464 OFFCURVE",
"927 471 OFFCURVE",
"927 478 CURVE SMOOTH",
"927 498 OFFCURVE",
"940 515 OFFCURVE",
"965 515 CURVE SMOOTH",
"1004 515 OFFCURVE",
"1019 481 OFFCURVE",
"1028 442 CURVE",
"989 442 LINE SMOOTH",
"753 442 OFFCURVE",
"633 378 OFFCURVE",
"633 214 CURVE SMOOTH",
"633 71 OFFCURVE",
"712 -10 OFFCURVE",
"921 -10 CURVE SMOOTH"
);
},
{
closed = 1;
nodes = (
"1087 -286 OFFCURVE",
"1139 -273 OFFCURVE",
"1194 -241 CURVE",
"1157 -176 LINE",
"1125 -197 OFFCURVE",
"1098 -204 OFFCURVE",
"1068 -204 CURVE SMOOTH",
"1012 -204 OFFCURVE",
"976 -174 OFFCURVE",
"976 -119 CURVE SMOOTH",
"976 -63 OFFCURVE",
"1003 -30 OFFCURVE",
"1090 26 CURVE",
"976 10 LINE",
"898 -18 OFFCURVE",
"841 -63 OFFCURVE",
"841 -143 CURVE SMOOTH",
"841 -230 OFFCURVE",
"909 -286 OFFCURVE",
"1024 -286 CURVE SMOOTH"
);
}
);
width = 1145;
},
{
layerId = UUID0;
paths = (
{
closed = 1;
nodes = (
"873 573 LINE",
"844 584 OFFCURVE",
"807 589 OFFCURVE",
"776 589 CURVE SMOOTH",
"629 589 OFFCURVE",
"529 490 OFFCURVE",
"499 292 CURVE",
"536 282 LINE",
"546 283 OFFCURVE",
"554 284 OFFCURVE",
"562 284 CURVE SMOOTH",
"603 284 OFFCURVE",
"638 271 OFFCURVE",
"638 210 CURVE SMOOTH",
"638 155 OFFCURVE",
"599 95 OFFCURVE",
"466 95 CURVE SMOOTH",
"327 95 OFFCURVE",
"268 183 OFFCURVE",
"268 284 CURVE SMOOTH",
"268 407 OFFCURVE",
"342 505 OFFCURVE",
"485 505 CURVE SMOOTH",
"490 505 OFFCURVE",
"495 505 OFFCURVE",
"500 505 CURVE",
"516 566 LINE",
"505 547 LINE",
"499 548 OFFCURVE",
"494 548 OFFCURVE",
"490 548 CURVE SMOOTH",
"313 548 OFFCURVE",
"207 444 OFFCURVE",
"207 272 CURVE SMOOTH",
"207 104 OFFCURVE",
"295 -10 OFFCURVE",
"463 -10 CURVE SMOOTH",
"636 -10 OFFCURVE",
"687 101 OFFCURVE",
"687 189 CURVE SMOOTH",
"687 293 OFFCURVE",
"643 334 OFFCURVE",
"570 334 CURVE SMOOTH",
"552 334 OFFCURVE",
"538 332 OFFCURVE",
"526 329 CURVE",
"557 317 LINE",
"593 463 OFFCURVE",
"664 537 OFFCURVE",
"777 537 CURVE SMOOTH",
"800 537 OFFCURVE",
"821 534 OFFCURVE",
"840 528 CURVE"
);
},
{
closed = 1;
nodes = (
"45 195 OFFCURVE",
"91 99 OFFCURVE",
"139 24 CURVE",
"189 51 LINE",
"139 131 OFFCURVE",
"105 201 OFFCURVE",
"105 297 CURVE SMOOTH",
"105 464 OFFCURVE",
"210 540 OFFCURVE",
"353 540 CURVE SMOOTH",
"397 540 OFFCURVE",
"449 538 OFFCURVE",
"496 528 CURVE",
"516 566 LINE",
"461 581 OFFCURVE",
"401 589 OFFCURVE",
"348 589 CURVE SMOOTH",
"188 589 OFFCURVE",
"45 507 OFFCURVE",
"45 305 CURVE SMOOTH"
);
},
{
closed = 1;
nodes = (
"974 -10 OFFCURVE",
"1058 6 OFFCURVE",
"1111 36 CURVE",
"1091 88 LINE",
"1021 55 OFFCURVE",
"990 48 OFFCURVE",
"925 48 CURVE SMOOTH",
"798 48 OFFCURVE",
"727 123 OFFCURVE",
"727 217 CURVE SMOOTH",
"727 344 OFFCURVE",
"805 391 OFFCURVE",
"969 391 CURVE SMOOTH",
"1078 391 LINE",
"1078 405 LINE SMOOTH",
"1078 518 OFFCURVE",
"1018 589 OFFCURVE",
"900 589 CURVE SMOOTH",
"828 589 OFFCURVE",
"774 555 OFFCURVE",
"774 490 CURVE SMOOTH",
"774 466 OFFCURVE",
"780 453 OFFCURVE",
"785 442 CURVE",
"863 452 LINE",
"861 458 OFFCURVE",
"859 471 OFFCURVE",
"859 481 CURVE SMOOTH",
"859 506 OFFCURVE",
"870 534 OFFCURVE",
"915 534 CURVE SMOOTH",
"986 534 OFFCURVE",
"1014 492 OFFCURVE",
"1022 442 CURVE",
"976 442 LINE SMOOTH",
"798 442 OFFCURVE",
"640 403 OFFCURVE",
"640 216 CURVE SMOOTH",
"640 74 OFFCURVE",
"738 -10 OFFCURVE",
"902 -10 CURVE SMOOTH"
);
},
{
closed = 1;
nodes = (
"1072 -284 OFFCURVE",
"1126 -259 OFFCURVE",
"1162 -230 CURVE",
"1136 -187 LINE",
"1099 -214 OFFCURVE",
"1070 -228 OFFCURVE",
"1025 -228 CURVE SMOOTH",
"970 -228 OFFCURVE",
"925 -198 OFFCURVE",
"925 -133 CURVE SMOOTH",
"925 -76 OFFCURVE",
"957 -32 OFFCURVE",
"1043 19 CURVE",
"968 11 LINE",
"889 -27 OFFCURVE",
"844 -77 OFFCURVE",
"844 -143 CURVE SMOOTH",
"844 -225 OFFCURVE",
"889 -284 OFFCURVE",
"1006 -284 CURVE SMOOTH"
);
}
);
width = 1111;
}
);
rightKerningGroup = dasinh;
unicode = 0DA5;
},
{
glyphname = nyjasinh;
lastChange = "2016-08-23 15:05:55 +0000";
layers = (
{
layerId = "AF791F9F-5317-4D76-BDD4-1652E63983EA";
paths = (
{
closed = 1;
nodes = (
"719 -10 OFFCURVE",
"826 88 OFFCURVE",
"826 235 CURVE SMOOTH",
"826 363 OFFCURVE",
"754 442 OFFCURVE",
"558 442 CURVE SMOOTH",
"535 442 LINE",
"544 442 LINE",
"555 513 OFFCURVE",
"598 564 OFFCURVE",
"685 564 CURVE SMOOTH",
"741 564 OFFCURVE",
"771 535 OFFCURVE",
"771 492 CURVE SMOOTH",
"771 451 OFFCURVE",
"750 431 OFFCURVE",
"710 431 CURVE SMOOTH",
"669 431 OFFCURVE",
"638 456 OFFCURVE",
"638 531 CURVE SMOOTH",
"638 663 OFFCURVE",
"714 720 OFFCURVE",
"826 754 CURVE",
"818 780 LINE",
"681 737 OFFCURVE",
"613 650 OFFCURVE",
"613 533 CURVE SMOOTH",
"613 530 LINE SMOOTH",
"613 440 OFFCURVE",
"663 407 OFFCURVE",
"711 407 CURVE SMOOTH",
"769 407 OFFCURVE",
"798 440 OFFCURVE",
"798 491 CURVE SMOOTH",
"798 550 OFFCURVE",
"757 589 OFFCURVE",
"685 589 CURVE SMOOTH",
"587 589 OFFCURVE",
"518 520 OFFCURVE",
"518 424 CURVE SMOOTH",
"518 417 LINE",
"563 417 LINE SMOOTH",
"728 417 OFFCURVE",
"799 360 OFFCURVE",
"799 234 CURVE SMOOTH",
"799 105 OFFCURVE",
"702 17 OFFCURVE",
"496 17 CURVE SMOOTH",
"291 17 OFFCURVE",
"195 107 OFFCURVE",
"195 237 CURVE SMOOTH",
"195 368 OFFCURVE",
"277 417 OFFCURVE",
"432 417 CURVE SMOOTH",
"476 417 LINE",
"476 424 LINE SMOOTH",
"476 523 OFFCURVE",
"402 589 OFFCURVE",
"312 589 CURVE SMOOTH",
"246 589 OFFCURVE",
"195 546 OFFCURVE",
"195 495 CURVE SMOOTH",
"195 465 OFFCURVE",
"203 444 OFFCURVE",
"216 421 CURVE",
"240 431 LINE",
"227 453 OFFCURVE",
"222 470 OFFCURVE",
"222 492 CURVE SMOOTH",
"222 526 OFFCURVE",
"244 564 OFFCURVE",
"313 564 CURVE SMOOTH",
"395 564 OFFCURVE",
"439 507 OFFCURVE",
"450 442 CURVE",
"457 442 LINE",
"422 442 LINE SMOOTH",
"254 442 OFFCURVE",
"168 372 OFFCURVE",
"168 237 CURVE SMOOTH",
"168 86 OFFCURVE",
"281 -10 OFFCURVE",
"496 -10 CURVE SMOOTH"
);
},
{
closed = 1;
nodes = (
"44 211 OFFCURVE",
"101 122 OFFCURVE",
"183 50 CURVE",
"201 69 LINE",
"125 134 OFFCURVE",
"71 217 OFFCURVE",
"71 331 CURVE SMOOTH",
"71 479 OFFCURVE",
"171 567 OFFCURVE",
"291 567 CURVE SMOOTH",
"296 567 OFFCURVE",
"306 567 OFFCURVE",
"314 566 CURVE",
"338 584 LINE",
"322 587 OFFCURVE",
"306 589 OFFCURVE",
"294 589 CURVE SMOOTH",
"157 589 OFFCURVE",
"44 495 OFFCURVE",
"44 332 CURVE SMOOTH"
);
}
);
width = 870;
},
{
layerId = "32AB916E-052E-46AB-9DD5-C403DD480EC5";
paths = (
{
closed = 1;
nodes = (
"799 -10 OFFCURVE",
"925 84 OFFCURVE",
"925 244 CURVE SMOOTH",
"925 371 OFFCURVE",
"839 442 OFFCURVE",
"697 442 CURVE SMOOTH",
"629 442 LINE",
"661 441 LINE",
"673 501 OFFCURVE",
"710 530 OFFCURVE",
"760 530 CURVE SMOOTH",
"805 530 OFFCURVE",
"817 505 OFFCURVE",
"817 481 CURVE SMOOTH",
"817 458 OFFCURVE",
"806 446 OFFCURVE",
"785 446 CURVE SMOOTH",
"753 446 OFFCURVE",
"742 468 OFFCURVE",
"742 506 CURVE SMOOTH",
"742 604 OFFCURVE",
"802 654 OFFCURVE",
"922 683 CURVE",
"884 799 LINE",
"756 764 OFFCURVE",
"672 660 OFFCURVE",
"672 534 CURVE SMOOTH",
"672 510 LINE SMOOTH",
"672 442 OFFCURVE",
"711 386 OFFCURVE",
"780 386 CURVE SMOOTH",
"859 386 OFFCURVE",
"899 420 OFFCURVE",
"899 486 CURVE SMOOTH",
"899 558 OFFCURVE",
"847 598 OFFCURVE",
"760 598 CURVE SMOOTH",
"644 598 OFFCURVE",
"578 508 OFFCURVE",
"578 400 CURVE SMOOTH",
"578 374 LINE",
"683 374 LINE SMOOTH",
"765 374 OFFCURVE",
"822 360 OFFCURVE",
"822 296 CURVE SMOOTH",
"822 210 OFFCURVE",
"718 188 OFFCURVE",
"559 188 CURVE SMOOTH",
"395 188 OFFCURVE",
"299 214 OFFCURVE",
"299 294 CURVE SMOOTH",
"299 362 OFFCURVE",
"358 374 OFFCURVE",
"453 374 CURVE SMOOTH",
"552 374 LINE",
"552 405 LINE SMOOTH",
"552 520 OFFCURVE",
"482 598 OFFCURVE",
"372 598 CURVE SMOOTH",
"277 598 OFFCURVE",
"229 554 OFFCURVE",
"229 498 CURVE SMOOTH",
"229 468 OFFCURVE",
"239 444 OFFCURVE",
"256 428 CURVE",
"367 452 LINE",
"365 459 OFFCURVE",
"364 467 OFFCURVE",
"364 477 CURVE SMOOTH",
"364 498 OFFCURVE",
"374 515 OFFCURVE",
"402 515 CURVE SMOOTH",
"440 515 OFFCURVE",
"458 480 OFFCURVE",
"466 438 CURVE",
"474 442 LINE",
"437 442 LINE SMOOTH",
"281 442 OFFCURVE",
"196 373 OFFCURVE",
"196 244 CURVE SMOOTH",
"196 86 OFFCURVE",
"310 -10 OFFCURVE",
"559 -10 CURVE SMOOTH"
);
},
{
closed = 1;
nodes = (
"32 196 OFFCURVE",
"94 101 OFFCURVE",
"165 37 CURVE",
"225 94 LINE",
"165 154 OFFCURVE",
"120 220 OFFCURVE",
"120 316 CURVE SMOOTH",
"120 452 OFFCURVE",
"219 526 OFFCURVE",
"310 526 CURVE SMOOTH",
"321 526 OFFCURVE",
"330 526 OFFCURVE",
"339 525 CURVE",
"371 590 LINE",
"355 593 OFFCURVE",
"339 595 OFFCURVE",
"309 595 CURVE SMOOTH",
"169 595 OFFCURVE",
"32 504 OFFCURVE",
"32 326 CURVE SMOOTH"
);
}
);
width = 957;
},
{
layerId = UUID0;
paths = (
{
closed = 1;
nodes = (
"760 -10 OFFCURVE",
"879 83 OFFCURVE",
"879 239 CURVE SMOOTH",
"879 366 OFFCURVE",
"799 442 OFFCURVE",
"616 442 CURVE SMOOTH",
"601 442 LINE",
"607 440 LINE",
"616 500 OFFCURVE",
"659 541 OFFCURVE",
"728 541 CURVE SMOOTH",
"781 541 OFFCURVE",
"794 506 OFFCURVE",
"794 488 CURVE SMOOTH",
"794 454 OFFCURVE",
"776 442 OFFCURVE",
"748 442 CURVE SMOOTH",
"711 442 OFFCURVE",
"696 466 OFFCURVE",
"696 512 CURVE SMOOTH",
"696 641 OFFCURVE",
"772 684 OFFCURVE",
"886 713 CURVE",
"863 787 LINE",
"735 752 OFFCURVE",
"644 660 OFFCURVE",
"644 521 CURVE SMOOTH",
"644 510 LINE SMOOTH",
"644 452 OFFCURVE",
"676 400 OFFCURVE",
"747 400 CURVE SMOOTH",
"813 400 OFFCURVE",
"853 428 OFFCURVE",
"853 486 CURVE SMOOTH",
"853 549 OFFCURVE",
"809 589 OFFCURVE",
"727 589 CURVE SMOOTH",
"623 589 OFFCURVE",
"553 514 OFFCURVE",
"553 396 CURVE SMOOTH",
"553 391 LINE",
"609 391 LINE SMOOTH",
"738 391 OFFCURVE",
"819 360 OFFCURVE",
"819 255 CURVE SMOOTH",
"819 151 OFFCURVE",
"722 95 OFFCURVE",
"533 95 CURVE SMOOTH",
"347 95 OFFCURVE",
"249 150 OFFCURVE",
"249 256 CURVE SMOOTH",
"249 360 OFFCURVE",
"332 391 OFFCURVE",
"459 391 CURVE SMOOTH",
"521 391 LINE",
"521 405 LINE SMOOTH",
"521 516 OFFCURVE",
"458 589 OFFCURVE",
"345 589 CURVE SMOOTH",
"282 589 OFFCURVE",
"221 555 OFFCURVE",
"221 490 CURVE SMOOTH",
"221 467 OFFCURVE",
"227 444 OFFCURVE",
"240 426 CURVE",
"308 444 LINE",
"304 457 OFFCURVE",
"302 470 OFFCURVE",
"302 481 CURVE SMOOTH",
"302 515 OFFCURVE",
"321 534 OFFCURVE",
"362 534 CURVE SMOOTH",
"428 534 OFFCURVE",
"457 487 OFFCURVE",
"465 437 CURVE",
"471 442 LINE",
"452 442 LINE SMOOTH",
"269 442 OFFCURVE",
"189 368 OFFCURVE",
"189 241 CURVE SMOOTH",
"189 83 OFFCURVE",
"308 -10 OFFCURVE",
"533 -10 CURVE SMOOTH"
);
},
{
closed = 1;
nodes = (
"40 205 OFFCURVE",
"98 111 OFFCURVE",
"182 41 CURVE",
"219 79 LINE",
"148 139 OFFCURVE",
"100 217 OFFCURVE",
"100 324 CURVE SMOOTH",
"100 470 OFFCURVE",
"200 543 OFFCURVE",
"299 543 CURVE SMOOTH",
"307 543 OFFCURVE",
"316 542 OFFCURVE",
"325 542 CURVE",
"357 584 LINE",
"341 587 OFFCURVE",
"325 589 OFFCURVE",
"309 589 CURVE SMOOTH",
"171 589 OFFCURVE",
"40 504 OFFCURVE",
"40 329 CURVE SMOOTH"
);
}
);
width = 921;
}
);
rightKerningGroup = pasinh;
unicode = 0DA6;
},
{
glyphname = ttasinh;
lastChange = "2016-08-23 15:05:55 +0000";
layers = (
{
layerId = "AF791F9F-5317-4D76-BDD4-1652E63983EA";
paths = (
{
closed = 1;
nodes = (
"572 -10 OFFCURVE",
"709 162 OFFCURVE",
"709 418 CURVE SMOOTH",
"709 688 OFFCURVE",
"541 804 OFFCURVE",
"342 804 CURVE SMOOTH",
"216 804 OFFCURVE",
"141 768 OFFCURVE",
"43 708 CURVE",
"59 685 LINE",
"147 748 OFFCURVE",
"236 779 OFFCURVE",
"343 779 CURVE SMOOTH",
"526 779 OFFCURVE",
"682 674 OFFCURVE",
"682 420 CURVE SMOOTH",
"682 178 OFFCURVE",
"553 17 OFFCURVE",
"334 17 CURVE SMOOTH",
"163 17 OFFCURVE",
"70 98 OFFCURVE",
"70 260 CURVE SMOOTH",
"70 391 OFFCURVE",
"152 479 OFFCURVE",
"313 479 CURVE SMOOTH",
"345 479 OFFCURVE",
"373 475 OFFCURVE",
"404 467 CURVE",
"408 492 LINE",
"381 499 OFFCURVE",
"345 504 OFFCURVE",
"312 504 CURVE SMOOTH",
"142 504 OFFCURVE",
"43 409 OFFCURVE",
"43 260 CURVE SMOOTH",
"43 86 OFFCURVE",
"150 -10 OFFCURVE",
"333 -10 CURVE SMOOTH"
);
}
);
width = 752;
},
{
layerId = "32AB916E-052E-46AB-9DD5-C403DD480EC5";
paths = (
{
closed = 1;
nodes = (
"657 -10 OFFCURVE",
"776 173 OFFCURVE",
"776 412 CURVE SMOOTH",
"776 698 OFFCURVE",
"601 804 OFFCURVE",
"387 804 CURVE SMOOTH",
"236 804 OFFCURVE",
"131 753 OFFCURVE",
"31 694 CURVE",
"78 625 LINE",
"162 685 OFFCURVE",
"262 731 OFFCURVE",
"385 731 CURVE SMOOTH",
"546 731 OFFCURVE",
"672 656 OFFCURVE",
"672 458 CURVE SMOOTH",
"672 315 OFFCURVE",
"594 188 OFFCURVE",
"356 188 CURVE SMOOTH",
"210 188 OFFCURVE",
"135 224 OFFCURVE",
"135 315 CURVE SMOOTH",
"135 392 OFFCURVE",
"196 437 OFFCURVE",
"303 437 CURVE SMOOTH",
"350 437 OFFCURVE",
"385 431 OFFCURVE",
"417 425 CURVE",
"431 497 LINE",
"399 504 OFFCURVE",
"354 510 OFFCURVE",
"310 510 CURVE SMOOTH",
"139 510 OFFCURVE",
"31 421 OFFCURVE",
"31 267 CURVE SMOOTH",
"31 88 OFFCURVE",
"156 -10 OFFCURVE",
"357 -10 CURVE SMOOTH"
);
}
);
width = 808;
},
{
layerId = UUID0;
paths = (
{
closed = 1;
nodes = (
"619 -10 OFFCURVE",
"743 171 OFFCURVE",
"743 402 CURVE SMOOTH",
"743 688 OFFCURVE",
"556 804 OFFCURVE",
"359 804 CURVE SMOOTH",
"229 804 OFFCURVE",
"130 761 OFFCURVE",
"41 699 CURVE",
"75 653 LINE",
"172 726 OFFCURVE",
"266 752 OFFCURVE",
"363 752 CURVE SMOOTH",
"506 752 OFFCURVE",
"680 674 OFFCURVE",
"680 422 CURVE SMOOTH",
"680 259 OFFCURVE",
"595 95 OFFCURVE",
"349 95 CURVE SMOOTH",
"193 95 OFFCURVE",
"102 153 OFFCURVE",
"102 279 CURVE SMOOTH",
"102 384 OFFCURVE",
"168 452 OFFCURVE",
"307 452 CURVE SMOOTH",
"343 452 OFFCURVE",
"381 447 OFFCURVE",
"412 441 CURVE",
"422 492 LINE",
"393 499 OFFCURVE",
"352 504 OFFCURVE",
"310 504 CURVE SMOOTH",
"150 504 OFFCURVE",
"41 417 OFFCURVE",
"41 266 CURVE SMOOTH",
"41 86 OFFCURVE",
"155 -10 OFFCURVE",
"349 -10 CURVE SMOOTH"
);
}
);
width = 783;
}
);
rightKerningGroup = casinh;
unicode = 0DA7;
},
{
glyphname = tthasinh;
lastChange = "2016-08-23 15:05:55 +0000";
layers = (
{
layerId = "AF791F9F-5317-4D76-BDD4-1652E63983EA";
paths = (
{
closed = 1;
nodes = (
"683 -10 OFFCURVE",
"746 100 OFFCURVE",
"746 315 CURVE SMOOTH",
"746 638 OFFCURVE",
"528 786 OFFCURVE",
"261 812 CURVE",
"258 787 LINE",
"507 769 OFFCURVE",
"719 625 OFFCURVE",
"719 317 CURVE SMOOTH",
"719 122 OFFCURVE",
"666 17 OFFCURVE",
"546 17 CURVE SMOOTH",
"444 17 OFFCURVE",
"401 89 OFFCURVE",
"389 169 CURVE",
"365 169 LINE",
"345 96 OFFCURVE",
"315 17 OFFCURVE",
"211 17 CURVE SMOOTH",
"117 17 OFFCURVE",
"70 87 OFFCURVE",
"70 226 CURVE SMOOTH",
"70 395 OFFCURVE",
"168 479 OFFCURVE",
"306 479 CURVE SMOOTH",
"328 479 OFFCURVE",
"357 477 OFFCURVE",
"378 472 CURVE",
"382 497 LINE",
"356 502 OFFCURVE",
"330 504 OFFCURVE",
"309 504 CURVE SMOOTH",
"160 504 OFFCURVE",
"43 415 OFFCURVE",
"43 226 CURVE SMOOTH",
"43 56 OFFCURVE",
"115 -10 OFFCURVE",
"208 -10 CURVE SMOOTH",
"304 -10 OFFCURVE",
"352 52 OFFCURVE",
"376 124 CURVE",
"401 42 OFFCURVE",
"452 -10 OFFCURVE",
"547 -10 CURVE SMOOTH"
);
},
{
closed = 1;
nodes = (
"525 582 OFFCURVE",
"553 622 OFFCURVE",
"577 681 CURVE",
"559 705 LINE",
"539 644 OFFCURVE",
"509 608 OFFCURVE",
"460 608 CURVE SMOOTH",
"400 608 OFFCURVE",
"370 639 OFFCURVE",
"356 697 CURVE SMOOTH",
"345 743 OFFCURVE",
"332 779 OFFCURVE",
"297 798 CURVE",
"274 787 LINE",
"294 783 OFFCURVE",
"312 766 OFFCURVE",
"330 691 CURVE SMOOTH",
"345 628 OFFCURVE",
"383 582 OFFCURVE",
"457 582 CURVE SMOOTH"
);
}
);
width = 793;
},
{
layerId = "32AB916E-052E-46AB-9DD5-C403DD480EC5";
paths = (
{
closed = 1;
nodes = (
"723 -10 OFFCURVE",
"836 70 OFFCURVE",
"836 327 CURVE SMOOTH",
"836 658 OFFCURVE",
"608 793 OFFCURVE",
"328 817 CURVE",
"317 734 LINE",
"557 729 OFFCURVE",
"732 624 OFFCURVE",
"732 367 CURVE SMOOTH",
"732 222 OFFCURVE",
"665 182 OFFCURVE",
"585 182 CURVE SMOOTH",
"506 182 OFFCURVE",
"470 222 OFFCURVE",
"454 268 CURVE",
"381 268 LINE",
"358 210 OFFCURVE",
"315 182 OFFCURVE",
"244 182 CURVE SMOOTH",
"173 182 OFFCURVE",
"135 219 OFFCURVE",
"135 291 CURVE SMOOTH",
"135 374 OFFCURVE",
"204 437 OFFCURVE",
"316 437 CURVE SMOOTH",
"357 437 OFFCURVE",
"379 434 OFFCURVE",
"409 427 CURVE",
"423 499 LINE",
"391 506 OFFCURVE",
"359 510 OFFCURVE",
"327 510 CURVE SMOOTH",
"139 510 OFFCURVE",
"31 405 OFFCURVE",
"31 233 CURVE SMOOTH",
"31 103 OFFCURVE",
"90 -10 OFFCURVE",
"227 -10 CURVE SMOOTH",
"340 -10 OFFCURVE",
"394 65 OFFCURVE",
"417 135 CURVE",
"445 49 OFFCURVE",
"500 -10 OFFCURVE",
"613 -10 CURVE SMOOTH"
);
},
{
closed = 1;
nodes = (
"588 540 OFFCURVE",
"630 585 OFFCURVE",
"662 667 CURVE",
"599 717 LINE",
"575 653 OFFCURVE",
"560 625 OFFCURVE",
"512 625 CURVE SMOOTH",
"478 625 OFFCURVE",
"457 641 OFFCURVE",
"445 676 CURVE SMOOTH",
"427 728 OFFCURVE",
"396 765 OFFCURVE",
"345 781 CURVE",
"323 737 LINE",
"339 732 OFFCURVE",
"351 720 OFFCURVE",
"363 672 CURVE SMOOTH",
"386 583 OFFCURVE",
"427 540 OFFCURVE",
"506 540 CURVE SMOOTH"
);
}
);
width = 872;
},
{
layerId = UUID0;
paths = (
{
closed = 1;
nodes = (
"700 -10 OFFCURVE",
"792 81 OFFCURVE",
"792 323 CURVE SMOOTH",
"792 656 OFFCURVE",
"554 790 OFFCURVE",
"283 812 CURVE",
"276 756 LINE",
"544 743 OFFCURVE",
"729 613 OFFCURVE",
"729 330 CURVE SMOOTH",
"729 163 OFFCURVE",
"659 95 OFFCURVE",
"568 95 CURVE SMOOTH",
"495 95 OFFCURVE",
"434 131 OFFCURVE",
"427 204 CURVE",
"374 204 LINE",
"359 147 OFFCURVE",
"325 95 OFFCURVE",
"237 95 CURVE SMOOTH",
"151 95 OFFCURVE",
"101 140 OFFCURVE",
"101 247 CURVE SMOOTH",
"101 378 OFFCURVE",
"174 452 OFFCURVE",
"314 452 CURVE SMOOTH",
"342 452 OFFCURVE",
"366 450 OFFCURVE",
"395 444 CURVE",
"405 495 LINE",
"385 500 OFFCURVE",
"351 504 OFFCURVE",
"318 504 CURVE SMOOTH",
"156 504 OFFCURVE",
"40 410 OFFCURVE",
"40 226 CURVE SMOOTH",
"40 79 OFFCURVE",
"103 -10 OFFCURVE",
"227 -10 CURVE SMOOTH",
"323 -10 OFFCURVE",
"377 59 OFFCURVE",
"400 129 CURVE",
"429 44 OFFCURVE",
"481 -10 OFFCURVE",
"582 -10 CURVE SMOOTH"
);
},
{
closed = 1;
nodes = (
"550 556 OFFCURVE",
"591 615 OFFCURVE",
"617 680 CURVE",
"568 709 LINE",
"548 648 OFFCURVE",
"521 617 OFFCURVE",
"475 617 CURVE SMOOTH",
"426 617 OFFCURVE",
"403 641 OFFCURVE",
"388 696 CURVE SMOOTH",
"374 745 OFFCURVE",
"348 771 OFFCURVE",
"299 797 CURVE",
"287 759 LINE",
"303 754 OFFCURVE",
"320 741 OFFCURVE",
"333 690 CURVE SMOOTH",
"351 619 OFFCURVE",
"381 556 OFFCURVE",
"468 556 CURVE SMOOTH"
);
}
);
width = 837;
}
);
rightKerningGroup = tthasinh;
unicode = 0DA8;
},
{
glyphname = ddasinh;
lastChange = "2016-08-23 15:05:55 +0000";
layers = (
{
layerId = "AF791F9F-5317-4D76-BDD4-1652E63983EA";
paths = (
{
closed = 1;
nodes = (
"685 -10 OFFCURVE",
"750 97 OFFCURVE",
"750 346 CURVE SMOOTH",
"750 610 OFFCURVE",
"641 804 OFFCURVE",
"364 804 CURVE SMOOTH",
"231 804 OFFCURVE",
"155 768 OFFCURVE",
"57 708 CURVE",
"73 685 LINE",
"162 748 OFFCURVE",
"251 779 OFFCURVE",
"364 779 CURVE SMOOTH",
"622 779 OFFCURVE",
"723 595 OFFCURVE",
"723 348 CURVE SMOOTH",
"723 122 OFFCURVE",
"672 17 OFFCURVE",
"550 17 CURVE SMOOTH",
"448 17 OFFCURVE",
"405 89 OFFCURVE",
"393 169 CURVE",
"369 169 LINE",
"349 96 OFFCURVE",
"319 17 OFFCURVE",
"213 17 CURVE SMOOTH",
"120 17 OFFCURVE",
"75 89 OFFCURVE",
"75 192 CURVE SMOOTH",
"75 312 OFFCURVE",
"147 402 OFFCURVE",
"315 421 CURVE",
"253 417 LINE",
"382 417 LINE",
"382 424 LINE SMOOTH",
"382 523 OFFCURVE",
"308 589 OFFCURVE",
"218 589 CURVE SMOOTH",
"147 589 OFFCURVE",
"101 547 OFFCURVE",
"101 495 CURVE SMOOTH",
"101 483 OFFCURVE",
"103 466 OFFCURVE",
"108 453 CURVE",
"133 458 LINE",
"130 467 OFFCURVE",
"128 479 OFFCURVE",
"128 492 CURVE SMOOTH",
"128 526 OFFCURVE",
"150 564 OFFCURVE",
"219 564 CURVE SMOOTH",
"301 564 OFFCURVE",
"345 507 OFFCURVE",
"356 442 CURVE",
"25 442 LINE",
"25 417 LINE",
"117 417 LINE SMOOTH",
"157 417 OFFCURVE",
"219 419 OFFCURVE",
"254 425 CURVE",
"262 428 LINE",
"118 407 OFFCURVE",
"48 312 OFFCURVE",
"48 192 CURVE SMOOTH",
"48 59 OFFCURVE",
"119 -10 OFFCURVE",
"213 -10 CURVE SMOOTH",
"308 -10 OFFCURVE",
"355 50 OFFCURVE",
"380 124 CURVE",
"405 42 OFFCURVE",
"456 -10 OFFCURVE",
"551 -10 CURVE SMOOTH"
);
}
);
width = 797;
},
{
layerId = "32AB916E-052E-46AB-9DD5-C403DD480EC5";
paths = (
{
closed = 1;
nodes = (
"723 -10 OFFCURVE",
"839 75 OFFCURVE",
"839 345 CURVE SMOOTH",
"839 654 OFFCURVE",
"665 804 OFFCURVE",
"406 804 CURVE SMOOTH",
"257 804 OFFCURVE",
"150 753 OFFCURVE",
"50 694 CURVE",
"92 625 LINE",
"177 685 OFFCURVE",
"282 731 OFFCURVE",
"407 731 CURVE SMOOTH",
"619 731 OFFCURVE",
"735 607 OFFCURVE",
"735 381 CURVE SMOOTH",
"735 222 OFFCURVE",
"668 182 OFFCURVE",
"588 182 CURVE SMOOTH",
"509 182 OFFCURVE",
"473 222 OFFCURVE",
"457 268 CURVE",
"384 268 LINE",
"361 210 OFFCURVE",
"318 182 OFFCURVE",
"252 182 CURVE SMOOTH",
"189 182 OFFCURVE",
"151 203 OFFCURVE",
"151 258 CURVE SMOOTH",
"151 319 OFFCURVE",
"203 361 OFFCURVE",
"282 379 CURVE",
"204 374 LINE",
"422 374 LINE",
"422 405 LINE SMOOTH",
"422 520 OFFCURVE",
"352 598 OFFCURVE",
"242 598 CURVE SMOOTH",
"141 598 OFFCURVE",
"94 555 OFFCURVE",
"94 499 CURVE SMOOTH",
"94 485 OFFCURVE",
"96 466 OFFCURVE",
"103 452 CURVE",
"235 460 LINE",
"234 467 OFFCURVE",
"234 473 OFFCURVE",
"234 477 CURVE SMOOTH",
"234 498 OFFCURVE",
"243 515 OFFCURVE",
"272 515 CURVE SMOOTH",
"310 515 OFFCURVE",
"327 480 OFFCURVE",
"335 442 CURVE",
"21 442 LINE",
"21 374 LINE",
"65 374 LINE SMOOTH",
"98 374 OFFCURVE",
"151 376 OFFCURVE",
"179 380 CURVE",
"211 409 LINE",
"114 379 OFFCURVE",
"44 303 OFFCURVE",
"44 184 CURVE SMOOTH",
"44 62 OFFCURVE",
"109 -10 OFFCURVE",
"225 -10 CURVE SMOOTH",
"336 -10 OFFCURVE",
"397 65 OFFCURVE",
"420 135 CURVE",
"447 48 OFFCURVE",
"503 -10 OFFCURVE",
"607 -10 CURVE SMOOTH"
);
}
);
width = 875;
},
{
layerId = UUID0;
paths = (
{
closed = 1;
nodes = (
"703 -10 OFFCURVE",
"795 78 OFFCURVE",
"795 345 CURVE SMOOTH",
"795 656 OFFCURVE",
"637 804 OFFCURVE",
"387 804 CURVE SMOOTH",
"243 804 OFFCURVE",
"145 760 OFFCURVE",
"55 699 CURVE",
"89 653 LINE",
"182 722 OFFCURVE",
"281 752 OFFCURVE",
"387 752 CURVE SMOOTH",
"617 752 OFFCURVE",
"732 607 OFFCURVE",
"732 361 CURVE SMOOTH",
"732 150 OFFCURVE",
"657 95 OFFCURVE",
"571 95 CURVE SMOOTH",
"497 95 OFFCURVE",
"437 131 OFFCURVE",
"430 204 CURVE",
"377 204 LINE",
"362 146 OFFCURVE",
"328 95 OFFCURVE",
"239 95 CURVE SMOOTH",
"155 95 OFFCURVE",
"110 134 OFFCURVE",
"110 214 CURVE SMOOTH",
"110 304 OFFCURVE",
"174 378 OFFCURVE",
"311 397 CURVE",
"253 391 LINE",
"405 391 LINE",
"405 405 LINE SMOOTH",
"405 516 OFFCURVE",
"342 589 OFFCURVE",
"229 589 CURVE SMOOTH",
"157 589 OFFCURVE",
"101 555 OFFCURVE",
"101 490 CURVE SMOOTH",
"101 482 OFFCURVE",
"103 463 OFFCURVE",
"107 452 CURVE",
"189 459 LINE",
"187 465 OFFCURVE",
"186 475 OFFCURVE",
"186 481 CURVE SMOOTH",
"186 515 OFFCURVE",
"206 534 OFFCURVE",
"246 534 CURVE SMOOTH",
"312 534 OFFCURVE",
"339 488 OFFCURVE",
"348 442 CURVE",
"24 442 LINE",
"24 391 LINE",
"72 391 LINE SMOOTH",
"118 391 OFFCURVE",
"188 393 OFFCURVE",
"216 397 CURVE",
"223 415 LINE",
"121 382 OFFCURVE",
"48 308 OFFCURVE",
"48 187 CURVE SMOOTH",
"48 62 OFFCURVE",
"118 -10 OFFCURVE",
"223 -10 CURVE SMOOTH",
"323 -10 OFFCURVE",
"380 59 OFFCURVE",
"403 129 CURVE",
"432 44 OFFCURVE",
"484 -10 OFFCURVE",
"585 -10 CURVE SMOOTH"
);
}
);
width = 840;
}
);
rightKerningGroup = ngasinh;
unicode = 0DA9;
},
{
glyphname = ddhasinh;
lastChange = "2016-08-23 15:05:55 +0000";
layers = (
{
layerId = "AF791F9F-5317-4D76-BDD4-1652E63983EA";
paths = (
{
closed = 1;
nodes = (
"687 -10 OFFCURVE",
"750 100 OFFCURVE",
"750 315 CURVE SMOOTH",
"750 638 OFFCURVE",
"532 786 OFFCURVE",
"265 812 CURVE",
"262 787 LINE",
"511 769 OFFCURVE",
"723 625 OFFCURVE",
"723 317 CURVE SMOOTH",
"723 122 OFFCURVE",
"670 17 OFFCURVE",
"550 17 CURVE SMOOTH",
"448 17 OFFCURVE",
"405 89 OFFCURVE",
"393 169 CURVE",
"369 169 LINE",
"349 96 OFFCURVE",
"319 17 OFFCURVE",
"213 17 CURVE SMOOTH",
"120 17 OFFCURVE",
"75 89 OFFCURVE",
"75 192 CURVE SMOOTH",
"75 312 OFFCURVE",
"147 402 OFFCURVE",
"315 421 CURVE",
"253 417 LINE",
"382 417 LINE",
"382 424 LINE SMOOTH",
"382 523 OFFCURVE",
"308 589 OFFCURVE",
"218 589 CURVE SMOOTH",
"147 589 OFFCURVE",
"101 547 OFFCURVE",
"101 495 CURVE SMOOTH",
"101 483 OFFCURVE",
"103 466 OFFCURVE",
"108 453 CURVE",
"133 458 LINE",
"130 467 OFFCURVE",
"128 479 OFFCURVE",
"128 492 CURVE SMOOTH",
"128 526 OFFCURVE",
"150 564 OFFCURVE",
"219 564 CURVE SMOOTH",
"301 564 OFFCURVE",
"345 507 OFFCURVE",
"356 442 CURVE",
"25 442 LINE",
"25 417 LINE",
"117 417 LINE SMOOTH",
"157 417 OFFCURVE",
"219 419 OFFCURVE",
"254 425 CURVE",
"262 428 LINE",
"118 407 OFFCURVE",
"48 312 OFFCURVE",
"48 192 CURVE SMOOTH",
"48 59 OFFCURVE",
"119 -10 OFFCURVE",
"213 -10 CURVE SMOOTH",
"308 -10 OFFCURVE",
"355 50 OFFCURVE",
"380 124 CURVE",
"405 42 OFFCURVE",
"456 -10 OFFCURVE",
"551 -10 CURVE SMOOTH"
);
},
{
closed = 1;
nodes = (
"529 582 OFFCURVE",
"557 622 OFFCURVE",
"581 681 CURVE",
"563 705 LINE",
"543 644 OFFCURVE",
"513 608 OFFCURVE",
"464 608 CURVE SMOOTH",
"404 608 OFFCURVE",
"374 639 OFFCURVE",
"360 697 CURVE SMOOTH",
"349 743 OFFCURVE",
"336 779 OFFCURVE",
"301 798 CURVE",
"278 787 LINE",
"298 783 OFFCURVE",
"316 766 OFFCURVE",
"334 691 CURVE SMOOTH",
"349 628 OFFCURVE",
"387 582 OFFCURVE",
"461 582 CURVE SMOOTH"
);
}
);
width = 797;
},
{
layerId = "32AB916E-052E-46AB-9DD5-C403DD480EC5";
paths = (
{
closed = 1;
nodes = (
"726 -10 OFFCURVE",
"839 70 OFFCURVE",
"839 327 CURVE SMOOTH",
"839 658 OFFCURVE",
"611 793 OFFCURVE",
"331 817 CURVE",
"320 734 LINE",
"560 729 OFFCURVE",
"735 624 OFFCURVE",
"735 367 CURVE SMOOTH",
"735 222 OFFCURVE",
"668 182 OFFCURVE",
"588 182 CURVE SMOOTH",
"509 182 OFFCURVE",
"473 222 OFFCURVE",
"457 268 CURVE",
"384 268 LINE",
"361 210 OFFCURVE",
"318 182 OFFCURVE",
"252 182 CURVE SMOOTH",
"189 182 OFFCURVE",
"151 203 OFFCURVE",
"151 258 CURVE SMOOTH",
"151 319 OFFCURVE",
"203 361 OFFCURVE",
"282 379 CURVE",
"204 374 LINE",
"422 374 LINE",
"422 405 LINE SMOOTH",
"422 520 OFFCURVE",
"352 598 OFFCURVE",
"242 598 CURVE SMOOTH",
"141 598 OFFCURVE",
"94 555 OFFCURVE",
"94 499 CURVE SMOOTH",
"94 485 OFFCURVE",
"96 466 OFFCURVE",
"103 452 CURVE",
"235 460 LINE",
"234 467 OFFCURVE",
"234 473 OFFCURVE",
"234 477 CURVE SMOOTH",
"234 498 OFFCURVE",
"244 515 OFFCURVE",
"272 515 CURVE SMOOTH",
"310 515 OFFCURVE",
"327 480 OFFCURVE",
"335 442 CURVE",
"21 442 LINE",
"21 374 LINE",
"65 374 LINE SMOOTH",
"98 374 OFFCURVE",
"151 376 OFFCURVE",
"179 380 CURVE",
"211 409 LINE",
"114 379 OFFCURVE",
"44 303 OFFCURVE",
"44 184 CURVE SMOOTH",
"44 62 OFFCURVE",
"109 -10 OFFCURVE",
"225 -10 CURVE SMOOTH",
"336 -10 OFFCURVE",
"397 65 OFFCURVE",
"420 135 CURVE",
"448 49 OFFCURVE",
"503 -10 OFFCURVE",
"616 -10 CURVE SMOOTH"
);
},
{
closed = 1;
nodes = (
"591 540 OFFCURVE",
"633 585 OFFCURVE",
"665 667 CURVE",
"602 717 LINE",
"578 653 OFFCURVE",
"563 625 OFFCURVE",
"515 625 CURVE SMOOTH",
"481 625 OFFCURVE",
"460 641 OFFCURVE",
"448 676 CURVE SMOOTH",
"430 728 OFFCURVE",
"399 765 OFFCURVE",
"348 781 CURVE",
"326 737 LINE",
"342 732 OFFCURVE",
"354 720 OFFCURVE",
"366 672 CURVE SMOOTH",
"389 583 OFFCURVE",
"430 540 OFFCURVE",
"509 540 CURVE SMOOTH"
);
}
);
width = 875;
},
{
layerId = UUID0;
paths = (
{
closed = 1;
nodes = (
"703 -10 OFFCURVE",
"795 81 OFFCURVE",
"795 323 CURVE SMOOTH",
"795 656 OFFCURVE",
"557 790 OFFCURVE",
"286 812 CURVE",
"279 756 LINE",
"547 743 OFFCURVE",
"732 613 OFFCURVE",
"732 330 CURVE SMOOTH",
"732 161 OFFCURVE",
"662 95 OFFCURVE",
"571 95 CURVE SMOOTH",
"498 95 OFFCURVE",
"437 131 OFFCURVE",
"430 204 CURVE",
"377 204 LINE",
"362 146 OFFCURVE",
"328 95 OFFCURVE",
"239 95 CURVE SMOOTH",
"155 95 OFFCURVE",
"110 134 OFFCURVE",
"110 214 CURVE SMOOTH",
"110 304 OFFCURVE",
"174 378 OFFCURVE",
"311 397 CURVE",
"253 391 LINE",
"405 391 LINE",
"405 405 LINE SMOOTH",
"405 516 OFFCURVE",
"342 589 OFFCURVE",
"229 589 CURVE SMOOTH",
"157 589 OFFCURVE",
"101 555 OFFCURVE",
"101 490 CURVE SMOOTH",
"101 482 OFFCURVE",
"103 463 OFFCURVE",
"107 452 CURVE",
"189 459 LINE",
"187 465 OFFCURVE",
"186 475 OFFCURVE",
"186 481 CURVE SMOOTH",
"186 515 OFFCURVE",
"206 534 OFFCURVE",
"246 534 CURVE SMOOTH",
"312 534 OFFCURVE",
"339 488 OFFCURVE",
"348 442 CURVE",
"24 442 LINE",
"24 391 LINE",
"72 391 LINE SMOOTH",
"118 391 OFFCURVE",
"188 393 OFFCURVE",
"216 397 CURVE",
"223 415 LINE",
"121 382 OFFCURVE",
"48 308 OFFCURVE",
"48 187 CURVE SMOOTH",
"48 62 OFFCURVE",
"118 -10 OFFCURVE",
"223 -10 CURVE SMOOTH",
"323 -10 OFFCURVE",
"380 59 OFFCURVE",
"403 129 CURVE",
"432 44 OFFCURVE",
"484 -10 OFFCURVE",
"585 -10 CURVE SMOOTH"
);
},
{
closed = 1;
nodes = (
"553 556 OFFCURVE",
"594 615 OFFCURVE",
"620 680 CURVE",
"571 709 LINE",
"551 648 OFFCURVE",
"524 617 OFFCURVE",
"478 617 CURVE SMOOTH",
"429 617 OFFCURVE",
"406 641 OFFCURVE",
"391 696 CURVE SMOOTH",
"377 745 OFFCURVE",
"351 771 OFFCURVE",
"302 797 CURVE",
"290 759 LINE",
"306 754 OFFCURVE",
"323 741 OFFCURVE",
"336 690 CURVE SMOOTH",
"354 619 OFFCURVE",
"384 556 OFFCURVE",
"471 556 CURVE SMOOTH"
);
}
);
width = 840;
}
);
rightKerningGroup = tthasinh;
unicode = 0DAA;
},
{
glyphname = nnasinh;
lastChange = "2016-08-23 15:05:55 +0000";
layers = (
{
layerId = "AF791F9F-5317-4D76-BDD4-1652E63983EA";
paths = (
{
closed = 1;
nodes = (
"21 122 LINE",
"38 140 LINE",
"307 375 OFFCURVE",
"576 606 OFFCURVE",
"847 836 CURVE",
"830 856 LINE",
"557 622 OFFCURVE",
"280 383 OFFCURVE",
"1 141 CURVE"
);
},
{
closed = 1;
nodes = (
"424 170 OFFCURVE",
"479 207 OFFCURVE",
"479 279 CURVE SMOOTH",
"479 328 OFFCURVE",
"443 376 OFFCURVE",
"377 376 CURVE SMOOTH",
"318 376 OFFCURVE",
"274 338 OFFCURVE",
"274 280 CURVE SMOOTH",
"274 246 OFFCURVE",
"290 204 OFFCURVE",
"349 190 CURVE",
"347 193 LINE",
"209 193 OFFCURVE",
"114 258 OFFCURVE",
"114 382 CURVE SMOOTH",
"114 488 OFFCURVE",
"205 564 OFFCURVE",
"345 564 CURVE SMOOTH",
"520 564 OFFCURVE",
"621 442 OFFCURVE",
"621 295 CURVE SMOOTH",
"621 116 OFFCURVE",
"529 17 OFFCURVE",
"358 17 CURVE SMOOTH",
"228 17 OFFCURVE",
"143 82 OFFCURVE",
"60 169 CURVE",
"33 154 LINE",
"21 122 LINE",
"49 143 LINE",
"123 67 OFFCURVE",
"212 -10 OFFCURVE",
"362 -10 CURVE SMOOTH",
"549 -10 OFFCURVE",
"648 110 OFFCURVE",
"648 294 CURVE SMOOTH",
"648 442 OFFCURVE",
"547 589 OFFCURVE",
"345 589 CURVE SMOOTH",
"198 589 OFFCURVE",
"87 504 OFFCURVE",
"87 382 CURVE SMOOTH",
"87 263 OFFCURVE",
"183 170 OFFCURVE",
"330 170 CURVE SMOOTH"
);
},
{
closed = 1;
nodes = (
"301 316 OFFCURVE",
"323 351 OFFCURVE",
"376 351 CURVE SMOOTH",
"425 351 OFFCURVE",
"453 317 OFFCURVE",
"453 276 CURVE SMOOTH",
"453 228 OFFCURVE",
"417 206 OFFCURVE",
"376 206 CURVE SMOOTH",
"335 206 OFFCURVE",
"301 234 OFFCURVE",
"301 280 CURVE SMOOTH"
);
},
{
closed = 1;
nodes = (
"645 329 LINE",
"646 395 OFFCURVE",
"669 459 OFFCURVE",
"714 459 CURVE SMOOTH",
"764 459 OFFCURVE",
"777 394 OFFCURVE",
"783 325 CURVE",
"809 325 LINE",
"815 418 OFFCURVE",
"851 479 OFFCURVE",
"909 479 CURVE SMOOTH",
"977 479 OFFCURVE",
"1022 408 OFFCURVE",
"1022 250 CURVE SMOOTH",
"1022 78 OFFCURVE",
"976 15 OFFCURVE",
"900 15 CURVE SMOOTH",
"842 15 OFFCURVE",
"799 51 OFFCURVE",
"770 144 CURVE",
"744 135 LINE",
"776 48 OFFCURVE",
"818 -10 OFFCURVE",
"899 -10 CURVE SMOOTH",
"986 -10 OFFCURVE",
"1049 49 OFFCURVE",
"1049 247 CURVE SMOOTH",
"1049 435 OFFCURVE",
"987 504 OFFCURVE",
"914 504 CURVE SMOOTH",
"859 504 OFFCURVE",
"811 468 OFFCURVE",
"796 381 CURVE",
"788 443 OFFCURVE",
"763 484 OFFCURVE",
"717 484 CURVE SMOOTH",
"661 484 OFFCURVE",
"623 421 OFFCURVE",
"623 332 CURVE"
);
}
);
width = 1094;
},
{
layerId = "32AB916E-052E-46AB-9DD5-C403DD480EC5";
paths = (
{
closed = 1;
nodes = (
"60 124 LINE",
"78 157 LINE",
"322 370 OFFCURVE",
"501 526 OFFCURVE",
"885 785 CURVE",
"818 870 LINE",
"578 683 OFFCURVE",
"246 400 OFFCURVE",
"-4 185 CURVE"
);
},
{
closed = 1;
nodes = (
"486 215 OFFCURVE",
"545 257 OFFCURVE",
"545 342 CURVE SMOOTH",
"545 402 OFFCURVE",
"506 456 OFFCURVE",
"415 456 CURVE SMOOTH",
"347 456 OFFCURVE",
"295 408 OFFCURVE",
"295 343 CURVE SMOOTH",
"295 312 OFFCURVE",
"309 279 OFFCURVE",
"331 262 CURVE",
"327 288 LINE",
"200 303 OFFCURVE",
"169 355 OFFCURVE",
"169 411 CURVE SMOOTH",
"169 482 OFFCURVE",
"236 525 OFFCURVE",
"380 525 CURVE SMOOTH",
"556 525 OFFCURVE",
"640 449 OFFCURVE",
"640 342 CURVE SMOOTH",
"640 209 OFFCURVE",
"538 158 OFFCURVE",
"381 158 CURVE SMOOTH",
"271 158 OFFCURVE",
"176 191 OFFCURVE",
"141 223 CURVE",
"61 188 LINE",
"60 124 LINE",
"109 133 LINE",
"165 66 OFFCURVE",
"233 -10 OFFCURVE",
"420 -10 CURVE SMOOTH",
"591 -10 OFFCURVE",
"740 85 OFFCURVE",
"740 295 CURVE SMOOTH",
"740 474 OFFCURVE",
"610 598 OFFCURVE",
"378 598 CURVE SMOOTH",
"173 598 OFFCURVE",
"86 514 OFFCURVE",
"86 413 CURVE SMOOTH",
"86 278 OFFCURVE",
"216 215 OFFCURVE",
"377 215 CURVE SMOOTH"
);
},
{
closed = 1;
nodes = (
"368 367 OFFCURVE",
"385 390 OFFCURVE",
"415 390 CURVE SMOOTH",
"447 390 OFFCURVE",
"464 370 OFFCURVE",
"464 341 CURVE SMOOTH",
"464 307 OFFCURVE",
"445 292 OFFCURVE",
"414 292 CURVE SMOOTH",
"388 292 OFFCURVE",
"368 306 OFFCURVE",
"368 341 CURVE SMOOTH"
);
},
{
closed = 1;
nodes = (
"735 329 LINE",
"735 380 OFFCURVE",
"746 406 OFFCURVE",
"772 406 CURVE SMOOTH",
"799 406 OFFCURVE",
"813 368 OFFCURVE",
"815 304 CURVE",
"894 304 LINE",
"894 385 OFFCURVE",
"914 431 OFFCURVE",
"953 431 CURVE SMOOTH",
"999 431 OFFCURVE",
"1013 369 OFFCURVE",
"1013 249 CURVE SMOOTH",
"1013 123 OFFCURVE",
"999 63 OFFCURVE",
"935 63 CURVE SMOOTH",
"884 63 OFFCURVE",
"857 96 OFFCURVE",
"828 155 CURVE",
"760 122 LINE",
"794 44 OFFCURVE",
"854 -10 OFFCURVE",
"956 -10 CURVE SMOOTH",
"1079 -10 OFFCURVE",
"1170 50 OFFCURVE",
"1170 249 CURVE SMOOTH",
"1170 437 OFFCURVE",
"1073 504 OFFCURVE",
"979 504 CURVE SMOOTH",
"910 504 OFFCURVE",
"872 470 OFFCURVE",
"849 437 CURVE",
"827 465 OFFCURVE",
"802 484 OFFCURVE",
"762 484 CURVE SMOOTH",
"691 484 OFFCURVE",
"655 419 OFFCURVE",
"655 332 CURVE"
);
}
);
width = 1204;
},
{
layerId = UUID0;
paths = (
{
closed = 1;
nodes = (
"36 125 LINE",
"69 153 LINE",
"381 422 OFFCURVE",
"510 527 OFFCURVE",
"894 800 CURVE",
"848 856 LINE",
"606 667 OFFCURVE",
"240 366 OFFCURVE",
"-4 161 CURVE"
);
},
{
closed = 1;
nodes = (
"473 170 OFFCURVE",
"526 216 OFFCURVE",
"526 285 CURVE SMOOTH",
"526 353 OFFCURVE",
"482 399 OFFCURVE",
"407 399 CURVE SMOOTH",
"347 399 OFFCURVE",
"290 358 OFFCURVE",
"290 294 CURVE SMOOTH",
"290 267 OFFCURVE",
"301 236 OFFCURVE",
"327 219 CURVE",
"330 223 LINE",
"203 241 OFFCURVE",
"149 308 OFFCURVE",
"149 384 CURVE SMOOTH",
"149 482 OFFCURVE",
"232 537 OFFCURVE",
"370 537 CURVE SMOOTH",
"529 537 OFFCURVE",
"644 446 OFFCURVE",
"644 309 CURVE SMOOTH",
"644 172 OFFCURVE",
"553 89 OFFCURVE",
"377 89 CURVE SMOOTH",
"256 89 OFFCURVE",
"170 119 OFFCURVE",
"94 196 CURVE",
"53 165 LINE",
"36 125 LINE",
"78 131 LINE",
"148 59 OFFCURVE",
"231 -10 OFFCURVE",
"382 -10 CURVE SMOOTH",
"571 -10 OFFCURVE",
"703 80 OFFCURVE",
"703 294 CURVE SMOOTH",
"703 467 OFFCURVE",
"582 589 OFFCURVE",
"365 589 CURVE SMOOTH",
"189 589 OFFCURVE",
"89 504 OFFCURVE",
"89 386 CURVE SMOOTH",
"89 268 OFFCURVE",
"194 170 OFFCURVE",
"363 170 CURVE SMOOTH"
);
},
{
closed = 1;
nodes = (
"347 327 OFFCURVE",
"371 348 OFFCURVE",
"407 348 CURVE SMOOTH",
"450 348 OFFCURVE",
"469 323 OFFCURVE",
"469 290 CURVE SMOOTH",
"469 254 OFFCURVE",
"448 227 OFFCURVE",
"407 227 CURVE SMOOTH",
"366 227 OFFCURVE",
"347 253 OFFCURVE",
"347 287 CURVE SMOOTH"
);
},
{
closed = 1;
nodes = (
"699 329 LINE",
"699 394 OFFCURVE",
"713 432 OFFCURVE",
"749 432 CURVE SMOOTH",
"783 432 OFFCURVE",
"804 387 OFFCURVE",
"806 308 CURVE",
"858 308 LINE",
"858 404 OFFCURVE",
"884 454 OFFCURVE",
"936 454 CURVE SMOOTH",
"995 454 OFFCURVE",
"1021 376 OFFCURVE",
"1021 248 CURVE SMOOTH",
"1021 112 OFFCURVE",
"996 40 OFFCURVE",
"916 40 CURVE SMOOTH",
"862 40 OFFCURVE",
"831 65 OFFCURVE",
"797 144 CURVE",
"746 122 LINE",
"777 38 OFFCURVE",
"832 -10 OFFCURVE",
"923 -10 CURVE SMOOTH",
"1044 -10 OFFCURVE",
"1113 58 OFFCURVE",
"1113 248 CURVE SMOOTH",
"1113 433 OFFCURVE",
"1041 504 OFFCURVE",
"946 504 CURVE SMOOTH",
"889 504 OFFCURVE",
"853 476 OFFCURVE",
"827 434 CURVE",
"808 461 OFFCURVE",
"788 484 OFFCURVE",
"741 484 CURVE SMOOTH",
"678 484 OFFCURVE",
"644 419 OFFCURVE",
"644 332 CURVE"
);
}
);
width = 1155;
}
);
rightKerningGroup = nnasinh;
unicode = 0DAB;
},
{
glyphname = nnddasinh;
lastChange = "2016-08-23 15:05:55 +0000";
layers = (
{
layerId = "AF791F9F-5317-4D76-BDD4-1652E63983EA";
paths = (
{
closed = 1;
nodes = (
"816 -10 OFFCURVE",
"881 97 OFFCURVE",
"881 346 CURVE SMOOTH",
"881 611 OFFCURVE",
"772 804 OFFCURVE",
"495 804 CURVE SMOOTH",
"362 804 OFFCURVE",
"286 768 OFFCURVE",
"188 708 CURVE",
"204 685 LINE",
"293 748 OFFCURVE",
"382 779 OFFCURVE",
"495 779 CURVE SMOOTH",
"753 779 OFFCURVE",
"854 595 OFFCURVE",
"854 348 CURVE SMOOTH",
"854 122 OFFCURVE",
"803 17 OFFCURVE",
"681 17 CURVE SMOOTH",
"579 17 OFFCURVE",
"536 89 OFFCURVE",
"524 169 CURVE",
"500 169 LINE",
"480 96 OFFCURVE",
"450 17 OFFCURVE",
"344 17 CURVE SMOOTH",
"251 17 OFFCURVE",
"206 89 OFFCURVE",
"206 192 CURVE SMOOTH",
"206 312 OFFCURVE",
"278 402 OFFCURVE",
"446 421 CURVE",
"384 417 LINE",
"513 417 LINE",
"513 424 LINE SMOOTH",
"513 523 OFFCURVE",
"439 589 OFFCURVE",
"349 589 CURVE SMOOTH",
"283 589 OFFCURVE",
"232 547 OFFCURVE",
"232 495 CURVE SMOOTH",
"232 483 OFFCURVE",
"234 466 OFFCURVE",
"239 453 CURVE",
"264 458 LINE",
"261 467 OFFCURVE",
"259 479 OFFCURVE",
"259 492 CURVE SMOOTH",
"259 526 OFFCURVE",
"281 564 OFFCURVE",
"350 564 CURVE SMOOTH",
"432 564 OFFCURVE",
"476 507 OFFCURVE",
"487 442 CURVE",
"156 442 LINE",
"156 417 LINE",
"248 417 LINE SMOOTH",
"288 417 OFFCURVE",
"350 419 OFFCURVE",
"385 425 CURVE",
"393 428 LINE",
"249 407 OFFCURVE",
"179 312 OFFCURVE",
"179 192 CURVE SMOOTH",
"179 59 OFFCURVE",
"250 -10 OFFCURVE",
"344 -10 CURVE SMOOTH",
"439 -10 OFFCURVE",
"486 50 OFFCURVE",
"511 124 CURVE",
"536 42 OFFCURVE",
"587 -10 OFFCURVE",
"682 -10 CURVE SMOOTH"
);
},
{
closed = 1;
nodes = (
"43 223 OFFCURVE",
"90 139 OFFCURVE",
"159 71 CURVE",
"177 90 LINE",
"113 152 OFFCURVE",
"70 229 OFFCURVE",
"70 331 CURVE SMOOTH",
"70 479 OFFCURVE",
"170 566 OFFCURVE",
"290 566 CURVE SMOOTH",
"295 566 OFFCURVE",
"305 566 OFFCURVE",
"313 565 CURVE",
"337 584 LINE",
"321 587 OFFCURVE",
"305 589 OFFCURVE",
"293 589 CURVE SMOOTH",
"156 589 OFFCURVE",
"43 495 OFFCURVE",
"43 332 CURVE SMOOTH"
);
}
);
width = 928;
},
{
layerId = "32AB916E-052E-46AB-9DD5-C403DD480EC5";
paths = (
{
closed = 1;
nodes = (
"887 -10 OFFCURVE",
"1003 75 OFFCURVE",
"1003 345 CURVE SMOOTH",
"1003 654 OFFCURVE",
"829 804 OFFCURVE",
"570 804 CURVE SMOOTH",
"421 804 OFFCURVE",
"314 753 OFFCURVE",
"214 694 CURVE",
"256 625 LINE",
"341 685 OFFCURVE",
"446 731 OFFCURVE",
"571 731 CURVE SMOOTH",
"783 731 OFFCURVE",
"899 607 OFFCURVE",
"899 381 CURVE SMOOTH",
"899 222 OFFCURVE",
"832 182 OFFCURVE",
"752 182 CURVE SMOOTH",
"673 182 OFFCURVE",
"637 222 OFFCURVE",
"621 268 CURVE",
"548 268 LINE",
"525 210 OFFCURVE",
"482 182 OFFCURVE",
"416 182 CURVE SMOOTH",
"353 182 OFFCURVE",
"315 203 OFFCURVE",
"315 258 CURVE SMOOTH",
"315 319 OFFCURVE",
"367 361 OFFCURVE",
"446 379 CURVE",
"368 374 LINE",
"586 374 LINE",
"586 405 LINE SMOOTH",
"586 520 OFFCURVE",
"516 598 OFFCURVE",
"406 598 CURVE SMOOTH",
"305 598 OFFCURVE",
"263 555 OFFCURVE",
"263 499 CURVE SMOOTH",
"263 485 OFFCURVE",
"265 466 OFFCURVE",
"272 452 CURVE",
"400 460 LINE",
"399 467 OFFCURVE",
"399 473 OFFCURVE",
"399 477 CURVE SMOOTH",
"399 498 OFFCURVE",
"408 515 OFFCURVE",
"436 515 CURVE SMOOTH",
"474 515 OFFCURVE",
"491 480 OFFCURVE",
"499 442 CURVE",
"185 442 LINE",
"185 374 LINE",
"229 374 LINE SMOOTH",
"262 374 OFFCURVE",
"315 376 OFFCURVE",
"343 380 CURVE",
"375 409 LINE",
"278 379 OFFCURVE",
"208 303 OFFCURVE",
"208 184 CURVE SMOOTH",
"208 62 OFFCURVE",
"273 -10 OFFCURVE",
"389 -10 CURVE SMOOTH",
"500 -10 OFFCURVE",
"561 65 OFFCURVE",
"584 135 CURVE",
"611 48 OFFCURVE",
"667 -10 OFFCURVE",
"771 -10 CURVE SMOOTH"
);
},
{
closed = 1;
nodes = (
"32 205 OFFCURVE",
"84 120 OFFCURVE",
"144 57 CURVE",
"207 113 LINE",
"158 166 OFFCURVE",
"120 229 OFFCURVE",
"120 316 CURVE SMOOTH",
"120 452 OFFCURVE",
"219 523 OFFCURVE",
"310 523 CURVE SMOOTH",
"321 523 OFFCURVE",
"330 523 OFFCURVE",
"339 522 CURVE",
"371 590 LINE",
"355 593 OFFCURVE",
"339 595 OFFCURVE",
"309 595 CURVE SMOOTH",
"169 595 OFFCURVE",
"32 504 OFFCURVE",
"32 326 CURVE SMOOTH"
);
}
);
width = 1039;
},
{
layerId = UUID0;
paths = (
{
closed = 1;
nodes = (
"853 -10 OFFCURVE",
"945 78 OFFCURVE",
"945 345 CURVE SMOOTH",
"945 656 OFFCURVE",
"787 804 OFFCURVE",
"537 804 CURVE SMOOTH",
"393 804 OFFCURVE",
"295 760 OFFCURVE",
"205 699 CURVE",
"239 653 LINE",
"332 722 OFFCURVE",
"431 752 OFFCURVE",
"537 752 CURVE SMOOTH",
"767 752 OFFCURVE",
"882 607 OFFCURVE",
"882 361 CURVE SMOOTH",
"882 150 OFFCURVE",
"807 95 OFFCURVE",
"721 95 CURVE SMOOTH",
"647 95 OFFCURVE",
"587 131 OFFCURVE",
"580 204 CURVE",
"527 204 LINE",
"512 146 OFFCURVE",
"478 95 OFFCURVE",
"389 95 CURVE SMOOTH",
"305 95 OFFCURVE",
"260 134 OFFCURVE",
"260 214 CURVE SMOOTH",
"260 304 OFFCURVE",
"324 378 OFFCURVE",
"461 397 CURVE",
"403 391 LINE",
"555 391 LINE",
"555 405 LINE SMOOTH",
"555 516 OFFCURVE",
"492 589 OFFCURVE",
"379 589 CURVE SMOOTH",
"310 589 OFFCURVE",
"255 551 OFFCURVE",
"255 493 CURVE SMOOTH",
"255 482 OFFCURVE",
"257 463 OFFCURVE",
"261 452 CURVE",
"339 459 LINE",
"337 465 OFFCURVE",
"336 475 OFFCURVE",
"336 481 CURVE SMOOTH",
"336 515 OFFCURVE",
"356 534 OFFCURVE",
"396 534 CURVE SMOOTH",
"462 534 OFFCURVE",
"489 488 OFFCURVE",
"498 442 CURVE",
"174 442 LINE",
"174 391 LINE",
"222 391 LINE SMOOTH",
"268 391 OFFCURVE",
"338 393 OFFCURVE",
"366 397 CURVE",
"373 415 LINE",
"271 382 OFFCURVE",
"198 308 OFFCURVE",
"198 187 CURVE SMOOTH",
"198 62 OFFCURVE",
"268 -10 OFFCURVE",
"373 -10 CURVE SMOOTH",
"473 -10 OFFCURVE",
"530 59 OFFCURVE",
"553 129 CURVE",
"582 44 OFFCURVE",
"634 -10 OFFCURVE",
"735 -10 CURVE SMOOTH"
);
},
{
closed = 1;
nodes = (
"40 218 OFFCURVE",
"86 131 OFFCURVE",
"156 64 CURVE",
"194 102 LINE",
"137 159 OFFCURVE",
"100 230 OFFCURVE",
"100 324 CURVE SMOOTH",
"100 470 OFFCURVE",
"200 540 OFFCURVE",
"299 540 CURVE SMOOTH",
"307 540 OFFCURVE",
"316 539 OFFCURVE",
"325 539 CURVE",
"357 584 LINE",
"341 587 OFFCURVE",
"325 589 OFFCURVE",
"309 589 CURVE SMOOTH",
"171 589 OFFCURVE",
"40 504 OFFCURVE",
"40 329 CURVE SMOOTH"
);
}
);
width = 990;
}
);
rightKerningGroup = ngasinh;
unicode = 0DAC;
},
{
glyphname = tasinh;
lastChange = "2016-08-23 15:05:55 +0000";
layers = (
{
layerId = "AF791F9F-5317-4D76-BDD4-1652E63983EA";
paths = (
{
closed = 1;
nodes = (
"535 -10 OFFCURVE",
"577 124 OFFCURVE",
"577 224 CURVE SMOOTH",
"577 301 OFFCURVE",
"546 442 OFFCURVE",
"341 442 CURVE SMOOTH",
"319 442 OFFCURVE",
"298 437 OFFCURVE",
"272 430 CURVE",
"250 408 LINE",
"283 417 OFFCURVE",
"309 417 OFFCURVE",
"332 417 CURVE SMOOTH",
"523 417 OFFCURVE",
"550 302 OFFCURVE",
"550 224 CURVE SMOOTH",
"550 132 OFFCURVE",
"516 17 OFFCURVE",
"332 17 CURVE SMOOTH",
"194 17 OFFCURVE",
"121 73 OFFCURVE",
"121 159 CURVE SMOOTH",
"121 173 OFFCURVE",
"122 183 OFFCURVE",
"124 193 CURVE",
"44 202 LINE",
"40 177 LINE",
"106 170 LINE",
"99 187 LINE",
"96 179 OFFCURVE",
"95 169 OFFCURVE",
"95 157 CURVE SMOOTH",
"95 34 OFFCURVE",
"217 -10 OFFCURVE",
"331 -10 CURVE SMOOTH"
);
},
{
closed = 1;
nodes = (
"814 -6 OFFCURVE",
"880 112 OFFCURVE",
"880 272 CURVE SMOOTH",
"880 458 OFFCURVE",
"785 589 OFFCURVE",
"601 589 CURVE SMOOTH",
"429 589 OFFCURVE",
"242 422 OFFCURVE",
"19 195 CURVE",
"40 177 LINE",
"116 260 OFFCURVE",
"186 336 OFFCURVE",
"294 419 CURVE",
"301 424 OFFCURVE",
"302 429 OFFCURVE",
"309 433 CURVE",
"408 509 OFFCURVE",
"502 563 OFFCURVE",
"603 563 CURVE SMOOTH",
"782 563 OFFCURVE",
"853 429 OFFCURVE",
"853 267 CURVE SMOOTH",
"853 128 OFFCURVE",
"804 19 OFFCURVE",
"652 19 CURVE SMOOTH",
"617 19 OFFCURVE",
"583 24 OFFCURVE",
"557 34 CURVE",
"550 8 LINE",
"580 -3 OFFCURVE",
"620 -6 OFFCURVE",
"657 -6 CURVE SMOOTH"
);
},
{
closed = 1;
nodes = (
"92 571 OFFCURVE",
"45 530 OFFCURVE",
"45 462 CURVE SMOOTH",
"45 424 OFFCURVE",
"54 397 OFFCURVE",
"67 369 CURVE",
"92 377 LINE",
"81 402 OFFCURVE",
"73 422 OFFCURVE",
"73 464 CURVE SMOOTH",
"73 505 OFFCURVE",
"100 546 OFFCURVE",
"154 546 CURVE SMOOTH",
"210 546 OFFCURVE",
"249 502 OFFCURVE",
"277 421 CURVE",
"299 435 LINE",
"270 503 OFFCURVE",
"234 571 OFFCURVE",
"156 571 CURVE SMOOTH"
);
}
);
width = 924;
},
{
layerId = "32AB916E-052E-46AB-9DD5-C403DD480EC5";
paths = (
{
closed = 1;
nodes = (
"588 -10 OFFCURVE",
"638 115 OFFCURVE",
"638 231 CURVE SMOOTH",
"638 314 OFFCURVE",
"603 442 OFFCURVE",
"391 442 CURVE SMOOTH",
"321 442 OFFCURVE",
"279 431 OFFCURVE",
"253 424 CURVE",
"227 367 LINE",
"267 372 OFFCURVE",
"329 374 OFFCURVE",
"362 374 CURVE SMOOTH",
"501 374 OFFCURVE",
"538 332 OFFCURVE",
"538 276 CURVE SMOOTH",
"538 211 OFFCURVE",
"473 182 OFFCURVE",
"361 182 CURVE SMOOTH",
"260 182 OFFCURVE",
"204 206 OFFCURVE",
"204 251 CURVE SMOOTH",
"204 253 OFFCURVE",
"204 257 OFFCURVE",
"205 263 CURVE",
"124 270 LINE",
"73 166 LINE",
"149 161 LINE",
"124 223 LINE",
"121 212 OFFCURVE",
"119 201 OFFCURVE",
"119 191 CURVE SMOOTH",
"119 29 OFFCURVE",
"229 -10 OFFCURVE",
"374 -10 CURVE SMOOTH"
);
},
{
closed = 1;
nodes = (
"877 -8 OFFCURVE",
"955 112 OFFCURVE",
"955 273 CURVE SMOOTH",
"955 480 OFFCURVE",
"833 598 OFFCURVE",
"624 598 CURVE SMOOTH",
"418 598 OFFCURVE",
"242 435 OFFCURVE",
"12 217 CURVE",
"73 166 LINE",
"149 250 OFFCURVE",
"232 327 OFFCURVE",
"332 397 CURVE",
"339 402 OFFCURVE",
"354 416 OFFCURVE",
"361 420 CURVE",
"416 451 OFFCURVE",
"481 471 OFFCURVE",
"592 471 CURVE SMOOTH",
"758 471 OFFCURVE",
"832 372 OFFCURVE",
"832 244 CURVE SMOOTH",
"832 136 OFFCURVE",
"794 65 OFFCURVE",
"684 65 CURVE SMOOTH",
"657 65 OFFCURVE",
"628 69 OFFCURVE",
"599 79 CURVE",
"576 7 LINE",
"604 -4 OFFCURVE",
"648 -8 OFFCURVE",
"685 -8 CURVE SMOOTH"
);
},
{
closed = 1;
nodes = (
"92 578 OFFCURVE",
"28 542 OFFCURVE",
"28 458 CURVE SMOOTH",
"28 423 OFFCURVE",
"41 393 OFFCURVE",
"55 369 CURVE",
"181 402 LINE",
"175 418 OFFCURVE",
"170 433 OFFCURVE",
"170 457 CURVE SMOOTH",
"170 480 OFFCURVE",
"182 495 OFFCURVE",
"206 495 CURVE SMOOTH",
"238 495 OFFCURVE",
"255 459 OFFCURVE",
"266 419 CURVE",
"344 438 LINE",
"327 504 OFFCURVE",
"287 578 OFFCURVE",
"172 578 CURVE SMOOTH"
);
}
);
width = 987;
},
{
layerId = UUID0;
paths = (
{
closed = 1;
nodes = (
"556 -10 OFFCURVE",
"595 123 OFFCURVE",
"595 224 CURVE SMOOTH",
"595 282 OFFCURVE",
"576 442 OFFCURVE",
"352 442 CURVE SMOOTH",
"308 442 OFFCURVE",
"279 431 OFFCURVE",
"253 424 CURVE",
"222 386 LINE",
"267 391 OFFCURVE",
"329 391 OFFCURVE",
"340 391 CURVE SMOOTH",
"501 391 OFFCURVE",
"539 314 OFFCURVE",
"539 237 CURVE SMOOTH",
"539 157 OFFCURVE",
"482 95 OFFCURVE",
"340 95 CURVE SMOOTH",
"242 95 OFFCURVE",
"151 120 OFFCURVE",
"151 199 CURVE SMOOTH",
"151 205 OFFCURVE",
"152 209 OFFCURVE",
"154 219 CURVE",
"85 228 LINE",
"61 172 LINE",
"130 162 LINE",
"107 207 LINE",
"102 193 OFFCURVE",
"100 179 OFFCURVE",
"100 167 CURVE SMOOTH",
"100 33 OFFCURVE",
"232 -10 OFFCURVE",
"342 -10 CURVE SMOOTH"
);
},
{
closed = 1;
nodes = (
"824 -8 OFFCURVE",
"901 112 OFFCURVE",
"901 275 CURVE SMOOTH",
"901 466 OFFCURVE",
"791 589 OFFCURVE",
"603 589 CURVE SMOOTH",
"409 589 OFFCURVE",
"246 428 OFFCURVE",
"17 206 CURVE",
"61 172 LINE",
"141 256 OFFCURVE",
"223 340 OFFCURVE",
"322 414 CURVE",
"329 419 OFFCURVE",
"334 426 OFFCURVE",
"341 430 CURVE",
"418 481 OFFCURVE",
"482 504 OFFCURVE",
"590 504 CURVE SMOOTH",
"760 504 OFFCURVE",
"837 392 OFFCURVE",
"837 259 CURVE SMOOTH",
"837 128 OFFCURVE",
"788 44 OFFCURVE",
"657 44 CURVE SMOOTH",
"631 44 OFFCURVE",
"602 50 OFFCURVE",
"576 60 CURVE",
"560 11 LINE",
"599 -4 OFFCURVE",
"630 -8 OFFCURVE",
"667 -8 CURVE SMOOTH"
);
},
{
closed = 1;
nodes = (
"90 571 OFFCURVE",
"34 530 OFFCURVE",
"34 448 CURVE SMOOTH",
"34 420 OFFCURVE",
"44 387 OFFCURVE",
"57 367 CURVE",
"133 386 LINE",
"126 401 OFFCURVE",
"119 422 OFFCURVE",
"119 450 CURVE SMOOTH",
"119 478 OFFCURVE",
"131 514 OFFCURVE",
"173 514 CURVE SMOOTH",
"217 514 OFFCURVE",
"244 480 OFFCURVE",
"267 419 CURVE",
"316 439 LINE",
"291 507 OFFCURVE",
"244 571 OFFCURVE",
"163 571 CURVE SMOOTH"
);
}
);
width = 942;
}
);
rightKerningGroup = tasinh;
unicode = 0DAD;
},
{
glyphname = thasinh;
lastChange = "2016-08-23 15:05:55 +0000";
layers = (
{
layerId = "AF791F9F-5317-4D76-BDD4-1652E63983EA";
paths = (
{
closed = 1;
nodes = (
"572 -10 OFFCURVE",
"709 162 OFFCURVE",
"709 400 CURVE SMOOTH",
"709 674 OFFCURVE",
"504 789 OFFCURVE",
"256 812 CURVE",
"253 787 LINE",
"479 770 OFFCURVE",
"682 668 OFFCURVE",
"682 401 CURVE SMOOTH",
"682 178 OFFCURVE",
"553 17 OFFCURVE",
"328 17 CURVE SMOOTH",
"163 17 OFFCURVE",
"70 98 OFFCURVE",
"70 260 CURVE SMOOTH",
"70 391 OFFCURVE",
"152 479 OFFCURVE",
"313 479 CURVE SMOOTH",
"345 479 OFFCURVE",
"373 475 OFFCURVE",
"404 467 CURVE",
"408 492 LINE",
"381 499 OFFCURVE",
"345 504 OFFCURVE",
"312 504 CURVE SMOOTH",
"142 504 OFFCURVE",
"43 409 OFFCURVE",
"43 260 CURVE SMOOTH",
"43 86 OFFCURVE",
"150 -10 OFFCURVE",
"328 -10 CURVE SMOOTH"
);
},
{
closed = 1;
nodes = (
"524 582 OFFCURVE",
"551 627 OFFCURVE",
"577 692 CURVE",
"554 705 LINE",
"534 644 OFFCURVE",
"504 608 OFFCURVE",
"455 608 CURVE SMOOTH",
"395 608 OFFCURVE",
"365 639 OFFCURVE",
"351 697 CURVE SMOOTH",
"340 743 OFFCURVE",
"327 779 OFFCURVE",
"292 798 CURVE",
"269 787 LINE",
"289 783 OFFCURVE",
"307 766 OFFCURVE",
"325 691 CURVE SMOOTH",
"340 628 OFFCURVE",
"378 582 OFFCURVE",
"452 582 CURVE SMOOTH"
);
}
);
width = 752;
},
{
layerId = "32AB916E-052E-46AB-9DD5-C403DD480EC5";
paths = (
{
closed = 1;
nodes = (
"650 -10 OFFCURVE",
"776 165 OFFCURVE",
"776 403 CURVE SMOOTH",
"776 659 OFFCURVE",
"592 790 OFFCURVE",
"305 817 CURVE",
"294 734 LINE",
"526 726 OFFCURVE",
"672 638 OFFCURVE",
"672 439 CURVE SMOOTH",
"672 313 OFFCURVE",
"597 188 OFFCURVE",
"348 188 CURVE SMOOTH",
"210 188 OFFCURVE",
"135 224 OFFCURVE",
"135 315 CURVE SMOOTH",
"135 392 OFFCURVE",
"196 437 OFFCURVE",
"303 437 CURVE SMOOTH",
"350 437 OFFCURVE",
"385 431 OFFCURVE",
"417 425 CURVE",
"431 497 LINE",
"399 504 OFFCURVE",
"354 510 OFFCURVE",
"310 510 CURVE SMOOTH",
"139 510 OFFCURVE",
"31 421 OFFCURVE",
"31 267 CURVE SMOOTH",
"31 88 OFFCURVE",
"156 -10 OFFCURVE",
"350 -10 CURVE SMOOTH"
);
},
{
closed = 1;
nodes = (
"565 540 OFFCURVE",
"607 585 OFFCURVE",
"639 667 CURVE",
"576 717 LINE",
"552 653 OFFCURVE",
"537 625 OFFCURVE",
"489 625 CURVE SMOOTH",
"455 625 OFFCURVE",
"434 641 OFFCURVE",
"422 676 CURVE SMOOTH",
"404 728 OFFCURVE",
"373 765 OFFCURVE",
"322 781 CURVE",
"300 737 LINE",
"316 732 OFFCURVE",
"328 720 OFFCURVE",
"340 672 CURVE SMOOTH",
"363 583 OFFCURVE",
"404 540 OFFCURVE",
"483 540 CURVE SMOOTH"
);
}
);
width = 808;
},
{
layerId = UUID0;
paths = (
{
closed = 1;
nodes = (
"617 -10 OFFCURVE",
"742 165 OFFCURVE",
"742 403 CURVE SMOOTH",
"742 676 OFFCURVE",
"533 793 OFFCURVE",
"277 812 CURVE",
"270 756 LINE",
"483 746 OFFCURVE",
"679 671 OFFCURVE",
"679 408 CURVE SMOOTH",
"679 255 OFFCURVE",
"600 95 OFFCURVE",
"347 95 CURVE SMOOTH",
"197 95 OFFCURVE",
"101 153 OFFCURVE",
"101 279 CURVE SMOOTH",
"101 384 OFFCURVE",
"167 452 OFFCURVE",
"306 452 CURVE SMOOTH",
"342 452 OFFCURVE",
"380 447 OFFCURVE",
"411 441 CURVE",
"421 492 LINE",
"392 499 OFFCURVE",
"351 504 OFFCURVE",
"309 504 CURVE SMOOTH",
"149 504 OFFCURVE",
"40 417 OFFCURVE",
"40 266 CURVE SMOOTH",
"40 86 OFFCURVE",
"160 -10 OFFCURVE",
"345 -10 CURVE SMOOTH"
);
},
{
closed = 1;
nodes = (
"544 556 OFFCURVE",
"585 615 OFFCURVE",
"611 680 CURVE",
"562 709 LINE",
"542 648 OFFCURVE",
"515 617 OFFCURVE",
"469 617 CURVE SMOOTH",
"420 617 OFFCURVE",
"397 641 OFFCURVE",
"382 696 CURVE SMOOTH",
"368 745 OFFCURVE",
"342 771 OFFCURVE",
"293 797 CURVE",
"281 759 LINE",
"297 754 OFFCURVE",
"314 741 OFFCURVE",
"327 690 CURVE SMOOTH",
"345 619 OFFCURVE",
"375 556 OFFCURVE",
"462 556 CURVE SMOOTH"
);
}
);
width = 782;
}
);
rightKerningGroup = thasinh;
unicode = 0DAE;
},
{
glyphname = dasinh;
lastChange = "2016-08-23 15:05:55 +0000";
layers = (
{
layerId = "AF791F9F-5317-4D76-BDD4-1652E63983EA";
paths = (
{
closed = 1;
nodes = (
"362 -10 OFFCURVE",
"431 7 OFFCURVE",
"486 33 CURVE",
"475 57 LINE",
"414 28 OFFCURVE",
"376 16 OFFCURVE",
"305 16 CURVE SMOOTH",
"144 16 OFFCURVE",
"68 85 OFFCURVE",
"68 213 CURVE SMOOTH",
"68 350 OFFCURVE",
"176 417 OFFCURVE",
"366 417 CURVE SMOOTH",
"457 417 LINE",
"457 424 LINE SMOOTH",
"457 523 OFFCURVE",
"383 589 OFFCURVE",
"293 589 CURVE SMOOTH",
"222 589 OFFCURVE",
"176 547 OFFCURVE",
"176 495 CURVE SMOOTH",
"176 474 OFFCURVE",
"181 451 OFFCURVE",
"190 436 CURVE",
"214 444 LINE",
"206 459 OFFCURVE",
"203 475 OFFCURVE",
"203 492 CURVE SMOOTH",
"203 526 OFFCURVE",
"225 564 OFFCURVE",
"294 564 CURVE SMOOTH",
"376 564 OFFCURVE",
"420 507 OFFCURVE",
"431 442 CURVE",
"368 442 LINE SMOOTH",
"166 442 OFFCURVE",
"40 370 OFFCURVE",
"40 213 CURVE SMOOTH",
"40 76 OFFCURVE",
"121 -10 OFFCURVE",
"299 -10 CURVE SMOOTH"
);
},
{
closed = 1;
nodes = (
"459 -284 OFFCURVE",
"503 -265 OFFCURVE",
"540 -236 CURVE",
"527 -215 LINE",
"490 -244 OFFCURVE",
"458 -259 OFFCURVE",
"401 -259 CURVE SMOOTH",
"342 -259 OFFCURVE",
"286 -229 OFFCURVE",
"286 -152 CURVE SMOOTH",
"286 -85 OFFCURVE",
"330 -35 OFFCURVE",
"402 4 CURVE",
"357 -1 LINE",
"299 -37 OFFCURVE",
"259 -82 OFFCURVE",
"259 -151 CURVE SMOOTH",
"259 -229 OFFCURVE",
"310 -284 OFFCURVE",
"400 -284 CURVE SMOOTH"
);
}
);
width = 487;
},
{
layerId = "32AB916E-052E-46AB-9DD5-C403DD480EC5";
paths = (
{
closed = 1;
nodes = (
"433 -10 OFFCURVE",
"514 8 OFFCURVE",
"575 42 CURVE",
"546 113 LINE",
"488 82 OFFCURVE",
"444 74 OFFCURVE",
"383 74 CURVE SMOOTH",
"290 74 OFFCURVE",
"220 121 OFFCURVE",
"220 218 CURVE SMOOTH",
"220 318 OFFCURVE",
"276 374 OFFCURVE",
"438 374 CURVE SMOOTH",
"544 374 LINE",
"544 396 LINE SMOOTH",
"544 519 OFFCURVE",
"474 598 OFFCURVE",
"365 598 CURVE SMOOTH",
"265 598 OFFCURVE",
"217 555 OFFCURVE",
"217 499 CURVE SMOOTH",
"217 479 OFFCURVE",
"221 459 OFFCURVE",
"229 445 CURVE",
"359 458 LINE",
"358 464 OFFCURVE",
"357 471 OFFCURVE",
"357 478 CURVE SMOOTH",
"357 498 OFFCURVE",
"367 515 OFFCURVE",
"395 515 CURVE SMOOTH",
"434 515 OFFCURVE",
"449 481 OFFCURVE",
"458 442 CURVE",
"409 442 LINE SMOOTH",
"164 442 OFFCURVE",
"28 368 OFFCURVE",
"28 213 CURVE SMOOTH",
"28 75 OFFCURVE",
"124 -10 OFFCURVE",
"349 -10 CURVE SMOOTH"
);
},
{
closed = 1;
nodes = (
"517 -286 OFFCURVE",
"569 -273 OFFCURVE",
"624 -241 CURVE",
"587 -176 LINE",
"555 -197 OFFCURVE",
"528 -204 OFFCURVE",
"498 -204 CURVE SMOOTH",
"442 -204 OFFCURVE",
"406 -174 OFFCURVE",
"406 -119 CURVE SMOOTH",
"406 -63 OFFCURVE",
"433 -30 OFFCURVE",
"520 26 CURVE",
"406 10 LINE",
"328 -18 OFFCURVE",
"271 -63 OFFCURVE",
"271 -143 CURVE SMOOTH",
"271 -230 OFFCURVE",
"339 -286 OFFCURVE",
"454 -286 CURVE SMOOTH"
);
}
);
width = 575;
},
{
layerId = UUID0;
paths = (
{
closed = 1;
nodes = (
"391 -10 OFFCURVE",
"478 8 OFFCURVE",
"531 38 CURVE",
"511 90 LINE",
"441 57 OFFCURVE",
"410 48 OFFCURVE",
"341 48 CURVE SMOOTH",
"207 48 OFFCURVE",
"137 123 OFFCURVE",
"137 217 CURVE SMOOTH",
"137 344 OFFCURVE",
"215 391 OFFCURVE",
"373 391 CURVE SMOOTH",
"499 391 LINE",
"499 405 LINE SMOOTH",
"499 518 OFFCURVE",
"439 589 OFFCURVE",
"321 589 CURVE SMOOTH",
"249 589 OFFCURVE",
"195 555 OFFCURVE",
"195 490 CURVE SMOOTH",
"195 466 OFFCURVE",
"201 453 OFFCURVE",
"206 442 CURVE",
"284 452 LINE",
"282 458 OFFCURVE",
"280 471 OFFCURVE",
"280 481 CURVE SMOOTH",
"280 506 OFFCURVE",
"291 534 OFFCURVE",
"336 534 CURVE SMOOTH",
"407 534 OFFCURVE",
"435 492 OFFCURVE",
"443 442 CURVE",
"379 442 LINE SMOOTH",
"205 442 OFFCURVE",
"36 397 OFFCURVE",
"36 212 CURVE SMOOTH",
"36 80 OFFCURVE",
"141 -10 OFFCURVE",
"322 -10 CURVE SMOOTH"
);
},
{
closed = 1;
nodes = (
"493 -284 OFFCURVE",
"547 -259 OFFCURVE",
"583 -230 CURVE",
"557 -185 LINE",
"520 -214 OFFCURVE",
"491 -228 OFFCURVE",
"446 -228 CURVE SMOOTH",
"391 -228 OFFCURVE",
"346 -198 OFFCURVE",
"346 -133 CURVE SMOOTH",
"346 -76 OFFCURVE",
"378 -32 OFFCURVE",
"464 19 CURVE",
"389 10 LINE",
"310 -28 OFFCURVE",
"265 -77 OFFCURVE",
"265 -143 CURVE SMOOTH",
"265 -225 OFFCURVE",
"310 -284 OFFCURVE",
"427 -284 CURVE SMOOTH"
);
}
);
width = 532;
}
);
leftKerningGroup = dasinh;
rightKerningGroup = dasinh;
unicode = 0DAF;
},
{
glyphname = dhasinh;
lastChange = "2016-08-23 15:05:55 +0000";
layers = (
{
layerId = "AF791F9F-5317-4D76-BDD4-1652E63983EA";
paths = (
{
closed = 1;
nodes = (
"681 -10 OFFCURVE",
"746 97 OFFCURVE",
"746 346 CURVE SMOOTH",
"746 610 OFFCURVE",
"637 804 OFFCURVE",
"360 804 CURVE SMOOTH",
"227 804 OFFCURVE",
"151 768 OFFCURVE",
"53 708 CURVE",
"69 685 LINE",
"158 748 OFFCURVE",
"247 779 OFFCURVE",
"360 779 CURVE SMOOTH",
"618 779 OFFCURVE",
"719 595 OFFCURVE",
"719 348 CURVE SMOOTH",
"719 122 OFFCURVE",
"668 17 OFFCURVE",
"546 17 CURVE SMOOTH",
"444 17 OFFCURVE",
"401 89 OFFCURVE",
"389 169 CURVE",
"365 169 LINE",
"345 96 OFFCURVE",
"315 17 OFFCURVE",
"211 17 CURVE SMOOTH",
"117 17 OFFCURVE",
"70 87 OFFCURVE",
"70 226 CURVE SMOOTH",
"70 395 OFFCURVE",
"168 479 OFFCURVE",
"306 479 CURVE SMOOTH",
"328 479 OFFCURVE",
"357 477 OFFCURVE",
"378 472 CURVE",
"382 497 LINE",
"356 502 OFFCURVE",
"330 504 OFFCURVE",
"309 504 CURVE SMOOTH",
"160 504 OFFCURVE",
"43 415 OFFCURVE",
"43 226 CURVE SMOOTH",
"43 56 OFFCURVE",
"115 -10 OFFCURVE",
"208 -10 CURVE SMOOTH",
"304 -10 OFFCURVE",
"352 52 OFFCURVE",
"376 124 CURVE",
"401 42 OFFCURVE",
"452 -10 OFFCURVE",
"547 -10 CURVE SMOOTH"
);
}
);
width = 793;
},
{
layerId = "32AB916E-052E-46AB-9DD5-C403DD480EC5";
paths = (
{
closed = 1;
nodes = (
"720 -10 OFFCURVE",
"836 75 OFFCURVE",
"836 345 CURVE SMOOTH",
"836 653 OFFCURVE",
"662 804 OFFCURVE",
"403 804 CURVE SMOOTH",
"254 804 OFFCURVE",
"147 753 OFFCURVE",
"47 694 CURVE",
"89 625 LINE",
"174 685 OFFCURVE",
"279 731 OFFCURVE",
"404 731 CURVE SMOOTH",
"616 731 OFFCURVE",
"732 607 OFFCURVE",
"732 381 CURVE SMOOTH",
"732 222 OFFCURVE",
"665 182 OFFCURVE",
"585 182 CURVE SMOOTH",
"506 182 OFFCURVE",
"470 222 OFFCURVE",
"454 268 CURVE",
"381 268 LINE",
"358 210 OFFCURVE",
"315 182 OFFCURVE",
"244 182 CURVE SMOOTH",
"173 182 OFFCURVE",
"135 219 OFFCURVE",
"135 291 CURVE SMOOTH",
"135 374 OFFCURVE",
"204 437 OFFCURVE",
"316 437 CURVE SMOOTH",
"357 437 OFFCURVE",
"379 434 OFFCURVE",
"409 427 CURVE",
"423 499 LINE",
"391 506 OFFCURVE",
"359 510 OFFCURVE",
"327 510 CURVE SMOOTH",
"139 510 OFFCURVE",
"31 405 OFFCURVE",
"31 233 CURVE SMOOTH",
"31 103 OFFCURVE",
"90 -10 OFFCURVE",
"227 -10 CURVE SMOOTH",
"340 -10 OFFCURVE",
"394 65 OFFCURVE",
"417 135 CURVE",
"444 48 OFFCURVE",
"500 -10 OFFCURVE",
"604 -10 CURVE SMOOTH"
);
}
);
width = 872;
},
{
layerId = UUID0;
paths = (
{
closed = 1;
nodes = (
"700 -10 OFFCURVE",
"792 78 OFFCURVE",
"792 345 CURVE SMOOTH",
"792 656 OFFCURVE",
"634 804 OFFCURVE",
"384 804 CURVE SMOOTH",
"240 804 OFFCURVE",
"142 760 OFFCURVE",
"52 699 CURVE",
"86 653 LINE",
"179 722 OFFCURVE",
"278 752 OFFCURVE",
"384 752 CURVE SMOOTH",
"614 752 OFFCURVE",
"729 607 OFFCURVE",
"729 361 CURVE SMOOTH",
"729 150 OFFCURVE",
"654 95 OFFCURVE",
"568 95 CURVE SMOOTH",
"494 95 OFFCURVE",
"434 131 OFFCURVE",
"427 204 CURVE",
"374 204 LINE",
"359 147 OFFCURVE",
"325 95 OFFCURVE",
"237 95 CURVE SMOOTH",
"151 95 OFFCURVE",
"101 140 OFFCURVE",
"101 246 CURVE SMOOTH",
"101 378 OFFCURVE",
"174 452 OFFCURVE",
"314 452 CURVE SMOOTH",
"342 452 OFFCURVE",
"366 450 OFFCURVE",
"395 444 CURVE",
"405 495 LINE",
"385 500 OFFCURVE",
"351 504 OFFCURVE",
"318 504 CURVE SMOOTH",
"156 504 OFFCURVE",
"40 410 OFFCURVE",
"40 226 CURVE SMOOTH",
"40 79 OFFCURVE",
"103 -10 OFFCURVE",
"227 -10 CURVE SMOOTH",
"323 -10 OFFCURVE",
"377 59 OFFCURVE",
"400 129 CURVE",
"429 44 OFFCURVE",
"481 -10 OFFCURVE",
"582 -10 CURVE SMOOTH"
);
}
);
width = 837;
}
);
rightKerningGroup = ngasinh;
unicode = 0DB0;
},
